<svg width="375" height="445" viewBox="0 0 375 445" fill="none" xmlns="http://www.w3.org/2000/svg">
<rect width="375" height="445" fill="#347AF0"/>
<path opacity="0.5" d="M47.7033 389H44.3853V379.41H47.7033C49.178 379.41 50.186 379.783 50.7273 380.53C51.2686 381.277 51.5393 382.448 51.5393 384.044C51.5393 384.856 51.4833 385.547 51.3713 386.116C51.2686 386.676 51.082 387.185 50.8113 387.642C50.2793 388.547 49.2433 389 47.7033 389ZM49.9293 384.044C49.9293 382.887 49.7846 382.051 49.4953 381.538C49.206 381.025 48.6086 380.768 47.7033 380.768H45.9393V387.628H47.7033C48.6273 387.628 49.2433 387.287 49.5513 386.606C49.7006 386.261 49.7986 385.892 49.8453 385.5C49.9013 385.108 49.9293 384.623 49.9293 384.044ZM53.172 389V382H54.698V389H53.172ZM53.172 380.81V379.2H54.698V380.81H53.172ZM61.729 384.156V387.348C61.7383 387.553 61.7897 387.707 61.883 387.81C61.9857 387.903 62.1397 387.964 62.345 387.992L62.303 389.154C61.5003 389.154 60.8797 388.981 60.441 388.636C59.6943 388.981 58.943 389.154 58.187 389.154C56.7963 389.154 56.101 388.412 56.101 386.928C56.101 386.219 56.2877 385.705 56.661 385.388C57.0437 385.071 57.627 384.879 58.411 384.814L60.217 384.66V384.156C60.217 383.783 60.133 383.521 59.965 383.372C59.8063 383.223 59.5683 383.148 59.251 383.148C58.6537 383.148 57.907 383.185 57.011 383.26L56.563 383.288L56.507 382.21C57.5243 381.967 58.4577 381.846 59.307 381.846C60.1657 381.846 60.7817 382.033 61.155 382.406C61.5377 382.77 61.729 383.353 61.729 384.156ZM58.593 385.892C57.949 385.948 57.627 386.298 57.627 386.942C57.627 387.586 57.9117 387.908 58.481 387.908C58.9477 387.908 59.4423 387.833 59.965 387.684L60.217 387.6V385.738L58.593 385.892Z" fill="white"/>
<rect x="89" y="370" width="62" height="28" rx="4" fill="white" fill-opacity="0.1"/>
<path d="M100.282 380.614C99.097 380.614 98.5043 381.029 98.5043 381.86C98.5043 382.289 98.6443 382.597 98.9243 382.784C99.2043 382.961 99.8203 383.185 100.772 383.456C101.734 383.717 102.41 384.035 102.802 384.408C103.194 384.772 103.39 385.351 103.39 386.144C103.39 387.152 103.101 387.908 102.522 388.412C101.953 388.907 101.174 389.154 100.184 389.154C99.391 389.154 98.5136 389.061 97.5523 388.874L97.0483 388.776L97.2023 387.53C98.4623 387.698 99.4236 387.782 100.086 387.782C101.244 387.782 101.822 387.269 101.822 386.242C101.822 385.841 101.692 385.547 101.43 385.36C101.169 385.164 100.581 384.954 99.6663 384.73C98.7516 384.497 98.0703 384.179 97.6223 383.778C97.1743 383.377 96.9503 382.742 96.9503 381.874C96.9503 381.006 97.2303 380.353 97.7903 379.914C98.3596 379.466 99.1436 379.242 100.142 379.242C100.861 379.242 101.71 379.326 102.69 379.494L103.18 379.578L103.054 380.838C101.748 380.689 100.824 380.614 100.282 380.614ZM109.872 387.74L110.264 387.698L110.292 388.832C109.228 389.047 108.285 389.154 107.464 389.154C106.428 389.154 105.681 388.869 105.224 388.3C104.776 387.731 104.552 386.821 104.552 385.57C104.552 383.087 105.565 381.846 107.59 381.846C109.55 381.846 110.53 382.915 110.53 385.052L110.432 386.144H106.092C106.101 386.723 106.227 387.147 106.47 387.418C106.713 387.689 107.165 387.824 107.828 387.824C108.491 387.824 109.172 387.796 109.872 387.74ZM109.032 384.968C109.032 384.277 108.92 383.797 108.696 383.526C108.481 383.246 108.113 383.106 107.59 383.106C107.067 383.106 106.685 383.251 106.442 383.54C106.209 383.829 106.087 384.305 106.078 384.968H109.032ZM113.523 389H111.997V382H113.509V382.434C114.172 382.042 114.779 381.846 115.329 381.846C116.141 381.846 116.734 382.075 117.107 382.532C117.957 382.075 118.801 381.846 119.641 381.846C120.481 381.846 121.074 382.107 121.419 382.63C121.765 383.143 121.937 384.016 121.937 385.248V389H120.425V385.29C120.425 384.534 120.346 383.997 120.187 383.68C120.038 383.363 119.721 383.204 119.235 383.204C118.815 383.204 118.363 383.297 117.877 383.484L117.639 383.582C117.714 383.769 117.751 384.366 117.751 385.374V389H116.239V385.402C116.239 384.571 116.165 383.997 116.015 383.68C115.866 383.363 115.539 383.204 115.035 383.204C114.569 383.204 114.135 383.297 113.733 383.484L113.523 383.568V389ZM128.908 384.156V387.348C128.917 387.553 128.968 387.707 129.062 387.81C129.164 387.903 129.318 387.964 129.524 387.992L129.482 389.154C128.679 389.154 128.058 388.981 127.62 388.636C126.873 388.981 126.122 389.154 125.366 389.154C123.975 389.154 123.28 388.412 123.28 386.928C123.28 386.219 123.466 385.705 123.84 385.388C124.222 385.071 124.806 384.879 125.59 384.814L127.396 384.66V384.156C127.396 383.783 127.312 383.521 127.144 383.372C126.985 383.223 126.747 383.148 126.43 383.148C125.832 383.148 125.086 383.185 124.19 383.26L123.742 383.288L123.686 382.21C124.703 381.967 125.636 381.846 126.486 381.846C127.344 381.846 127.96 382.033 128.334 382.406C128.716 382.77 128.908 383.353 128.908 384.156ZM125.772 385.892C125.128 385.948 124.806 386.298 124.806 386.942C124.806 387.586 125.09 387.908 125.66 387.908C126.126 387.908 126.621 387.833 127.144 387.684L127.396 387.6V385.738L125.772 385.892ZM132.349 389H130.823V382H132.335V382.434C133.017 382.042 133.661 381.846 134.267 381.846C135.201 381.846 135.835 382.112 136.171 382.644C136.517 383.167 136.689 384.035 136.689 385.248V389H135.177V385.29C135.177 384.534 135.093 383.997 134.925 383.68C134.767 383.363 134.435 383.204 133.931 383.204C133.455 383.204 132.998 383.297 132.559 383.484L132.349 383.568V389ZM143.646 384.156V387.348C143.655 387.553 143.707 387.707 143.8 387.81C143.903 387.903 144.057 387.964 144.262 387.992L144.22 389.154C143.417 389.154 142.797 388.981 142.358 388.636C141.611 388.981 140.86 389.154 140.104 389.154C138.713 389.154 138.018 388.412 138.018 386.928C138.018 386.219 138.205 385.705 138.578 385.388C138.961 385.071 139.544 384.879 140.328 384.814L142.134 384.66V384.156C142.134 383.783 142.05 383.521 141.882 383.372C141.723 383.223 141.485 383.148 141.168 383.148C140.571 383.148 139.824 383.185 138.928 383.26L138.48 383.288L138.424 382.21C139.441 381.967 140.375 381.846 141.224 381.846C142.083 381.846 142.699 382.033 143.072 382.406C143.455 382.77 143.646 383.353 143.646 384.156ZM140.51 385.892C139.866 385.948 139.544 386.298 139.544 386.942C139.544 387.586 139.829 387.908 140.398 387.908C140.865 387.908 141.359 387.833 141.882 387.684L142.134 387.6V385.738L140.51 385.892Z" fill="white"/>
<path opacity="0.5" d="M175.364 389V379.41H178.066L180.208 386.9L182.35 379.41H185.066V389H183.498V381.132H183.288L181.02 388.608H179.396L177.128 381.132H176.918V389H175.364ZM191.978 387.74L192.37 387.698L192.398 388.832C191.334 389.047 190.392 389.154 189.57 389.154C188.534 389.154 187.788 388.869 187.33 388.3C186.882 387.731 186.658 386.821 186.658 385.57C186.658 383.087 187.671 381.846 189.696 381.846C191.656 381.846 192.636 382.915 192.636 385.052L192.538 386.144H188.198C188.208 386.723 188.334 387.147 188.576 387.418C188.819 387.689 189.272 387.824 189.934 387.824C190.597 387.824 191.278 387.796 191.978 387.74ZM191.138 384.968C191.138 384.277 191.026 383.797 190.802 383.526C190.588 383.246 190.219 383.106 189.696 383.106C189.174 383.106 188.791 383.251 188.548 383.54C188.315 383.829 188.194 384.305 188.184 384.968H191.138ZM187.456 380.81L189.206 378.766H190.172L191.95 380.81H190.522L189.71 379.746L188.898 380.81H187.456ZM198.962 383.442C197.86 383.293 197.062 383.218 196.568 383.218C196.073 383.218 195.728 383.279 195.532 383.4C195.345 383.512 195.252 383.694 195.252 383.946C195.252 384.198 195.354 384.375 195.56 384.478C195.774 384.581 196.269 384.702 197.044 384.842C197.828 384.973 198.383 385.183 198.71 385.472C199.036 385.761 199.2 386.275 199.2 387.012C199.2 387.749 198.962 388.291 198.486 388.636C198.019 388.981 197.333 389.154 196.428 389.154C195.858 389.154 195.14 389.075 194.272 388.916L193.838 388.846L193.894 387.572C195.014 387.721 195.821 387.796 196.316 387.796C196.81 387.796 197.16 387.735 197.366 387.614C197.58 387.493 197.688 387.292 197.688 387.012C197.688 386.732 197.585 386.541 197.38 386.438C197.184 386.326 196.703 386.209 195.938 386.088C195.182 385.957 194.626 385.757 194.272 385.486C193.917 385.215 193.74 384.721 193.74 384.002C193.74 383.283 193.982 382.747 194.468 382.392C194.962 382.037 195.592 381.86 196.358 381.86C196.955 381.86 197.688 381.935 198.556 382.084L198.99 382.168L198.962 383.442Z" fill="white"/>
<path opacity="0.5" d="M242.556 389L244.922 379.41H248.016L250.396 389H248.828L248.31 386.942H244.628L244.11 389H242.556ZM246.126 380.712L244.936 385.57H248.002L246.826 380.712H246.126ZM253.107 389H251.581V382H253.093V382.434C253.775 382.042 254.419 381.846 255.025 381.846C255.959 381.846 256.593 382.112 256.929 382.644C257.275 383.167 257.447 384.035 257.447 385.248V389H255.935V385.29C255.935 384.534 255.851 383.997 255.683 383.68C255.525 383.363 255.193 383.204 254.689 383.204C254.213 383.204 253.756 383.297 253.317 383.484L253.107 383.568V389ZM259.602 382.756C260.087 382.149 260.89 381.846 262.01 381.846C263.13 381.846 263.928 382.149 264.404 382.756C264.889 383.363 265.132 384.273 265.132 385.486C265.132 386.699 264.898 387.614 264.432 388.23C263.965 388.846 263.158 389.154 262.01 389.154C260.862 389.154 260.054 388.846 259.588 388.23C259.121 387.614 258.888 386.699 258.888 385.486C258.888 384.273 259.126 383.363 259.602 382.756ZM260.75 387.306C260.964 387.679 261.384 387.866 262.01 387.866C262.635 387.866 263.055 387.679 263.27 387.306C263.484 386.933 263.592 386.321 263.592 385.472C263.592 384.623 263.475 384.021 263.242 383.666C263.018 383.311 262.607 383.134 262.01 383.134C261.412 383.134 260.997 383.311 260.764 383.666C260.54 384.021 260.428 384.623 260.428 385.472C260.428 386.321 260.535 386.933 260.75 387.306Z" fill="white"/>
<path opacity="0.5" d="M308.183 380.796V379.41H315.183V380.796H312.481V389H310.913V380.796H308.183ZM319.579 382H321.091V389H319.579V388.566C318.898 388.958 318.268 389.154 317.689 389.154C316.728 389.154 316.084 388.897 315.757 388.384C315.43 387.861 315.267 386.951 315.267 385.654V382H316.793V385.668C316.793 386.508 316.863 387.073 317.003 387.362C317.143 387.651 317.47 387.796 317.983 387.796C318.487 387.796 318.949 387.703 319.369 387.516L319.579 387.432V382ZM328.651 379.088V389H327.139V388.636C326.457 388.981 325.832 389.154 325.263 389.154C324.348 389.154 323.676 388.879 323.247 388.328C322.827 387.777 322.617 386.853 322.617 385.556C322.617 384.259 322.85 383.316 323.317 382.728C323.793 382.14 324.53 381.846 325.529 381.846C325.865 381.846 326.397 381.907 327.125 382.028V379.088H328.651ZM326.887 387.544L327.125 387.446V383.302C326.565 383.209 326.047 383.162 325.571 383.162C324.628 383.162 324.157 383.946 324.157 385.514C324.157 386.373 324.264 386.97 324.479 387.306C324.703 387.633 325.053 387.796 325.529 387.796C326.005 387.796 326.457 387.712 326.887 387.544ZM330.877 382.756C331.363 382.149 332.165 381.846 333.285 381.846C334.405 381.846 335.203 382.149 335.679 382.756C336.165 383.363 336.407 384.273 336.407 385.486C336.407 386.699 336.174 387.614 335.707 388.23C335.241 388.846 334.433 389.154 333.285 389.154C332.137 389.154 331.33 388.846 330.863 388.23C330.397 387.614 330.163 386.699 330.163 385.486C330.163 384.273 330.401 383.363 330.877 382.756ZM332.025 387.306C332.24 387.679 332.66 387.866 333.285 387.866C333.911 387.866 334.331 387.679 334.545 387.306C334.76 386.933 334.867 386.321 334.867 385.472C334.867 384.623 334.751 384.021 334.517 383.666C334.293 383.311 333.883 383.134 333.285 383.134C332.688 383.134 332.273 383.311 332.039 383.666C331.815 384.021 331.703 384.623 331.703 385.472C331.703 386.321 331.811 386.933 332.025 387.306Z" fill="white"/>
<g filter="url(#filter0_i)">
<path d="M681 340.521C681 339.77 679.778 339.168 678.251 339.131C662.786 338.755 654.693 335.166 646.145 331.389C636.678 327.217 626.943 322.895 607.473 322.895C588.004 322.895 578.231 327.217 568.797 331.389C559.753 335.391 551.24 339.168 533.908 339.168C517.493 339.168 508.518 327.217 499.817 315.68C490.426 303.221 480.729 290.35 460.382 290.35C439.881 290.35 434 313.261 403 315.04C372 316.819 357 297.697 347 274.129C334.517 244.708 322.21 243.029 308.5 243C294.79 242.972 283.627 251.021 274.16 257.954C265.146 264.569 256.637 270.826 239.763 270.826C219.946 270.826 210.177 277.253 200.748 283.472C191.7 289.391 183.187 294.991 166.237 294.991C146.271 294.991 136.536 302.526 127.064 309.817C118.059 316.788 109.507 323.365 92.6718 323.365C75.8362 323.365 67.323 316.901 58.2753 310.042C48.8459 302.883 39.0729 295.461 19.1451 295.461C-1.6608 295.461 -10.3649 322.069 -20.4433 352.886C-28.4603 377.426 -38.4242 407.98 -54.3817 407.98C-70.3392 407.98 -80.3413 375.754 -88.3582 349.879C-98.4366 317.427 -107.141 289.41 -127.947 289.41C-148.294 289.41 -157.991 302.526 -167.344 315.21C-176.048 326.992 -185.058 339.168 -201.473 339.168C-218.309 339.168 -226.822 332.704 -235.87 325.846C-245.299 318.686 -255.072 311.264 -275 311.264" stroke="white" stroke-width="1.5"/>
</g>
<path fill-rule="evenodd" clip-rule="evenodd" d="M196 294C200.418 294 204 290.418 204 286C204 281.582 200.418 278 196 278C191.582 278 188 281.582 188 286C188 290.418 191.582 294 196 294Z" fill="white" fill-opacity="0.3"/>
<path fill-rule="evenodd" clip-rule="evenodd" d="M196 292C199.314 292 202 289.314 202 286C202 282.686 199.314 280 196 280C192.686 280 190 282.686 190 286C190 289.314 192.686 292 196 292Z" fill="white" fill-opacity="0.5"/>
<path fill-rule="evenodd" clip-rule="evenodd" d="M196 289C197.657 289 199 287.657 199 286C199 284.343 197.657 283 196 283C194.343 283 193 284.343 193 286C193 287.657 194.343 289 196 289Z" fill="white"/>
<path fill-rule="evenodd" clip-rule="evenodd" d="M160.5 229C149.454 229 140.5 237.954 140.5 249V250C140.5 261.046 149.454 270 160.5 270H190.306L195.5 275.657L200.694 270H230.5C241.546 270 250.5 261.046 250.5 250V249C250.5 237.954 241.546 229 230.5 229H160.5Z" fill="white" fill-opacity="0.3"/>
<path d="M160.784 262.936V262.039C161.408 262.039 161.806 261.965 161.98 261.818C162.162 261.662 162.253 261.263 162.253 260.622V253.004H163.241L163.254 260.765C163.254 261.493 163.132 262.026 162.89 262.364C162.69 262.65 162.296 262.828 161.707 262.897C161.473 262.923 161.165 262.936 160.784 262.936ZM169.3 255.5H170.275V262H169.3V261.545C168.65 261.935 168.008 262.13 167.376 262.13C166.492 262.13 165.902 261.9 165.608 261.441C165.322 260.982 165.179 260.132 165.179 258.893V255.5H166.154V258.88C166.154 259.825 166.236 260.457 166.401 260.778C166.565 261.099 166.938 261.259 167.519 261.259C167.805 261.259 168.095 261.22 168.39 261.142C168.684 261.055 168.91 260.973 169.066 260.895L169.3 260.778V255.5ZM173.125 262H172.15V255.5H173.112V255.955C173.814 255.565 174.486 255.37 175.127 255.37C175.994 255.37 176.574 255.604 176.869 256.072C177.172 256.54 177.324 257.372 177.324 258.568V262H176.362V258.594C176.362 257.693 176.271 257.077 176.089 256.748C175.916 256.41 175.539 256.241 174.958 256.241C174.681 256.241 174.386 256.284 174.074 256.371C173.771 256.449 173.537 256.527 173.372 256.605L173.125 256.722V262ZM186.11 253.42V262H185.109V254.538L182.899 255.994L182.444 255.24L185.174 253.42H186.11ZM193.007 262V260.323H188.847V259.543L191.291 253.42H192.383L189.9 259.439H193.007V256.761H194.008V259.439H195.1V260.323H194.008V262H193.007ZM196.044 263.599L196.642 260.609H197.721L196.85 263.599H196.044ZM207.736 262H202.25V261.155L204.759 258.516C205.192 258.065 205.508 257.723 205.708 257.489C205.907 257.255 206.085 256.978 206.241 256.657C206.405 256.336 206.488 256.016 206.488 255.695C206.488 255.14 206.336 254.75 206.033 254.525C205.729 254.3 205.257 254.187 204.616 254.187C204.052 254.187 203.424 254.261 202.731 254.408L202.393 254.473L202.315 253.641C203.138 253.407 203.987 253.29 204.863 253.29C205.738 253.29 206.397 253.476 206.839 253.849C207.289 254.213 207.515 254.794 207.515 255.591C207.515 256.198 207.38 256.726 207.112 257.177C206.843 257.628 206.379 258.169 205.721 258.802L203.433 261.129H207.736V262ZM212.254 253.277C212.965 253.277 213.541 253.411 213.983 253.68C214.919 254.235 215.387 255.621 215.387 257.84C215.387 259.409 215.127 260.518 214.607 261.168C214.087 261.809 213.307 262.13 212.267 262.13C211.227 262.13 210.443 261.814 209.914 261.181C209.394 260.54 209.134 259.404 209.134 257.775C209.134 256.137 209.39 254.98 209.901 254.304C210.421 253.619 211.205 253.277 212.254 253.277ZM212.267 254.174C211.773 254.174 211.383 254.278 211.097 254.486C210.482 254.911 210.174 256.033 210.174 257.853C210.174 259.136 210.343 260.024 210.681 260.518C211.019 261.003 211.548 261.246 212.267 261.246C212.986 261.246 213.515 260.999 213.853 260.505C214.191 260.011 214.36 259.097 214.36 257.762C214.36 256.419 214.195 255.487 213.866 254.967C213.545 254.438 213.012 254.174 212.267 254.174ZM222.284 262H216.798V261.155L219.307 258.516C219.741 258.065 220.057 257.723 220.256 257.489C220.456 257.255 220.633 256.978 220.789 256.657C220.954 256.336 221.036 256.016 221.036 255.695C221.036 255.14 220.885 254.75 220.581 254.525C220.278 254.3 219.806 254.187 219.164 254.187C218.601 254.187 217.973 254.261 217.279 254.408L216.941 254.473L216.863 253.641C217.687 253.407 218.536 253.29 219.411 253.29C220.287 253.29 220.945 253.476 221.387 253.849C221.838 254.213 222.063 254.794 222.063 255.591C222.063 256.198 221.929 256.726 221.66 257.177C221.392 257.628 220.928 258.169 220.269 258.802L217.981 261.129H222.284V262ZM226.803 253.277C227.513 253.277 228.09 253.411 228.532 253.68C229.468 254.235 229.936 255.621 229.936 257.84C229.936 259.409 229.676 260.518 229.156 261.168C228.636 261.809 227.856 262.13 226.816 262.13C225.776 262.13 224.991 261.814 224.463 261.181C223.943 260.54 223.683 259.404 223.683 257.775C223.683 256.137 223.938 254.98 224.45 254.304C224.97 253.619 225.754 253.277 226.803 253.277ZM226.816 254.174C226.322 254.174 225.932 254.278 225.646 254.486C225.03 254.911 224.723 256.033 224.723 257.853C224.723 259.136 224.892 260.024 225.23 260.518C225.568 261.003 226.096 261.246 226.816 261.246C227.535 261.246 228.064 260.999 228.402 260.505C228.74 260.011 228.909 259.097 228.909 257.762C228.909 256.419 228.744 255.487 228.415 254.967C228.094 254.438 227.561 254.174 226.816 254.174Z" fill="white" fill-opacity="0.699465"/>
<path d="M184.85 237.725H186.59L184.07 248H180.8L178.28 237.725H180.02L182.06 246.53H182.81L184.85 237.725ZM189.696 245.825C190.036 246.415 190.686 246.71 191.646 246.71C192.606 246.71 193.251 246.42 193.581 245.84C193.921 245.26 194.091 244.29 194.091 242.93C194.091 241.56 193.916 240.565 193.566 239.945C193.226 239.325 192.586 239.015 191.646 239.015C190.706 239.015 190.061 239.325 189.711 239.945C189.361 240.565 189.186 241.555 189.186 242.915C189.186 244.265 189.356 245.235 189.696 245.825ZM194.886 246.905C194.276 247.745 193.196 248.165 191.646 248.165C190.096 248.165 189.011 247.745 188.391 246.905C187.771 246.055 187.461 244.725 187.461 242.915C187.461 241.105 187.771 239.76 188.391 238.88C189.021 238 190.106 237.56 191.646 237.56C193.186 237.56 194.266 238 194.886 238.88C195.506 239.75 195.816 241.095 195.816 242.915C195.816 244.735 195.506 246.065 194.886 246.905ZM201.204 248.165C199.704 248.165 198.684 247.75 198.144 246.92C197.614 246.09 197.349 244.725 197.349 242.825C197.349 240.925 197.619 239.575 198.159 238.775C198.699 237.965 199.714 237.56 201.204 237.56C202.094 237.56 203.074 237.685 204.144 237.935L204.084 239.285C203.184 239.125 202.284 239.045 201.384 239.045C200.484 239.045 199.874 239.315 199.554 239.855C199.234 240.385 199.074 241.39 199.074 242.87C199.074 244.34 199.229 245.345 199.539 245.885C199.849 246.415 200.454 246.68 201.354 246.68C202.254 246.68 203.164 246.605 204.084 246.455L204.129 247.835C203.099 248.055 202.124 248.165 201.204 248.165ZM205.914 248V237.725H212.394V239.18H207.579V242.09H211.494V243.53H207.579V246.53H212.394V248H205.914ZM206.454 236.36L208.464 234.215H209.874L211.884 236.36H210.144L209.184 235.355L208.209 236.36H206.454Z" fill="white"/>
<path d="M121.831 138.704V146H117.415V124.24H125.863C130.983 124.24 133.543 126.629 133.543 131.408C133.543 134.245 132.476 136.336 130.343 137.68L133.447 146H128.615L126.087 138.704H121.831ZM125.927 134.928C126.972 134.928 127.751 134.608 128.263 133.968C128.775 133.328 129.031 132.485 129.031 131.44C129.031 130.395 128.754 129.563 128.199 128.944C127.666 128.325 126.887 128.016 125.863 128.016H121.831V134.928H125.927ZM135.185 146L140.081 124.24H148.465L153.361 146H148.945L148.081 142.064H140.465L139.601 146H135.185ZM143.505 127.888L141.297 138.224H147.249L145.041 127.888H143.505ZM155.203 128.08V124.24H169.603V128.08L160.515 141.584V142.16H169.603V146H155.203V142.192L164.291 128.656V128.08H155.203ZM177.802 140.88C178.442 141.989 179.626 142.544 181.354 142.544C183.082 142.544 184.255 141.989 184.874 140.88C185.514 139.749 185.834 137.872 185.834 135.248C185.834 132.603 185.514 130.683 184.874 129.488C184.234 128.293 183.061 127.696 181.354 127.696C179.647 127.696 178.474 128.293 177.834 129.488C177.194 130.683 176.874 132.603 176.874 135.248C176.874 137.872 177.183 139.749 177.802 140.88ZM188.33 143.696C186.986 145.488 184.661 146.384 181.354 146.384C178.047 146.384 175.711 145.488 174.346 143.696C173.002 141.883 172.33 139.056 172.33 135.216C172.33 131.376 173.002 128.528 174.346 126.672C175.711 124.795 178.047 123.856 181.354 123.856C184.661 123.856 186.986 124.795 188.33 126.672C189.695 128.528 190.378 131.376 190.378 135.216C190.378 139.056 189.695 141.883 188.33 143.696ZM192.028 146L196.924 124.24H205.308L210.204 146H205.788L204.924 142.064H197.308L196.444 146H192.028ZM200.348 127.888L198.14 138.224H204.092L201.884 127.888H200.348ZM224.003 124.24H228.643L223.587 146H215.427L210.371 124.24H215.011L218.787 142.16H220.227L224.003 124.24ZM231.509 146V124.24H245.589V128.08H235.925V133.168H243.669V136.944H235.925V142.16H245.589V146H231.509ZM261.611 146H249.227V124.24H253.643V142.096H261.611V146Z" fill="white"/>
<path opacity="0.7" d="M140.543 164.475C139.043 164.475 138.293 165.04 138.293 166.17C138.293 166.8 138.463 167.235 138.803 167.475C139.153 167.705 139.853 167.94 140.903 168.18C141.963 168.41 142.713 168.715 143.153 169.095C143.593 169.465 143.813 170.08 143.813 170.94C143.813 173.07 142.708 174.135 140.498 174.135C139.768 174.135 138.853 174.05 137.753 173.88L137.213 173.805L137.333 172.845C138.693 173.025 139.728 173.115 140.438 173.115C141.918 173.115 142.658 172.42 142.658 171.03C142.658 170.47 142.493 170.07 142.163 169.83C141.843 169.58 141.238 169.37 140.348 169.2C139.178 168.95 138.348 168.63 137.858 168.24C137.368 167.84 137.123 167.175 137.123 166.245C137.123 164.385 138.238 163.455 140.468 163.455C141.198 163.455 142.073 163.53 143.093 163.68L143.603 163.755L143.498 164.73C142.108 164.56 141.123 164.475 140.543 164.475ZM150.908 168.765V172.605C150.938 172.975 151.228 173.195 151.778 173.265L151.733 174.15C150.943 174.15 150.348 173.95 149.948 173.55C149.048 173.95 148.148 174.15 147.248 174.15C146.558 174.15 146.033 173.955 145.673 173.565C145.313 173.175 145.133 172.615 145.133 171.885C145.133 171.155 145.318 170.62 145.688 170.28C146.058 169.93 146.638 169.715 147.428 169.635L149.783 169.41V168.765C149.783 168.255 149.673 167.89 149.453 167.67C149.233 167.45 148.933 167.34 148.553 167.34C147.753 167.34 146.923 167.39 146.063 167.49L145.598 167.535L145.553 166.68C146.653 166.46 147.628 166.35 148.478 166.35C149.328 166.35 149.943 166.545 150.323 166.935C150.713 167.325 150.908 167.935 150.908 168.765ZM146.288 171.825C146.288 172.745 146.668 173.205 147.428 173.205C148.108 173.205 148.778 173.09 149.438 172.86L149.783 172.74V170.265L147.563 170.475C147.113 170.515 146.788 170.645 146.588 170.865C146.388 171.085 146.288 171.405 146.288 171.825ZM158.932 166.5V174H157.807V173.475L157.492 173.64C157.282 173.76 156.992 173.875 156.622 173.985C156.252 174.095 155.907 174.15 155.587 174.15C154.567 174.15 153.887 173.885 153.547 173.355C153.217 172.825 153.052 171.845 153.052 170.415C153.052 170.415 153.052 169.11 153.052 166.5H154.177V170.4C154.177 171.49 154.272 172.22 154.462 172.59C154.652 172.96 155.097 173.145 155.797 173.145C156.507 173.145 157.177 172.96 157.807 172.59V166.5H158.932ZM154.372 164.37L157.612 162.9L158.002 163.86L154.687 165.135L154.372 164.37ZM166.856 163.23V174H165.746V173.49C164.976 173.93 164.216 174.15 163.466 174.15C163.066 174.15 162.716 174.1 162.416 174C162.116 173.9 161.836 173.72 161.576 173.46C161.036 172.92 160.766 171.925 160.766 170.475C160.766 169.015 161.006 167.965 161.486 167.325C161.976 166.675 162.781 166.35 163.901 166.35C164.481 166.35 165.096 166.415 165.746 166.545V163.23H166.856ZM162.446 172.65C162.606 172.84 162.776 172.97 162.956 173.04C163.136 173.11 163.366 173.145 163.646 173.145C163.936 173.145 164.256 173.1 164.606 173.01C164.966 172.91 165.246 172.815 165.446 172.725L165.746 172.59V167.505C165.106 167.385 164.511 167.325 163.961 167.325C163.201 167.325 162.671 167.57 162.371 168.06C162.071 168.54 161.921 169.29 161.921 170.31C161.921 171.47 162.096 172.25 162.446 172.65ZM174.136 173.07L174.571 173.025L174.601 173.91C173.461 174.07 172.486 174.15 171.676 174.15C170.596 174.15 169.831 173.84 169.381 173.22C168.931 172.59 168.706 171.615 168.706 170.295C168.706 167.665 169.751 166.35 171.841 166.35C172.851 166.35 173.606 166.635 174.106 167.205C174.606 167.765 174.856 168.65 174.856 169.86L174.796 170.715H169.846C169.846 171.545 169.996 172.16 170.296 172.56C170.596 172.96 171.116 173.16 171.856 173.16C172.606 173.16 173.366 173.13 174.136 173.07ZM173.731 169.815C173.731 168.895 173.581 168.245 173.281 167.865C172.991 167.485 172.511 167.295 171.841 167.295C171.181 167.295 170.681 167.495 170.341 167.895C170.011 168.295 169.841 168.935 169.831 169.815H173.731ZM179.185 174L182.035 163.62H184.555L187.405 174H186.265L185.515 171.33H181.075L180.325 174H179.185ZM182.905 164.61L181.33 170.295H185.26L183.685 164.61H182.905ZM188.93 174V163.23H190.055V174H188.93ZM192.312 174V166.5H193.437V174H192.312ZM192.312 164.805V163.5H193.437V164.805H192.312ZM196.718 174H195.593V166.5H196.703V167.025C197.453 166.575 198.183 166.35 198.893 166.35C199.823 166.35 200.473 166.605 200.843 167.115C201.173 166.915 201.598 166.74 202.118 166.59C202.648 166.43 203.113 166.35 203.513 166.35C204.513 166.35 205.183 166.62 205.523 167.16C205.873 167.69 206.048 168.65 206.048 170.04V174H204.923V170.07C204.923 169.03 204.823 168.32 204.623 167.94C204.423 167.55 203.998 167.355 203.348 167.355C203.018 167.355 202.678 167.405 202.328 167.505C201.978 167.595 201.708 167.685 201.518 167.775L201.233 167.91C201.363 168.24 201.428 168.97 201.428 170.1V174H200.303V170.13C200.303 169.05 200.203 168.32 200.003 167.94C199.813 167.55 199.388 167.355 198.728 167.355C198.408 167.355 198.078 167.405 197.738 167.505C197.408 167.595 197.153 167.685 196.973 167.775L196.718 167.91V174ZM213.232 173.07L213.667 173.025L213.697 173.91C212.557 174.07 211.582 174.15 210.772 174.15C209.692 174.15 208.927 173.84 208.477 173.22C208.027 172.59 207.802 171.615 207.802 170.295C207.802 167.665 208.847 166.35 210.937 166.35C211.947 166.35 212.702 166.635 213.202 167.205C213.702 167.765 213.952 168.65 213.952 169.86L213.892 170.715H208.942C208.942 171.545 209.092 172.16 209.392 172.56C209.692 172.96 210.212 173.16 210.952 173.16C211.702 173.16 212.462 173.13 213.232 173.07ZM212.827 169.815C212.827 168.895 212.677 168.245 212.377 167.865C212.087 167.485 211.607 167.295 210.937 167.295C210.277 167.295 209.777 167.495 209.437 167.895C209.107 168.295 208.937 168.935 208.927 169.815H212.827ZM216.83 174H215.705V166.5H216.815V167.025C217.625 166.575 218.4 166.35 219.14 166.35C220.14 166.35 220.81 166.62 221.15 167.16C221.5 167.7 221.675 168.66 221.675 170.04V174H220.565V170.07C220.565 169.03 220.46 168.32 220.25 167.94C220.05 167.55 219.615 167.355 218.945 167.355C218.625 167.355 218.285 167.405 217.925 167.505C217.575 167.595 217.305 167.685 217.115 167.775L216.83 167.91V174ZM227.603 167.475H225.218V171.06C225.218 171.92 225.278 172.485 225.398 172.755C225.528 173.025 225.828 173.16 226.298 173.16L227.633 173.07L227.708 174C227.038 174.11 226.528 174.165 226.178 174.165C225.398 174.165 224.858 173.975 224.558 173.595C224.258 173.215 224.108 172.49 224.108 171.42V167.475H223.043V166.5H224.108V164.205H225.218V166.5H227.603V167.475ZM234.272 168.765V172.605C234.302 172.975 234.592 173.195 235.142 173.265L235.097 174.15C234.307 174.15 233.712 173.95 233.312 173.55C232.412 173.95 231.512 174.15 230.612 174.15C229.922 174.15 229.397 173.955 229.037 173.565C228.677 173.175 228.497 172.615 228.497 171.885C228.497 171.155 228.682 170.62 229.052 170.28C229.422 169.93 230.002 169.715 230.792 169.635L233.147 169.41V168.765C233.147 168.255 233.037 167.89 232.817 167.67C232.597 167.45 232.297 167.34 231.917 167.34C231.117 167.34 230.287 167.39 229.427 167.49L228.962 167.535L228.917 166.68C230.017 166.46 230.992 166.35 231.842 166.35C232.692 166.35 233.307 166.545 233.687 166.935C234.077 167.325 234.272 167.935 234.272 168.765ZM229.652 171.825C229.652 172.745 230.032 173.205 230.792 173.205C231.472 173.205 232.142 173.09 232.802 172.86L233.147 172.74V170.265L230.927 170.475C230.477 170.515 230.152 170.645 229.952 170.865C229.752 171.085 229.652 171.405 229.652 171.825ZM236.492 174V166.5H237.602V167.52C238.472 166.92 239.387 166.525 240.347 166.335V167.475C239.927 167.555 239.487 167.68 239.027 167.85C238.577 168.02 238.232 168.17 237.992 168.3L237.617 168.495V174H236.492Z" fill="white"/>
<defs>
<filter id="filter0_i" x="-275" y="241.25" width="956.75" height="167.48" filterUnits="userSpaceOnUse" color-interpolation-filters="sRGB">
<feFlood flood-opacity="0" result="BackgroundImageFix"/>
<feBlend mode="normal" in="SourceGraphic" in2="BackgroundImageFix" result="shape"/>
<feColorMatrix in="SourceAlpha" type="matrix" values="0 0 0 0 0 0 0 0 0 0 0 0 0 0 0 0 0 0 127 0" result="hardAlpha"/>
<feOffset dy="-1"/>
<feGaussianBlur stdDeviation="5.5"/>
<feComposite in2="hardAlpha" operator="arithmetic" k2="-1" k3="1"/>
<feColorMatrix type="matrix" values="0 0 0 0 0.196078 0 0 0 0 0.196078 0 0 0 0 0.364706 0 0 0 0.01 0"/>
<feBlend mode="normal" in2="shape" result="effect1_innerShadow"/>
</filter>
</defs>
</svg>
