<svg width="100" height="78" viewBox="0 0 100 78" fill="none" xmlns="http://www.w3.org/2000/svg">
<rect width="100" height="75" rx="10" fill="#C5D6F1"/>
<g filter="url(#filter0_d)">
<path d="M70.769 57.451L70.8247 57.4511C72.7235 57.4671 74.583 56.9076 76.1607 55.8457C77.7383 54.7838 78.9609 53.2688 79.6687 51.4982C81.1247 47.8001 81.8584 43.8548 81.8299 39.8779C81.7308 23.0452 68.1028 9.23589 51.3529 9.00305C44.2195 8.9027 37.271 11.2842 31.6853 15.7438C26.0996 20.2034 22.2204 26.4667 20.7054 33.4721C19.1903 40.4774 20.1325 47.7937 23.3723 54.1807C26.6121 60.5676 31.9502 65.6324 38.4816 68.5162C40.2077 69.2842 42.1244 69.51 43.9804 69.1642C45.8364 68.8183 47.5451 67.9169 48.8824 66.5782C51.7506 63.6808 55.1613 61.3826 58.9177 59.8161C62.6741 58.2496 66.702 57.4458 70.769 57.451Z" fill="#E6E6E6"/>
<path d="M54.886 48.0458C60.5251 48.0458 65.0965 43.4522 65.0965 37.7856C65.0965 32.119 60.5251 27.5254 54.886 27.5254C49.2468 27.5254 44.6754 32.119 44.6754 37.7856C44.6754 43.4522 49.2468 48.0458 54.886 48.0458Z" fill="#F9A825"/>
<path d="M32.6948 36.6319C33.3591 36.6319 33.8976 36.0907 33.8976 35.4232C33.8976 34.7556 33.3591 34.2144 32.6948 34.2144C32.0305 34.2144 31.4919 34.7556 31.4919 35.4232C31.4919 36.0907 32.0305 36.6319 32.6948 36.6319Z" fill="#3F3D56"/>
<path d="M39.1054 24.1053C39.7697 24.1053 40.3083 23.5642 40.3083 22.8966C40.3083 22.2291 39.7697 21.6879 39.1054 21.6879C38.4411 21.6879 37.9026 22.2291 37.9026 22.8966C37.9026 23.5642 38.4411 24.1053 39.1054 24.1053Z" fill="#3F3D56"/>
<path d="M39.0712 58.9447C39.7355 58.9447 40.274 58.4036 40.274 57.736C40.274 57.0685 39.7355 56.5273 39.0712 56.5273C38.4069 56.5273 37.8684 57.0685 37.8684 57.736C37.8684 58.4036 38.4069 58.9447 39.0712 58.9447Z" fill="#3F3D56"/>
<path d="M62.8958 21.6089C63.5601 21.6089 64.0987 21.0678 64.0987 20.4002C64.0987 19.7327 63.5601 19.1915 62.8958 19.1915C62.2315 19.1915 61.693 19.7327 61.693 20.4002C61.693 21.0678 62.2315 21.6089 62.8958 21.6089Z" fill="#3F3D56"/>
</g>
<defs>
<filter id="filter0_d" x="16" y="9" width="69.8307" height="68.3219" filterUnits="userSpaceOnUse" color-interpolation-filters="sRGB">
<feFlood flood-opacity="0" result="BackgroundImageFix"/>
<feColorMatrix in="SourceAlpha" type="matrix" values="0 0 0 0 0 0 0 0 0 0 0 0 0 0 0 0 0 0 127 0"/>
<feOffset dy="4"/>
<feGaussianBlur stdDeviation="2"/>
<feColorMatrix type="matrix" values="0 0 0 0 0 0 0 0 0 0 0 0 0 0 0 0 0 0 0.25 0"/>
<feBlend mode="normal" in2="BackgroundImageFix" result="effect1_dropShadow"/>
<feBlend mode="normal" in="SourceGraphic" in2="effect1_dropShadow" result="shape"/>
</filter>
</defs>
</svg>
