<svg width="100" height="78" viewBox="0 0 100 78" fill="none" xmlns="http://www.w3.org/2000/svg">
<rect width="100" height="75" rx="10" fill="#C5D6F1"/>
<g filter="url(#filter0_d)">
<path d="M41.0915 17.5761C40.6182 16.6448 40.3323 15.6288 40.2501 14.5864C40.1679 13.544 40.2909 12.4955 40.6122 11.5008C40.9335 10.5062 41.4467 9.58497 42.1225 8.78978C42.7983 7.99459 43.6235 7.34105 44.5508 6.86651C45.4781 6.39198 46.4894 6.10577 47.5269 6.02423C48.5644 5.94269 49.6077 6.06743 50.5971 6.39132C51.5866 6.7152 52.5028 7.23188 53.2935 7.91182C54.0841 8.59176 54.7336 9.42161 55.2049 10.354L72.8338 45.1402C73.307 46.0716 73.5929 47.0875 73.6751 48.1299C73.7574 49.1724 73.6343 50.2209 73.3131 51.2155C72.9918 52.2101 72.4786 53.1314 71.8028 53.9265C71.1269 54.7217 70.3018 55.3753 69.3745 55.8498C68.4471 56.3243 67.4358 56.6106 66.3984 56.6921C65.3609 56.7736 64.3176 56.6489 63.3281 56.325C62.3386 56.0011 61.4224 55.4844 60.6318 54.8045C59.8411 54.1246 59.1916 53.2947 58.7204 52.3624L41.0915 17.5761Z" fill="#FF6584"/>
<path opacity="0.2" d="M43.0577 21.4561L42.244 19.8506C46.3047 16.6801 51.073 14.3484 56.3574 12.6284L57.1711 14.234C51.4517 15.4308 46.5858 17.6456 43.0577 21.4561Z" fill="black"/>
<path opacity="0.2" d="M46.8548 28.9485L46.0411 27.343C50.1018 24.1725 54.8701 21.8408 60.1545 20.1209L60.9682 21.7264C55.2488 22.9232 50.3829 25.1381 46.8548 28.9485Z" fill="black"/>
<path opacity="0.2" d="M50.6518 36.441L49.8381 34.8354C53.8988 31.665 58.6671 29.3333 63.9515 27.6133L64.7652 29.2188C59.0458 30.4156 54.1799 32.6305 50.6518 36.441Z" fill="black"/>
<path opacity="0.2" d="M54.4488 43.9334L53.6351 42.3279C57.6958 39.1574 62.4641 36.8257 67.7486 35.1057L68.5622 36.7112C62.8428 37.908 57.9769 40.1229 54.4488 43.9334Z" fill="black"/>
<path opacity="0.2" d="M58.2458 51.4258L57.4321 49.8203C61.4928 46.6498 66.2611 44.3181 71.5455 42.5981L72.3592 44.2036C66.6398 45.4005 61.7739 47.6153 58.2458 51.4258Z" fill="black"/>
<path d="M27.8657 30.5988C27.3927 29.6675 27.1069 28.6516 27.0247 27.6092C26.9426 26.5669 27.0657 25.5184 27.387 24.5239C27.7083 23.5293 28.2215 22.6082 28.8973 21.8131C29.5731 21.018 30.3982 20.3645 31.3254 19.89C32.2527 19.4155 33.2639 19.1293 34.3013 19.0477C35.3387 18.9661 36.382 19.0908 37.3714 19.4146C38.3608 19.7384 39.277 20.255 40.0676 20.9349C40.8583 21.6147 41.5078 22.4444 41.9791 23.3767L59.608 58.1629C60.5585 60.0433 60.7272 62.2259 60.0772 64.2312C59.4271 66.2365 58.0114 67.9005 56.1412 68.8576C54.2709 69.8146 52.099 69.9865 50.1027 69.3354C48.1065 68.6842 46.449 67.2634 45.4947 65.3851L27.8657 30.5988Z" fill="#FF6584"/>
<path opacity="0.2" d="M29.832 34.4788L29.0183 32.8733C33.0789 29.7028 37.8473 27.3711 43.1317 25.6512L43.9454 27.2567C38.226 28.4535 33.3601 30.6683 29.832 34.4788Z" fill="black"/>
<path opacity="0.2" d="M33.629 41.9712L32.8153 40.3657C36.8759 37.1953 41.6443 34.8636 46.9287 33.1436L47.7424 34.7491C42.023 35.9459 37.1571 38.1608 33.629 41.9712Z" fill="black"/>
<path opacity="0.2" d="M37.426 49.4637L36.6123 47.8582C40.6729 44.6877 45.4413 42.356 50.7257 40.636L51.5394 42.2415C45.82 43.4383 40.9541 45.6532 37.426 49.4637Z" fill="black"/>
<path opacity="0.2" d="M41.2229 56.9561L40.4093 55.3506C44.4699 52.1801 49.2383 49.8484 54.5227 48.1284L55.3364 49.7339C49.6169 50.9308 44.751 53.1456 41.2229 56.9561Z" fill="black"/>
<path opacity="0.2" d="M45.02 64.4485L44.2063 62.843C48.2669 59.6725 53.0352 57.3408 58.3197 55.6209L59.1334 57.2264C53.4139 58.4232 48.5481 60.638 45.02 64.4485Z" fill="black"/>
<path d="M51.4063 24.9637C52.0707 24.9637 52.6092 24.4225 52.6092 23.755C52.6092 23.0874 52.0707 22.5462 51.4063 22.5462C50.742 22.5462 50.2035 23.0874 50.2035 23.755C50.2035 24.4225 50.742 24.9637 51.4063 24.9637Z" fill="#3F3D56"/>
<path d="M43.6015 41.8614C44.2658 41.8614 44.8044 41.3203 44.8044 40.6527C44.8044 39.9852 44.2658 39.444 43.6015 39.444C42.9372 39.444 42.3987 39.9852 42.3987 40.6527C42.3987 41.3203 42.9372 41.8614 43.6015 41.8614Z" fill="#3F3D56"/>
<path d="M52.394 59.2468C53.0583 59.2468 53.5968 58.7056 53.5968 58.0381C53.5968 57.3705 53.0583 56.8294 52.394 56.8294C51.7297 56.8294 51.1912 57.3705 51.1912 58.0381C51.1912 58.7056 51.7297 59.2468 52.394 59.2468Z" fill="#3F3D56"/>
<path d="M62.0373 45.5665C62.7016 45.5665 63.2402 45.0253 63.2402 44.3578C63.2402 43.6902 62.7016 43.1491 62.0373 43.1491C61.373 43.1491 60.8345 43.6902 60.8345 44.3578C60.8345 45.0253 61.373 45.5665 62.0373 45.5665Z" fill="#3F3D56"/>
</g>
<defs>
<filter id="filter0_d" x="23" y="6" width="54.6999" height="71.7241" filterUnits="userSpaceOnUse" color-interpolation-filters="sRGB">
<feFlood flood-opacity="0" result="BackgroundImageFix"/>
<feColorMatrix in="SourceAlpha" type="matrix" values="0 0 0 0 0 0 0 0 0 0 0 0 0 0 0 0 0 0 127 0"/>
<feOffset dy="4"/>
<feGaussianBlur stdDeviation="2"/>
<feColorMatrix type="matrix" values="0 0 0 0 0 0 0 0 0 0 0 0 0 0 0 0 0 0 0.25 0"/>
<feBlend mode="normal" in2="BackgroundImageFix" result="effect1_dropShadow"/>
<feBlend mode="normal" in="SourceGraphic" in2="effect1_dropShadow" result="shape"/>
</filter>
</defs>
</svg>
