<svg width="100" height="75" viewBox="0 0 100 75" fill="none" xmlns="http://www.w3.org/2000/svg">
<rect width="100" height="75" rx="10" fill="#C5D6F1"/>
<g filter="url(#filter0_d)">
<path d="M53.1822 39.5074L24.2941 31.457L25.4007 27.3265L54.2888 35.3772L53.1822 39.5074Z" fill="#F9A825"/>
<path d="M48.9472 38.1269C39.0546 40.0299 28.8926 40.0299 19 38.1269V33.8452C28.9148 35.4964 39.0324 35.4964 48.9472 33.8452V38.1269Z" fill="#F9A825"/>
<path d="M52.026 25.2817C42.1334 27.1847 31.9713 27.1847 22.0787 25.2817V21C31.9935 22.6512 42.1112 22.6512 52.026 21V25.2817Z" fill="#F9A825"/>
<path d="M62.3816 30.4198C52.489 32.3228 42.3269 32.3228 32.4343 30.4198V26.1381C42.3491 27.7893 52.4668 27.7893 62.3816 26.1381V30.4198Z" fill="#F9A825"/>
<path d="M64.9005 35.2725C55.0079 37.1755 44.8458 37.1755 34.9532 35.2725V30.9907C44.868 32.642 54.9857 32.642 64.9005 30.9907V35.2725Z" fill="#F9A825"/>
<path d="M73.6825 41.6133L44.1369 46.6004L43.4517 42.376L72.9969 37.3889L73.6825 41.6133Z" fill="#F9A825"/>
<path d="M69.269 42.1623C61.0776 48.0957 51.8456 52.4225 42.0574 54.9157L40.3044 51.0251C50.0069 48.295 59.1991 43.9869 67.5161 38.2717L69.269 42.1623Z" fill="#F9A825"/>
<path d="M66.8076 29.1794C58.6162 35.1128 49.3842 39.4396 39.596 41.9327L37.843 38.0421C47.5455 35.3121 56.7377 31.004 65.0547 25.2888L66.8076 29.1794Z" fill="#F9A825"/>
<path d="M78.3209 29.4381C70.1295 35.3715 60.8974 39.6983 51.1092 42.1914L49.3562 38.3008C59.0587 35.5708 68.2509 31.2627 76.5679 25.5475L78.3209 29.4381Z" fill="#F9A825"/>
<path d="M82.5963 32.7747C74.4049 38.7081 65.1729 43.035 55.3847 45.5281L53.6317 41.6375C63.3342 38.9074 72.5264 34.5993 80.8433 28.8841L82.5963 32.7747Z" fill="#F9A825"/>
<path d="M46.7953 24.4201H45.3772V25.8451H46.7953V24.4201Z" fill="#00BF71"/>
<path d="M51.0497 49.2156H49.6316V50.6406H51.0497V49.2156Z" fill="#00BF71"/>
<path d="M28.3596 24.4201H26.9415V25.8451H28.3596V24.4201Z" fill="#00BF71"/>
<path d="M61.2602 42.0904H59.842V43.5155H61.2602V42.0904Z" fill="#00BF71"/>
<path d="M62.1111 33.8253H60.693V35.2503H62.1111V33.8253Z" fill="#00BF71"/>
<path d="M38.7174 29.9235L37.0745 28.8034L36.4375 29.7468L38.0805 30.8669L38.7174 29.9235Z" fill="#00BF71"/>
<path d="M55.4513 33.0586L53.8083 31.9385L53.1714 32.8819L54.8143 34.002L55.4513 33.0586Z" fill="#00BF71"/>
<path d="M35.0303 38.4737L33.3873 37.3536L32.7504 38.297L34.3933 39.4171L35.0303 38.4737Z" fill="#00BF71"/>
<path d="M45.431 38.3908L46.5457 36.7399L45.6069 36.0998L44.4922 37.7507L45.431 38.3908Z" fill="#00BF71"/>
<path d="M53.089 40.3858L54.2036 38.7349L53.2648 38.0948L52.1501 39.7458L53.089 40.3858Z" fill="#00BF71"/>
<path d="M73.5119 33.5454L74.6266 31.8944L73.6878 31.2544L72.5731 32.9053L73.5119 33.5454Z" fill="#00BF71"/>
</g>
<defs>
<filter id="filter0_d" x="15" y="21" width="71.5963" height="41.9157" filterUnits="userSpaceOnUse" color-interpolation-filters="sRGB">
<feFlood flood-opacity="0" result="BackgroundImageFix"/>
<feColorMatrix in="SourceAlpha" type="matrix" values="0 0 0 0 0 0 0 0 0 0 0 0 0 0 0 0 0 0 127 0"/>
<feOffset dy="4"/>
<feGaussianBlur stdDeviation="2"/>
<feColorMatrix type="matrix" values="0 0 0 0 0 0 0 0 0 0 0 0 0 0 0 0 0 0 0.25 0"/>
<feBlend mode="normal" in2="BackgroundImageFix" result="effect1_dropShadow"/>
<feBlend mode="normal" in="SourceGraphic" in2="effect1_dropShadow" result="shape"/>
</filter>
</defs>
</svg>
