<svg width="100" height="75" viewBox="0 0 100 75" fill="none" xmlns="http://www.w3.org/2000/svg">
<rect width="100" height="75" rx="10" fill="#C5D6F1"/>
<g filter="url(#filter0_d)">
<path d="M53.0221 3H45.2183C44.9439 3 44.6808 3.10953 44.4867 3.30451C44.2927 3.49948 44.1837 3.76392 44.1837 4.03965V7.48161C44.1837 7.75735 44.2927 8.02179 44.4867 8.21676C44.6808 8.41173 44.9439 8.52127 45.2183 8.52127H46.5115V13.6785H51.7289V8.52127H53.0221C53.2965 8.52127 53.5596 8.41173 53.7537 8.21676C53.9477 8.02179 54.0567 7.75735 54.0567 7.48161V4.03965C54.0567 3.76392 53.9477 3.49948 53.7537 3.30451C53.5596 3.10953 53.2965 3 53.0221 3Z" fill="#E8EFF9"/>
<path d="M60.8383 34.5008C56.0591 27.4735 53.6158 19.1064 53.8586 10.5982C53.863 10.4019 53.7995 10.2101 53.6792 10.0555C53.5588 9.90081 53.3888 9.79278 53.1981 9.74973V8.26248H44.9564V9.72907H44.8428C44.7266 9.72922 44.6116 9.75345 44.5051 9.80025C44.3986 9.84705 44.3028 9.9154 44.2238 10.0011C44.1447 10.0867 44.0841 10.1878 44.0457 10.2981C44.0073 10.4083 43.9919 10.5253 44.0005 10.6418C44.6498 19.7369 42.4573 27.8933 37.423 35.1108C37.1333 35.5256 36.9853 36.0236 37.0012 36.5301L37.9024 64.5424C37.924 65.1672 38.185 65.7594 38.6308 66.1955C39.0766 66.6316 39.6728 66.8778 40.2949 66.8828H58.9366C59.5658 66.8776 60.1682 66.6258 60.6154 66.1809C61.0626 65.736 61.3192 65.1333 61.3306 64.5011L61.6779 37.3034C61.6882 36.3052 61.3953 35.3275 60.8383 34.5008Z" fill="#3F3D56"/>
<path opacity="0.2" d="M51.3953 4.12153C51.3953 4.71641 51.1602 5.28693 50.7416 5.70758C50.3229 6.12823 49.7552 6.36454 49.1632 6.36454C48.5712 6.36454 48.0034 6.12823 47.5848 5.70758C47.1662 5.28693 46.931 4.71641 46.931 4.12153" fill="black"/>
<path d="M57.8874 43.8056H55.63C55.4145 42.4004 54.7056 41.119 53.6316 40.1933C52.5576 39.2677 51.1894 38.7588 49.7744 38.7588C48.3594 38.7588 46.9912 39.2677 45.9172 40.1933C44.8432 41.119 44.1343 42.4004 43.9188 43.8056H41.6613C41.4211 43.8056 41.1837 43.8578 40.9655 43.9586C40.7473 44.0594 40.5533 44.2064 40.3969 44.3896C40.2405 44.5728 40.1254 44.7878 40.0594 45.0199C39.9935 45.2519 39.9782 45.4956 40.0147 45.7342L42.4667 61.7497H56.5465L59.5248 45.7881C59.5699 45.5463 59.5614 45.2976 59.5 45.0595C59.4385 44.8214 59.3256 44.5998 59.1693 44.4105C59.013 44.2212 58.8171 44.0689 58.5955 43.9644C58.3739 43.8598 58.1322 43.8056 57.8874 43.8056Z" fill="#E8EFF9"/>
</g>
<defs>
<filter id="filter0_d" x="33" y="3" width="32.6782" height="71.8828" filterUnits="userSpaceOnUse" color-interpolation-filters="sRGB">
<feFlood flood-opacity="0" result="BackgroundImageFix"/>
<feColorMatrix in="SourceAlpha" type="matrix" values="0 0 0 0 0 0 0 0 0 0 0 0 0 0 0 0 0 0 127 0"/>
<feOffset dy="4"/>
<feGaussianBlur stdDeviation="2"/>
<feColorMatrix type="matrix" values="0 0 0 0 0 0 0 0 0 0 0 0 0 0 0 0 0 0 0.25 0"/>
<feBlend mode="normal" in2="BackgroundImageFix" result="effect1_dropShadow"/>
<feBlend mode="normal" in="SourceGraphic" in2="effect1_dropShadow" result="shape"/>
</filter>
</defs>
</svg>
