<svg width="100" height="75" viewBox="0 0 100 75" fill="none" xmlns="http://www.w3.org/2000/svg">
<rect width="100" height="75" rx="10" fill="#C5D6F1"/>
<g filter="url(#filter0_d)">
<path d="M63.011 15.9187L62.4532 38.3217L61.7624 66.1026H38.2486L37.439 33.554L37 15.9187H63.011Z" fill="#E6E6E6"/>
<path d="M51.5662 4H48.2368V48.3291H51.5662V4Z" fill="#E8EFF9"/>
<path d="M61.3463 32.7992L60.7165 64.6412H39.284L38.5461 27.3349C40.4771 26.7899 42.499 26.6504 44.486 26.925C46.4729 27.1996 48.3823 27.8825 50.0951 28.9311C53.676 31.0593 57.6989 32.2049 61.3463 32.7992Z" fill="#3F3D56"/>
<path d="M44.5898 36.3838H41.5348V39.4537H44.5898V36.3838Z" fill="#E6E6E6"/>
<path d="M46.6705 30.1108H43.6155V33.1807H46.6705V30.1108Z" fill="#E6E6E6"/>
<path d="M53.2307 34.4535L50.7769 32.6248L48.9569 35.0905L51.4108 36.9193L53.2307 34.4535Z" fill="#E6E6E6"/>
<path d="M58.7505 39.8929L56.2966 38.0641L54.4767 40.5299L56.9306 42.3586L58.7505 39.8929Z" fill="#E6E6E6"/>
<path d="M49.3867 43.0294L46.9329 41.2006L45.113 43.6664L47.5668 45.4951L49.3867 43.0294Z" fill="#E6E6E6"/>
<path d="M56.5602 28.8829C56.905 28.8829 57.1845 28.602 57.1845 28.2556C57.1845 27.9091 56.905 27.6283 56.5602 27.6283C56.2154 27.6283 55.9359 27.9091 55.9359 28.2556C55.9359 28.602 56.2154 28.8829 56.5602 28.8829Z" fill="#3F3D56"/>
<path d="M43.8669 24.7009C44.2117 24.7009 44.4912 24.42 44.4912 24.0736C44.4912 23.7271 44.2117 23.4463 43.8669 23.4463C43.5222 23.4463 43.2427 23.7271 43.2427 24.0736C43.2427 24.42 43.5222 24.7009 43.8669 24.7009Z" fill="#3F3D56"/>
<path d="M54.4792 20.3098C54.824 20.3098 55.1035 20.0289 55.1035 19.6825C55.1035 19.336 54.824 19.0552 54.4792 19.0552C54.1345 19.0552 53.855 19.336 53.855 19.6825C53.855 20.0289 54.1345 20.3098 54.4792 20.3098Z" fill="#3F3D56"/>
</g>
<defs>
<filter id="filter0_d" x="33" y="4" width="34.011" height="70.1026" filterUnits="userSpaceOnUse" color-interpolation-filters="sRGB">
<feFlood flood-opacity="0" result="BackgroundImageFix"/>
<feColorMatrix in="SourceAlpha" type="matrix" values="0 0 0 0 0 0 0 0 0 0 0 0 0 0 0 0 0 0 127 0"/>
<feOffset dy="4"/>
<feGaussianBlur stdDeviation="2"/>
<feColorMatrix type="matrix" values="0 0 0 0 0 0 0 0 0 0 0 0 0 0 0 0 0 0 0.25 0"/>
<feBlend mode="normal" in2="BackgroundImageFix" result="effect1_dropShadow"/>
<feBlend mode="normal" in="SourceGraphic" in2="effect1_dropShadow" result="shape"/>
</filter>
</defs>
</svg>
