<svg width="225" height="239" viewBox="0 0 225 239" fill="none" xmlns="http://www.w3.org/2000/svg">
<path d="M112.5 225C174.632 225 225 174.632 225 112.5C225 50.368 174.632 0 112.5 0C50.368 0 0 50.368 0 112.5C0 174.632 50.368 225 112.5 225Z" fill="#E8EFF9"/>
<path d="M189.906 69.0074L168.686 83.1144C163.463 86.5825 156.327 85.1297 152.876 79.8805C149.425 74.6314 150.871 67.4608 156.094 63.9926L177.314 49.8856C182.537 46.4175 189.673 47.8703 193.124 53.1195C196.575 58.3686 195.129 65.5392 189.906 69.0074Z" fill="#C5D6F1"/>
<path d="M156.503 161.955C161.198 208.268 131.769 219.198 104.989 219.985C64.6333 221.189 39.8528 148.247 50.4531 137.734C52.8242 135.372 56.6831 136.391 66.586 131.759C74.2573 128.147 79.139 124.164 81.1847 122.589C89.2279 116.476 121.215 96.2838 140.044 105.268C156.968 113.327 154.55 142.874 156.503 161.955Z" fill="#C5D6F1"/>
<path d="M141.986 157.385C138.247 179.41 121.029 206.294 98.3189 206.988C64.1149 208.006 43.1125 145.632 52.0674 136.702C54.0522 134.712 57.3295 135.592 65.7305 131.566C72.239 128.466 76.3471 125.088 78.1473 123.746C84.9789 118.518 112.074 101.259 128.045 108.94C142.401 115.788 144.755 141.237 141.986 157.385Z" fill="#B7CDEF"/>
<path d="M61.25 208C53.8159 208 41 203.483 41 189.101V113.506C41 106.085 47.0659 100 54.5 100C61.9341 100 68 106.085 68 113.506V189.101C68 196.522 61.25 208 61.25 208Z" fill="#C5D6F1"/>
<path d="M68.5 217C79.2696 217 88 205.807 88 192C88 178.193 79.2696 167 68.5 167C57.7304 167 49 178.193 49 192C49 205.807 57.7304 217 68.5 217Z" fill="#C5D6F1"/>
<rect x="53" y="209" width="95" height="30" fill="#99B9EE"/>
<rect x="53" y="234" width="95" height="2" fill="#ECECEC"/>
<path d="M56.302 189.101V113.506C56.302 108.804 58.7898 104.702 62.5449 102.259C60.3388 100.83 57.7102 100 54.8939 100C47.2429 100 41 106.085 41 113.506V189.101C41 203.483 54.1898 208 61.8408 208C61.8408 208 62.7796 206.433 64 204.036C59.6816 201.132 56.302 196.384 56.302 189.101Z" fill="#B7CDEF"/>
<rect x="53" y="212" width="95" height="2" fill="#ECECEC"/>
<path opacity="0.3" d="M43.0454 128H41V127.117H43.0454C48.5907 127.117 53.1361 122.472 53.1361 116.804V109.883H41V109H53.9997V116.851C54.0451 122.983 49.0907 128 43.0454 128Z" fill="#99B9EE"/>
<path d="M162.738 202.676L71.1231 202.63C68.3538 202.63 66.0923 200.362 66.0923 197.584L66.1846 21.0453C66.1846 18.2681 68.4461 16 71.2154 16L162.831 16.0463C165.6 16.0463 167.862 18.3144 167.862 21.0916L167.769 197.631C167.769 200.408 165.508 202.676 162.738 202.676Z" fill="#99B9EE"/>
<path d="M160.246 179.255L73.6154 179.208C73.2923 179.208 73.0154 178.931 73.0154 178.607L73.1077 29.3307C73.1077 29.0067 73.3846 28.729 73.7077 28.729L160.338 28.7752C160.662 28.7752 160.938 29.053 160.938 29.377L160.846 178.653C160.892 178.977 160.615 179.255 160.246 179.255Z" fill="white"/>
<path d="M130.431 23.9614H101.077C100.154 23.9614 99.4153 23.2208 99.4153 22.2951C99.4153 21.3693 100.154 20.6287 101.077 20.6287H130.431C131.354 20.6287 132.092 21.3693 132.092 22.2951C132.138 23.2208 131.354 24.0077 130.431 23.9614Z" fill="#CDEAFB"/>
<path d="M135.277 24.0077C134.354 24.0077 133.615 23.2671 133.615 22.3413C133.615 21.4156 134.354 20.675 135.277 20.675C136.2 20.675 136.938 21.4156 136.938 22.3413C136.938 23.2208 136.2 24.0077 135.277 24.0077Z" fill="#CDEAFB"/>
<path d="M175.976 135.778L169.444 140.135C164.292 143.565 157.254 142.128 153.851 136.937C150.447 131.745 151.873 124.653 157.024 121.222L163.556 116.865C168.708 113.435 175.746 114.872 179.149 120.063C182.553 125.302 181.127 132.347 175.976 135.778Z" fill="#C5D6F1"/>
<path opacity="0.3" d="M179.109 120.024C179.015 119.886 178.72 119.475 178.626 119.338C181.209 123.544 180.146 129.737 175.919 132.48L165.962 138.881C161.736 141.624 155.923 139.185 152.918 135.253C153.011 135.39 153.667 136.731 153.761 136.822C157.236 141.943 163.896 143.544 169.156 140.161L175.825 135.863C181.132 132.48 182.584 125.189 179.109 120.024Z" fill="#99B9EE"/>
<path opacity="0.3" fill-rule="evenodd" clip-rule="evenodd" d="M164.259 136.955C164.448 137 164.59 137 164.779 137C165.581 137 166.337 136.729 166.903 136.323L170.067 133.93C173.372 131.448 173.985 126.618 171.389 123.187C170.114 121.472 168.225 120.343 166.148 120.072C164.165 119.801 162.229 120.298 160.671 121.472L157.319 123.999C155.856 125.128 155.572 127.159 156.658 128.604L161.899 135.601C162.465 136.323 163.315 136.819 164.259 136.955ZM164.401 136.142C163.693 136.007 163.079 135.646 162.654 135.104L157.461 128.107C156.658 127.024 156.894 125.489 157.98 124.677L161.332 122.149C162.654 121.156 164.401 120.704 166.101 120.93C167.942 121.156 169.595 122.149 170.728 123.683C172.994 126.753 172.475 131.041 169.547 133.253L166.384 135.646C165.818 136.052 165.109 136.233 164.401 136.142Z" fill="#99B9EE"/>
<path d="M178.142 156.662L171.781 159.8C166.793 162.246 160.707 160.169 158.281 155.138C155.856 150.108 157.915 143.969 162.903 141.523L169.264 138.385C174.253 135.938 180.339 138.015 182.764 143.046C185.236 148.077 183.176 154.215 178.142 156.662Z" fill="#C5D6F1"/>
<path opacity="0.3" d="M182.81 143.046C182.764 142.908 182.673 142.815 182.627 142.677C184.366 146.785 182.627 151.631 178.6 153.615L169.173 158.231C165.146 160.215 160.295 158.6 158.144 154.677C158.19 154.815 158.236 154.908 158.281 155.046C160.707 160.077 166.793 162.2 171.781 159.708L178.142 156.569C183.176 154.215 185.236 148.077 182.81 143.046Z" fill="#99B9EE"/>
<path opacity="0.3" fill-rule="evenodd" clip-rule="evenodd" d="M167.434 157.031C167.708 157.123 167.983 157.169 168.258 157.169C168.807 157.169 169.356 157.031 169.814 156.662L172.834 154.862C176.037 152.969 177.136 148.585 175.305 145.123C174.39 143.415 172.88 142.169 171.095 141.662C169.402 141.154 167.663 141.385 166.153 142.308L162.949 144.246C161.53 145.123 161.027 146.969 161.805 148.446L165.512 155.462C165.924 156.246 166.61 156.8 167.434 157.031ZM166.61 143.138C167.48 142.631 168.441 142.354 169.402 142.354C169.859 142.354 170.363 142.4 170.912 142.538C172.468 143 173.749 144.062 174.573 145.585C176.175 148.631 175.214 152.508 172.422 154.169L169.402 155.969C168.898 156.292 168.258 156.385 167.663 156.2C167.068 156.062 166.564 155.646 166.29 155.092L162.583 148.077C161.988 147.015 162.354 145.677 163.407 145.077L166.61 143.138Z" fill="#99B9EE"/>
<path d="M173.29 111.758L165.849 116.114C159.989 119.579 151.989 118.127 148.129 112.929C144.223 107.731 145.85 100.66 151.71 97.2415L159.151 92.8864C165.011 89.4211 173.011 90.8728 176.871 96.0708C180.777 101.269 179.15 108.34 173.29 111.758Z" fill="#C5D6F1"/>
<path opacity="0.3" d="M176.886 96.3695C176.794 96.231 176.701 96.1386 176.563 96C179.428 100.203 178.042 105.746 173.327 108.472L162.328 114.892C157.613 117.617 151.281 116.601 148 112.629C148.092 112.767 148.185 112.906 148.277 112.998C152.16 118.125 160.063 119.557 165.886 116.139L173.281 111.844C179.151 108.472 180.769 101.497 176.886 96.3695Z" fill="#99B9EE"/>
<path opacity="0.3" fill-rule="evenodd" clip-rule="evenodd" d="M158.269 113.955C158.458 114 158.6 114 158.789 114C159.593 114 160.349 113.774 160.916 113.323L164.083 110.93C167.392 108.448 167.959 103.618 165.407 100.187C164.131 98.4716 162.24 97.343 160.16 97.0722C158.175 96.8014 156.237 97.2979 154.677 98.4716L151.321 100.999C149.855 102.128 149.572 104.159 150.659 105.604L155.906 112.601C156.473 113.323 157.324 113.819 158.269 113.955ZM158.411 113.142C157.702 113.007 157.088 112.646 156.662 112.104L151.415 105.107C150.612 104.024 150.848 102.489 151.935 101.677L155.291 99.1487C156.662 98.1556 158.364 97.7042 160.065 97.9299C161.956 98.1556 163.611 99.1487 164.745 100.683C167.014 103.753 166.494 108.041 163.563 110.253L160.396 112.646C159.829 113.052 159.12 113.233 158.411 113.142Z" fill="#99B9EE"/>
<path d="M116.5 199C121.194 199 125 195.194 125 190.5C125 185.806 121.194 182 116.5 182C111.806 182 108 185.806 108 190.5C108 195.194 111.806 199 116.5 199Z" fill="#CDEAFB"/>
<path fill-rule="evenodd" clip-rule="evenodd" d="M86 135H146V75H86V135ZM145.211 134.256H86.7895V75.7436H145.211V134.256Z" fill="#347AF0"/>
<rect x="87" y="94" width="59" height="26" fill="#347AF0"/>
<path d="M144 86H143.254V77.7461H135V77H144V86Z" fill="#347AF0"/>
<path d="M88.7887 86H88V77H97V77.7461H88.7887V86Z" fill="#347AF0"/>
<path d="M97 133H88V124H88.7887V132.211H97V133Z" fill="#347AF0"/>
<path d="M144 133H135V132.211H143.254V124H144V133Z" fill="#347AF0"/>
</svg>
