<svg width="375" height="812" viewBox="0 0 375 812" fill="none" xmlns="http://www.w3.org/2000/svg">
<rect width="375" height="812" fill="#EDF1F9"/>
<path d="M0 388C0 376.954 8.95431 368 20 368H355C366.046 368 375 376.954 375 388V812H0V388Z" fill="white"/>
<rect x="80.0796" y="666" width="216" height="46" rx="23" fill="#347AF0"/>
<path d="M174.861 696H167.565V682.985H169.674V694.119H174.861V696ZM176.849 687.526C177.508 686.703 178.597 686.291 180.117 686.291C181.637 686.291 182.72 686.703 183.366 687.526C184.025 688.349 184.354 689.584 184.354 691.231C184.354 692.878 184.037 694.119 183.404 694.955C182.771 695.791 181.675 696.209 180.117 696.209C178.559 696.209 177.463 695.791 176.83 694.955C176.197 694.119 175.88 692.878 175.88 691.231C175.88 689.584 176.203 688.349 176.849 687.526ZM178.407 693.701C178.698 694.208 179.268 694.461 180.117 694.461C180.966 694.461 181.536 694.208 181.827 693.701C182.118 693.194 182.264 692.365 182.264 691.212C182.264 690.059 182.106 689.242 181.789 688.761C181.485 688.28 180.928 688.039 180.117 688.039C179.306 688.039 178.743 688.28 178.426 688.761C178.122 689.242 177.97 690.059 177.97 691.212C177.97 692.365 178.116 693.194 178.407 693.701ZM194.714 697.292C194.714 699.369 193.213 700.408 190.211 700.408C188.767 700.408 187.697 700.212 187 699.819C186.304 699.426 185.955 698.711 185.955 697.672C185.955 697.203 186.069 696.798 186.297 696.456C186.525 696.127 186.893 695.766 187.399 695.373C186.981 695.094 186.772 694.632 186.772 693.986C186.772 693.733 186.943 693.321 187.285 692.751L187.456 692.466C186.544 691.921 186.088 690.971 186.088 689.616C186.088 688.476 186.43 687.64 187.114 687.108C187.798 686.576 188.723 686.31 189.888 686.31C190.446 686.31 190.997 686.373 191.541 686.5L191.826 686.557L194.771 686.481V688.153L193.194 688.058C193.536 688.501 193.707 689.021 193.707 689.616C193.707 690.857 193.391 691.719 192.757 692.2C192.137 692.669 191.161 692.903 189.831 692.903C189.502 692.903 189.223 692.878 188.995 692.827C188.818 693.258 188.729 693.593 188.729 693.834C188.729 694.062 188.843 694.22 189.071 694.309C189.312 694.398 189.882 694.448 190.781 694.461C192.289 694.474 193.321 694.676 193.878 695.069C194.436 695.462 194.714 696.203 194.714 697.292ZM187.988 697.482C187.988 697.925 188.166 698.242 188.52 698.432C188.875 698.622 189.483 698.717 190.344 698.717C191.877 698.717 192.643 698.28 192.643 697.406C192.643 696.912 192.504 696.595 192.225 696.456C191.959 696.329 191.421 696.26 190.61 696.247L188.748 696.133C188.47 696.361 188.273 696.57 188.159 696.76C188.045 696.963 187.988 697.203 187.988 697.482ZM188.14 689.616C188.14 690.199 188.28 690.629 188.558 690.908C188.837 691.174 189.287 691.307 189.907 691.307C190.528 691.307 190.971 691.174 191.237 690.908C191.516 690.629 191.655 690.199 191.655 689.616C191.655 689.033 191.516 688.609 191.237 688.343C190.959 688.064 190.509 687.925 189.888 687.925C188.723 687.925 188.14 688.489 188.14 689.616ZM196.394 696V686.5H198.465V696H196.394ZM196.394 684.885V682.7H198.465V684.885H196.394ZM203.048 696H200.977V686.5H203.029V687.089C203.953 686.557 204.827 686.291 205.651 686.291C206.917 686.291 207.779 686.652 208.235 687.374C208.703 688.083 208.938 689.261 208.938 690.908V696H206.886V690.965C206.886 689.939 206.772 689.211 206.544 688.78C206.328 688.349 205.879 688.134 205.195 688.134C204.549 688.134 203.928 688.261 203.333 688.514L203.048 688.628V696Z" fill="white"/>
<path d="M80.6939 746V735.62H82.8539L86.8289 744.98H87.1439V735.62H88.2839V746H86.1689L82.1339 736.64H81.8489V746H80.6939ZM95.9307 740.765V744.605C95.9607 744.975 96.2507 745.195 96.8007 745.265L96.7557 746.15C95.9657 746.15 95.3707 745.95 94.9707 745.55C94.0707 745.95 93.1707 746.15 92.2707 746.15C91.5807 746.15 91.0557 745.955 90.6957 745.565C90.3357 745.175 90.1557 744.615 90.1557 743.885C90.1557 743.155 90.3407 742.62 90.7107 742.28C91.0807 741.93 91.6607 741.715 92.4507 741.635L94.8057 741.41V740.765C94.8057 740.255 94.6957 739.89 94.4757 739.67C94.2557 739.45 93.9557 739.34 93.5757 739.34C92.7757 739.34 91.9457 739.39 91.0857 739.49L90.6207 739.535L90.5757 738.68C91.6757 738.46 92.6507 738.35 93.5007 738.35C94.3507 738.35 94.9657 738.545 95.3457 738.935C95.7357 739.325 95.9307 739.935 95.9307 740.765ZM91.3107 743.825C91.3107 744.745 91.6907 745.205 92.4507 745.205C93.1307 745.205 93.8007 745.09 94.4607 744.86L94.8057 744.74V742.265L92.5857 742.475C92.1357 742.515 91.8107 742.645 91.6107 742.865C91.4107 743.085 91.3107 743.405 91.3107 743.825ZM94.1607 736.82C93.9507 736.82 93.5857 736.705 93.0657 736.475C92.5557 736.235 92.2357 736.115 92.1057 736.115C91.8757 736.115 91.5657 736.265 91.1757 736.565L90.9807 736.715L90.7107 735.995C91.2107 735.475 91.6657 735.215 92.0757 735.215C92.2857 735.215 92.6507 735.33 93.1707 735.56C93.6907 735.79 94.0057 735.905 94.1157 735.905C94.3357 735.905 94.6357 735.76 95.0157 735.47L95.1957 735.335L95.4507 736.055C94.9907 736.565 94.5607 736.82 94.1607 736.82ZM97.8203 742.235C97.8203 740.865 98.0653 739.875 98.5553 739.265C99.0453 738.655 99.8703 738.35 101.03 738.35C102.2 738.35 103.025 738.655 103.505 739.265C103.995 739.875 104.24 740.865 104.24 742.235C104.24 743.605 104.01 744.6 103.55 745.22C103.09 745.84 102.25 746.15 101.03 746.15C99.8103 746.15 98.9703 745.84 98.5103 745.22C98.0503 744.6 97.8203 743.605 97.8203 742.235ZM98.9753 742.22C98.9753 743.31 99.1053 744.075 99.3653 744.515C99.6353 744.955 100.19 745.175 101.03 745.175C101.88 745.175 102.435 744.96 102.695 744.53C102.955 744.09 103.085 743.32 103.085 742.22C103.085 741.12 102.94 740.365 102.65 739.955C102.36 739.535 101.82 739.325 101.03 739.325C100.25 739.325 99.7103 739.535 99.4103 739.955C99.1203 740.365 98.9753 741.12 98.9753 742.22ZM109.371 749.33V738.5H110.481V739.04C111.241 738.58 111.991 738.35 112.731 738.35C113.681 738.35 114.371 738.655 114.801 739.265C115.231 739.865 115.446 740.86 115.446 742.25C115.446 743.64 115.191 744.64 114.681 745.25C114.181 745.85 113.346 746.15 112.176 746.15C111.566 746.15 111.006 746.095 110.496 745.985V749.33H109.371ZM112.566 739.355C112.266 739.355 111.941 739.405 111.591 739.505C111.251 739.605 110.981 739.705 110.781 739.805L110.496 739.955V745.01C111.206 745.12 111.746 745.175 112.116 745.175C112.926 745.175 113.491 744.945 113.811 744.485C114.141 744.025 114.306 743.275 114.306 742.235C114.306 741.195 114.156 740.455 113.856 740.015C113.566 739.575 113.136 739.355 112.566 739.355ZM116.951 742.235C116.951 740.865 117.196 739.875 117.686 739.265C118.176 738.655 119.001 738.35 120.161 738.35C121.331 738.35 122.156 738.655 122.636 739.265C123.126 739.875 123.371 740.865 123.371 742.235C123.371 743.605 123.141 744.6 122.681 745.22C122.221 745.84 121.381 746.15 120.161 746.15C118.941 746.15 118.101 745.84 117.641 745.22C117.181 744.6 116.951 743.605 116.951 742.235ZM118.106 742.22C118.106 743.31 118.236 744.075 118.496 744.515C118.766 744.955 119.321 745.175 120.161 745.175C121.011 745.175 121.566 744.96 121.826 744.53C122.086 744.09 122.216 743.32 122.216 742.22C122.216 741.12 122.071 740.365 121.781 739.955C121.491 739.535 120.951 739.325 120.161 739.325C119.381 739.325 118.841 739.535 118.541 739.955C118.251 740.365 118.106 741.12 118.106 742.22ZM127.561 739.355C126.471 739.355 125.926 739.735 125.926 740.495C125.926 740.845 126.051 741.095 126.301 741.245C126.551 741.385 127.121 741.535 128.011 741.695C128.901 741.845 129.531 742.06 129.901 742.34C130.271 742.62 130.456 743.145 130.456 743.915C130.456 744.685 130.206 745.25 129.706 745.61C129.216 745.97 128.496 746.15 127.546 746.15C126.926 746.15 126.196 746.08 125.356 745.94L124.906 745.865L124.966 744.89C126.106 745.06 126.966 745.145 127.546 745.145C128.126 745.145 128.566 745.055 128.866 744.875C129.176 744.685 129.331 744.375 129.331 743.945C129.331 743.505 129.201 743.21 128.941 743.06C128.681 742.9 128.111 742.75 127.231 742.61C126.351 742.47 125.726 742.265 125.356 741.995C124.986 741.725 124.801 741.225 124.801 740.495C124.801 739.765 125.056 739.225 125.566 738.875C126.086 738.525 126.731 738.35 127.501 738.35C128.111 738.35 128.876 738.42 129.796 738.56L130.216 738.635L130.186 739.595C129.076 739.435 128.201 739.355 127.561 739.355ZM134.534 739.355C133.444 739.355 132.899 739.735 132.899 740.495C132.899 740.845 133.024 741.095 133.274 741.245C133.524 741.385 134.094 741.535 134.984 741.695C135.874 741.845 136.504 742.06 136.874 742.34C137.244 742.62 137.429 743.145 137.429 743.915C137.429 744.685 137.179 745.25 136.679 745.61C136.189 745.97 135.469 746.15 134.519 746.15C133.899 746.15 133.169 746.08 132.329 745.94L131.879 745.865L131.939 744.89C133.079 745.06 133.939 745.145 134.519 745.145C135.099 745.145 135.539 745.055 135.839 744.875C136.149 744.685 136.304 744.375 136.304 743.945C136.304 743.505 136.174 743.21 135.914 743.06C135.654 742.9 135.084 742.75 134.204 742.61C133.324 742.47 132.699 742.265 132.329 741.995C131.959 741.725 131.774 741.225 131.774 740.495C131.774 739.765 132.029 739.225 132.539 738.875C133.059 738.525 133.704 738.35 134.474 738.35C135.084 738.35 135.849 738.42 136.769 738.56L137.189 738.635L137.159 739.595C136.049 739.435 135.174 739.355 134.534 739.355ZM143.831 738.5H144.956V746H143.831V745.475C143.081 745.925 142.341 746.15 141.611 746.15C140.591 746.15 139.911 745.885 139.571 745.355C139.241 744.825 139.076 743.845 139.076 742.415V738.5H140.201V742.4C140.201 743.49 140.296 744.22 140.486 744.59C140.676 744.96 141.106 745.145 141.776 745.145C142.106 745.145 142.441 745.1 142.781 745.01C143.121 744.91 143.381 744.815 143.561 744.725L143.831 744.59V738.5ZM147.12 746V738.5H148.245V746H147.12ZM147.12 736.805V735.5H148.245V736.805H147.12ZM158.377 738.5H159.502V746H158.377V745.475C157.627 745.925 156.887 746.15 156.157 746.15C155.137 746.15 154.457 745.885 154.117 745.355C153.787 744.825 153.622 743.845 153.622 742.415V738.5H154.747V742.4C154.747 743.49 154.842 744.22 155.032 744.59C155.222 744.96 155.652 745.145 156.322 745.145C156.652 745.145 156.987 745.1 157.327 745.01C157.667 744.91 157.927 744.815 158.107 744.725L158.377 744.59V738.5ZM162.791 746H161.666V738.5H162.776V739.025C163.526 738.575 164.256 738.35 164.966 738.35C165.896 738.35 166.546 738.605 166.916 739.115C167.246 738.915 167.671 738.74 168.191 738.59C168.721 738.43 169.186 738.35 169.586 738.35C170.586 738.35 171.256 738.62 171.596 739.16C171.946 739.69 172.121 740.65 172.121 742.04V746H170.996V742.07C170.996 741.03 170.896 740.32 170.696 739.94C170.496 739.55 170.071 739.355 169.421 739.355C169.091 739.355 168.751 739.405 168.401 739.505C168.051 739.595 167.781 739.685 167.591 739.775L167.306 739.91C167.436 740.24 167.501 740.97 167.501 742.1V746H166.376V742.13C166.376 741.05 166.276 740.32 166.076 739.94C165.886 739.55 165.461 739.355 164.801 739.355C164.481 739.355 164.151 739.405 163.811 739.505C163.481 739.595 163.226 739.685 163.046 739.775L162.791 739.91V746ZM179.5 740.765V744.605C179.53 744.975 179.82 745.195 180.37 745.265L180.325 746.15C179.535 746.15 178.94 745.95 178.54 745.55C177.64 745.95 176.74 746.15 175.84 746.15C175.15 746.15 174.625 745.955 174.265 745.565C173.905 745.175 173.725 744.615 173.725 743.885C173.725 743.155 173.91 742.62 174.28 742.28C174.65 741.93 175.23 741.715 176.02 741.635L178.375 741.41V740.765C178.375 740.255 178.265 739.89 178.045 739.67C177.825 739.45 177.525 739.34 177.145 739.34C176.345 739.34 175.515 739.39 174.655 739.49L174.19 739.535L174.145 738.68C175.245 738.46 176.22 738.35 177.07 738.35C177.92 738.35 178.535 738.545 178.915 738.935C179.305 739.325 179.5 739.935 179.5 740.765ZM174.88 743.825C174.88 744.745 175.26 745.205 176.02 745.205C176.7 745.205 177.37 745.09 178.03 744.86L178.375 744.74V742.265L176.155 742.475C175.705 742.515 175.38 742.645 175.18 742.865C174.98 743.085 174.88 743.405 174.88 743.825ZM187.821 738.35C188.151 738.35 188.711 738.41 189.501 738.53L189.861 738.575L189.816 739.49C189.016 739.4 188.426 739.355 188.046 739.355C187.196 739.355 186.616 739.56 186.306 739.97C186.006 740.37 185.856 741.12 185.856 742.22C185.856 743.31 185.996 744.07 186.276 744.5C186.566 744.93 187.161 745.145 188.061 745.145L189.831 745.01L189.876 745.94C188.946 746.08 188.251 746.15 187.791 746.15C186.621 746.15 185.811 745.85 185.361 745.25C184.921 744.65 184.701 743.64 184.701 742.22C184.701 740.79 184.941 739.79 185.421 739.22C185.901 738.64 186.701 738.35 187.821 738.35ZM191.131 742.235C191.131 740.865 191.376 739.875 191.866 739.265C192.356 738.655 193.181 738.35 194.341 738.35C195.511 738.35 196.336 738.655 196.816 739.265C197.306 739.875 197.551 740.865 197.551 742.235C197.551 743.605 197.321 744.6 196.861 745.22C196.401 745.84 195.561 746.15 194.341 746.15C193.121 746.15 192.281 745.84 191.821 745.22C191.361 744.6 191.131 743.605 191.131 742.235ZM192.286 742.22C192.286 743.31 192.416 744.075 192.676 744.515C192.946 744.955 193.501 745.175 194.341 745.175C195.191 745.175 195.746 744.96 196.006 744.53C196.266 744.09 196.396 743.32 196.396 742.22C196.396 741.12 196.251 740.365 195.961 739.955C195.671 739.535 195.131 739.325 194.341 739.325C193.561 739.325 193.021 739.535 192.721 739.955C192.431 740.365 192.286 741.12 192.286 742.22ZM200.511 746H199.386V738.5H200.496V739.025C201.306 738.575 202.081 738.35 202.821 738.35C203.821 738.35 204.491 738.62 204.831 739.16C205.181 739.7 205.356 740.66 205.356 742.04V746H204.246V742.07C204.246 741.03 204.141 740.32 203.931 739.94C203.731 739.55 203.296 739.355 202.626 739.355C202.306 739.355 201.966 739.405 201.606 739.505C201.256 739.595 200.986 739.685 200.796 739.775L200.511 739.91V746ZM211.283 739.475H208.898V743.06C208.898 743.92 208.958 744.485 209.078 744.755C209.208 745.025 209.508 745.16 209.978 745.16L211.313 745.07L211.388 746C210.718 746.11 210.208 746.165 209.858 746.165C209.078 746.165 208.538 745.975 208.238 745.595C207.938 745.215 207.788 744.49 207.788 743.42V739.475H206.723V738.5H207.788V736.205H208.898V738.5H211.283V739.475ZM217.952 740.765V744.605C217.982 744.975 218.272 745.195 218.822 745.265L218.777 746.15C217.987 746.15 217.392 745.95 216.992 745.55C216.092 745.95 215.192 746.15 214.292 746.15C213.602 746.15 213.077 745.955 212.717 745.565C212.357 745.175 212.177 744.615 212.177 743.885C212.177 743.155 212.362 742.62 212.732 742.28C213.102 741.93 213.682 741.715 214.472 741.635L216.827 741.41V740.765C216.827 740.255 216.717 739.89 216.497 739.67C216.277 739.45 215.977 739.34 215.597 739.34C214.797 739.34 213.967 739.39 213.107 739.49L212.642 739.535L212.597 738.68C213.697 738.46 214.672 738.35 215.522 738.35C216.372 738.35 216.987 738.545 217.367 738.935C217.757 739.325 217.952 739.935 217.952 740.765ZM213.332 743.825C213.332 744.745 213.712 745.205 214.472 745.205C215.152 745.205 215.822 745.09 216.482 744.86L216.827 744.74V742.265L214.607 742.475C214.157 742.515 213.832 742.645 213.632 742.865C213.432 743.085 213.332 743.405 213.332 743.825ZM224.962 737.87C224.962 738.52 224.872 739.015 224.692 739.355C224.522 739.685 224.167 740.075 223.627 740.525C223.097 740.965 222.732 741.32 222.532 741.59C222.332 741.85 222.232 742.14 222.232 742.46V742.985H221.287C221.157 742.715 221.092 742.41 221.092 742.07C221.092 741.73 221.207 741.415 221.437 741.125C221.667 740.825 222.037 740.455 222.547 740.015C223.057 739.575 223.397 739.225 223.567 738.965C223.737 738.705 223.822 738.345 223.822 737.885C223.822 737.415 223.662 737.065 223.342 736.835C223.022 736.605 222.517 736.49 221.827 736.49C221.387 736.49 220.742 736.58 219.892 736.76L219.502 736.835L219.427 735.92C220.437 735.62 221.272 735.47 221.932 735.47C222.962 735.47 223.722 735.66 224.212 736.04C224.712 736.41 224.962 737.02 224.962 737.87ZM221.122 745.985V744.305H222.352V745.985H221.122Z" fill="#485068"/>
<path d="M236.321 746.165C234.821 746.165 233.801 745.75 233.261 744.92C232.731 744.09 232.466 742.725 232.466 740.825C232.466 738.925 232.736 737.575 233.276 736.775C233.816 735.965 234.831 735.56 236.321 735.56C237.211 735.56 238.191 735.685 239.261 735.935L239.201 737.285C238.301 737.125 237.401 737.045 236.501 737.045C235.601 737.045 234.991 737.315 234.671 737.855C234.351 738.385 234.191 739.39 234.191 740.87C234.191 742.34 234.346 743.345 234.656 743.885C234.966 744.415 235.571 744.68 236.471 744.68C237.371 744.68 238.281 744.605 239.201 744.455L239.246 745.835C238.216 746.055 237.241 746.165 236.321 746.165ZM246.385 740.81V744.23C246.395 744.45 246.45 744.615 246.55 744.725C246.66 744.825 246.825 744.89 247.045 744.92L247 746.165C246.14 746.165 245.475 745.98 245.005 745.61C244.205 745.98 243.4 746.165 242.59 746.165C241.1 746.165 240.355 745.37 240.355 743.78C240.355 743.02 240.555 742.47 240.955 742.13C241.365 741.79 241.99 741.585 242.83 741.515L244.765 741.35V740.81C244.765 740.41 244.675 740.13 244.495 739.97C244.325 739.81 244.07 739.73 243.73 739.73C243.09 739.73 242.29 739.77 241.33 739.85L240.85 739.88L240.79 738.725C241.88 738.465 242.88 738.335 243.79 738.335C244.71 738.335 245.37 738.535 245.77 738.935C246.18 739.325 246.385 739.95 246.385 740.81ZM243.025 742.67C242.335 742.73 241.99 743.105 241.99 743.795C241.99 744.485 242.295 744.83 242.905 744.83C243.405 744.83 243.935 744.75 244.495 744.59L244.765 744.5V742.505L243.025 742.67ZM254.557 735.38V746H252.937V745.61C252.207 745.98 251.537 746.165 250.927 746.165C249.947 746.165 249.227 745.87 248.767 745.28C248.317 744.69 248.092 743.7 248.092 742.31C248.092 740.92 248.342 739.91 248.842 739.28C249.352 738.65 250.142 738.335 251.212 738.335C251.572 738.335 252.142 738.4 252.922 738.53V735.38H254.557ZM252.667 744.44L252.922 744.335V739.895C252.322 739.795 251.767 739.745 251.257 739.745C250.247 739.745 249.742 740.585 249.742 742.265C249.742 743.185 249.857 743.825 250.087 744.185C250.327 744.535 250.702 744.71 251.212 744.71C251.722 744.71 252.207 744.62 252.667 744.44ZM262.088 740.81V744.23C262.098 744.45 262.153 744.615 262.253 744.725C262.363 744.825 262.528 744.89 262.748 744.92L262.703 746.165C261.843 746.165 261.178 745.98 260.708 745.61C259.908 745.98 259.103 746.165 258.293 746.165C256.803 746.165 256.058 745.37 256.058 743.78C256.058 743.02 256.258 742.47 256.658 742.13C257.068 741.79 257.693 741.585 258.533 741.515L260.468 741.35V740.81C260.468 740.41 260.378 740.13 260.198 739.97C260.028 739.81 259.773 739.73 259.433 739.73C258.793 739.73 257.993 739.77 257.033 739.85L256.553 739.88L256.493 738.725C257.583 738.465 258.583 738.335 259.493 738.335C260.413 738.335 261.073 738.535 261.473 738.935C261.883 739.325 262.088 739.95 262.088 740.81ZM258.728 742.67C258.038 742.73 257.693 743.105 257.693 743.795C257.693 744.485 257.998 744.83 258.608 744.83C259.108 744.83 259.638 744.75 260.198 744.59L260.468 744.5V742.505L258.728 742.67ZM269.345 740.045C268.165 739.885 267.31 739.805 266.78 739.805C266.25 739.805 265.88 739.87 265.67 740C265.47 740.12 265.37 740.315 265.37 740.585C265.37 740.855 265.48 741.045 265.7 741.155C265.93 741.265 266.46 741.395 267.29 741.545C268.13 741.685 268.725 741.91 269.075 742.22C269.425 742.53 269.6 743.08 269.6 743.87C269.6 744.66 269.345 745.24 268.835 745.61C268.335 745.98 267.6 746.165 266.63 746.165C266.02 746.165 265.25 746.08 264.32 745.91L263.855 745.835L263.915 744.47C265.115 744.63 265.98 744.71 266.51 744.71C267.04 744.71 267.415 744.645 267.635 744.515C267.865 744.385 267.98 744.17 267.98 743.87C267.98 743.57 267.87 743.365 267.65 743.255C267.44 743.135 266.925 743.01 266.105 742.88C265.295 742.74 264.7 742.525 264.32 742.235C263.94 741.945 263.75 741.415 263.75 740.645C263.75 739.875 264.01 739.3 264.53 738.92C265.06 738.54 265.735 738.35 266.555 738.35C267.195 738.35 267.98 738.43 268.91 738.59L269.375 738.68L269.345 740.045ZM275.207 739.895H273.137V743.195C273.137 743.805 273.182 744.21 273.272 744.41C273.362 744.61 273.592 744.71 273.962 744.71L275.192 744.665L275.267 745.97C274.597 746.1 274.087 746.165 273.737 746.165C272.887 746.165 272.302 745.97 271.982 745.58C271.672 745.19 271.517 744.455 271.517 743.375V739.895H270.557V738.5H271.517V736.325H273.137V738.5H275.207V739.895ZM276.548 746V738.5H278.168V739.4C279.018 738.85 279.868 738.495 280.718 738.335V739.97C279.858 740.14 279.123 740.36 278.513 740.63L278.183 740.765V746H276.548ZM287.518 740.81V744.23C287.528 744.45 287.583 744.615 287.683 744.725C287.793 744.825 287.958 744.89 288.178 744.92L288.133 746.165C287.273 746.165 286.608 745.98 286.138 745.61C285.338 745.98 284.533 746.165 283.723 746.165C282.233 746.165 281.488 745.37 281.488 743.78C281.488 743.02 281.688 742.47 282.088 742.13C282.498 741.79 283.123 741.585 283.963 741.515L285.898 741.35V740.81C285.898 740.41 285.808 740.13 285.628 739.97C285.458 739.81 285.203 739.73 284.863 739.73C284.223 739.73 283.423 739.77 282.463 739.85L281.983 739.88L281.923 738.725C283.013 738.465 284.013 738.335 284.923 738.335C285.843 738.335 286.503 738.535 286.903 738.935C287.313 739.325 287.518 739.95 287.518 740.81ZM284.158 742.67C283.468 742.73 283.123 743.105 283.123 743.795C283.123 744.485 283.428 744.83 284.038 744.83C284.538 744.83 285.068 744.75 285.628 744.59L285.898 744.5V742.505L284.158 742.67ZM289.57 746V738.5H291.19V739.4C292.04 738.85 292.89 738.495 293.74 738.335V739.97C292.88 740.14 292.145 740.36 291.535 740.63L291.205 740.765V746H289.57Z" fill="#347AF0"/>
<path d="M231.511 553V542.725H237.991V544.18H233.176V547.09H237.091V548.53H233.176V551.53H237.991V553H231.511ZM244.812 547.045C243.632 546.885 242.777 546.805 242.247 546.805C241.717 546.805 241.347 546.87 241.137 547C240.937 547.12 240.837 547.315 240.837 547.585C240.837 547.855 240.947 548.045 241.167 548.155C241.397 548.265 241.927 548.395 242.757 548.545C243.597 548.685 244.192 548.91 244.542 549.22C244.892 549.53 245.067 550.08 245.067 550.87C245.067 551.66 244.812 552.24 244.302 552.61C243.802 552.98 243.067 553.165 242.097 553.165C241.487 553.165 240.717 553.08 239.787 552.91L239.322 552.835L239.382 551.47C240.582 551.63 241.447 551.71 241.977 551.71C242.507 551.71 242.882 551.645 243.102 551.515C243.332 551.385 243.447 551.17 243.447 550.87C243.447 550.57 243.337 550.365 243.117 550.255C242.907 550.135 242.392 550.01 241.572 549.88C240.762 549.74 240.167 549.525 239.787 549.235C239.407 548.945 239.217 548.415 239.217 547.645C239.217 546.875 239.477 546.3 239.997 545.92C240.527 545.54 241.202 545.35 242.022 545.35C242.662 545.35 243.447 545.43 244.377 545.59L244.842 545.68L244.812 547.045ZM249.233 553.165C248.203 553.165 247.453 552.875 246.983 552.295C246.523 551.715 246.293 550.7 246.293 549.25C246.293 547.79 246.563 546.775 247.103 546.205C247.653 545.625 248.598 545.335 249.938 545.335C250.428 545.335 251.178 545.38 252.188 545.47L252.683 545.515V556.225H251.063V552.715C250.393 553.015 249.783 553.165 249.233 553.165ZM249.938 546.745C249.148 546.745 248.613 546.945 248.333 547.345C248.063 547.735 247.928 548.375 247.928 549.265C247.928 550.155 248.048 550.785 248.288 551.155C248.538 551.525 248.918 551.71 249.428 551.71C249.898 551.71 250.368 551.635 250.838 551.485L251.063 551.41V546.805C250.583 546.765 250.208 546.745 249.938 546.745ZM259.211 545.5H260.831V553H259.211V552.535C258.481 552.955 257.806 553.165 257.186 553.165C256.156 553.165 255.466 552.89 255.116 552.34C254.766 551.78 254.591 550.805 254.591 549.415V545.5H256.226V549.43C256.226 550.33 256.301 550.935 256.451 551.245C256.601 551.555 256.951 551.71 257.501 551.71C258.041 551.71 258.536 551.61 258.986 551.41L259.211 551.32V545.5ZM268.15 551.65L268.57 551.605L268.6 552.82C267.46 553.05 266.45 553.165 265.57 553.165C264.46 553.165 263.66 552.86 263.17 552.25C262.69 551.64 262.45 550.665 262.45 549.325C262.45 546.665 263.535 545.335 265.705 545.335C267.805 545.335 268.855 546.48 268.855 548.77L268.75 549.94H264.1C264.11 550.56 264.245 551.015 264.505 551.305C264.765 551.595 265.25 551.74 265.96 551.74C266.67 551.74 267.4 551.71 268.15 551.65ZM267.25 548.68C267.25 547.94 267.13 547.425 266.89 547.135C266.66 546.835 266.265 546.685 265.705 546.685C265.145 546.685 264.735 546.84 264.475 547.15C264.225 547.46 264.095 547.97 264.085 548.68H267.25ZM273.233 545.335C273.763 545.335 274.388 545.405 275.108 545.545L275.483 545.62L275.423 546.91C274.633 546.83 274.048 546.79 273.668 546.79C272.908 546.79 272.398 546.96 272.138 547.3C271.878 547.64 271.748 548.28 271.748 549.22C271.748 550.16 271.873 550.81 272.123 551.17C272.373 551.53 272.893 551.71 273.683 551.71L275.438 551.59L275.483 552.895C274.473 553.075 273.713 553.165 273.203 553.165C272.063 553.165 271.258 552.86 270.788 552.25C270.328 551.63 270.098 550.62 270.098 549.22C270.098 547.82 270.343 546.825 270.833 546.235C271.323 545.635 272.123 545.335 273.233 545.335ZM282.33 551.65L282.75 551.605L282.78 552.82C281.64 553.05 280.63 553.165 279.75 553.165C278.64 553.165 277.84 552.86 277.35 552.25C276.87 551.64 276.63 550.665 276.63 549.325C276.63 546.665 277.715 545.335 279.885 545.335C281.985 545.335 283.035 546.48 283.035 548.77L282.93 549.94H278.28C278.29 550.56 278.425 551.015 278.685 551.305C278.945 551.595 279.43 551.74 280.14 551.74C280.85 551.74 281.58 551.71 282.33 551.65ZM281.43 548.68C281.43 547.94 281.31 547.425 281.07 547.135C280.84 546.835 280.445 546.685 279.885 546.685C279.325 546.685 278.915 546.84 278.655 547.15C278.405 547.46 278.275 547.97 278.265 548.68H281.43ZM289.152 545.5H290.772V553H289.152V552.535C288.422 552.955 287.747 553.165 287.127 553.165C286.097 553.165 285.407 552.89 285.057 552.34C284.707 551.78 284.532 550.805 284.532 549.415V545.5H286.167V549.43C286.167 550.33 286.242 550.935 286.392 551.245C286.542 551.555 286.892 551.71 287.442 551.71C287.982 551.71 288.477 551.61 288.927 551.41L289.152 551.32V545.5ZM301.598 547.81V551.23C301.608 551.45 301.663 551.615 301.763 551.725C301.873 551.825 302.038 551.89 302.258 551.92L302.213 553.165C301.353 553.165 300.688 552.98 300.218 552.61C299.418 552.98 298.613 553.165 297.803 553.165C296.313 553.165 295.568 552.37 295.568 550.78C295.568 550.02 295.768 549.47 296.168 549.13C296.578 548.79 297.203 548.585 298.043 548.515L299.978 548.35V547.81C299.978 547.41 299.888 547.13 299.708 546.97C299.538 546.81 299.283 546.73 298.943 546.73C298.303 546.73 297.503 546.77 296.543 546.85L296.063 546.88L296.003 545.725C297.093 545.465 298.093 545.335 299.003 545.335C299.923 545.335 300.583 545.535 300.983 545.935C301.393 546.325 301.598 546.95 301.598 547.81ZM298.238 549.67C297.548 549.73 297.203 550.105 297.203 550.795C297.203 551.485 297.508 551.83 298.118 551.83C298.618 551.83 299.148 551.75 299.708 551.59L299.978 551.5V549.505L298.238 549.67ZM312.151 547.045C310.971 546.885 310.116 546.805 309.586 546.805C309.056 546.805 308.686 546.87 308.476 547C308.276 547.12 308.176 547.315 308.176 547.585C308.176 547.855 308.286 548.045 308.506 548.155C308.736 548.265 309.266 548.395 310.096 548.545C310.936 548.685 311.531 548.91 311.881 549.22C312.231 549.53 312.406 550.08 312.406 550.87C312.406 551.66 312.151 552.24 311.641 552.61C311.141 552.98 310.406 553.165 309.436 553.165C308.826 553.165 308.056 553.08 307.126 552.91L306.661 552.835L306.721 551.47C307.921 551.63 308.786 551.71 309.316 551.71C309.846 551.71 310.221 551.645 310.441 551.515C310.671 551.385 310.786 551.17 310.786 550.87C310.786 550.57 310.676 550.365 310.456 550.255C310.246 550.135 309.731 550.01 308.911 549.88C308.101 549.74 307.506 549.525 307.126 549.235C306.746 548.945 306.556 548.415 306.556 547.645C306.556 546.875 306.816 546.3 307.336 545.92C307.866 545.54 308.541 545.35 309.361 545.35C310.001 545.35 310.786 545.43 311.716 545.59L312.181 545.68L312.151 547.045ZM319.317 551.65L319.737 551.605L319.767 552.82C318.627 553.05 317.617 553.165 316.737 553.165C315.627 553.165 314.827 552.86 314.337 552.25C313.857 551.64 313.617 550.665 313.617 549.325C313.617 546.665 314.702 545.335 316.872 545.335C318.972 545.335 320.022 546.48 320.022 548.77L319.917 549.94H315.267C315.277 550.56 315.412 551.015 315.672 551.305C315.932 551.595 316.417 551.74 317.127 551.74C317.837 551.74 318.567 551.71 319.317 551.65ZM318.417 548.68C318.417 547.94 318.297 547.425 318.057 547.135C317.827 546.835 317.432 546.685 316.872 546.685C316.312 546.685 315.902 546.84 315.642 547.15C315.392 547.46 315.262 547.97 315.252 548.68H318.417ZM323.229 553H321.594V545.5H323.214V545.965C323.944 545.545 324.634 545.335 325.284 545.335C326.284 545.335 326.964 545.62 327.324 546.19C327.694 546.75 327.879 547.68 327.879 548.98V553H326.259V549.025C326.259 548.215 326.169 547.64 325.989 547.3C325.819 546.96 325.464 546.79 324.924 546.79C324.414 546.79 323.924 546.89 323.454 547.09L323.229 547.18V553ZM331.418 553H329.783V542.38H331.418V545.89C332.158 545.52 332.843 545.335 333.473 545.335C334.473 545.335 335.153 545.62 335.513 546.19C335.883 546.75 336.068 547.68 336.068 548.98V553H334.433V549.025C334.433 548.215 334.348 547.64 334.178 547.3C334.008 546.96 333.648 546.79 333.098 546.79C332.618 546.79 332.138 546.87 331.658 547.03L331.418 547.12V553ZM343.521 547.81V551.23C343.531 551.45 343.586 551.615 343.686 551.725C343.796 551.825 343.961 551.89 344.181 551.92L344.136 553.165C343.276 553.165 342.611 552.98 342.141 552.61C341.341 552.98 340.536 553.165 339.726 553.165C338.236 553.165 337.491 552.37 337.491 550.78C337.491 550.02 337.691 549.47 338.091 549.13C338.501 548.79 339.126 548.585 339.966 548.515L341.901 548.35V547.81C341.901 547.41 341.811 547.13 341.631 546.97C341.461 546.81 341.206 546.73 340.866 546.73C340.226 546.73 339.426 546.77 338.466 546.85L337.986 546.88L337.926 545.725C339.016 545.465 340.016 545.335 340.926 545.335C341.846 545.335 342.506 545.535 342.906 545.935C343.316 546.325 343.521 546.95 343.521 547.81ZM340.161 549.67C339.471 549.73 339.126 550.105 339.126 550.795C339.126 551.485 339.431 551.83 340.041 551.83C340.541 551.83 341.071 551.75 341.631 551.59L341.901 551.5V549.505L340.161 549.67ZM350.469 544.99C350.469 545.66 350.384 546.17 350.214 546.52C350.054 546.87 349.719 547.245 349.209 547.645C348.699 548.045 348.359 548.365 348.189 548.605C348.029 548.835 347.949 549.085 347.949 549.355V549.85H346.629C346.389 549.54 346.269 549.15 346.269 548.68C346.269 548.43 346.364 548.18 346.554 547.93C346.744 547.68 347.084 547.355 347.574 546.955C348.064 546.545 348.389 546.23 348.549 546.01C348.709 545.78 348.789 545.48 348.789 545.11C348.789 544.38 348.259 544.015 347.199 544.015C346.599 544.015 345.969 544.085 345.309 544.225L344.964 544.3L344.874 543.055C345.804 542.725 346.649 542.56 347.409 542.56C348.459 542.56 349.229 542.755 349.719 543.145C350.219 543.525 350.469 544.14 350.469 544.99ZM346.374 553V550.9H348.114V553H346.374Z" fill="#347AF0"/>
<path d="M29.244 502.935C27.344 502.935 26.394 503.651 26.394 505.082C26.394 505.88 26.6093 506.431 27.04 506.735C27.4833 507.026 28.37 507.324 29.7 507.628C31.0427 507.919 31.9927 508.306 32.55 508.787C33.1073 509.256 33.386 510.035 33.386 511.124C33.386 513.822 31.9863 515.171 29.187 515.171C28.2623 515.171 27.1033 515.063 25.71 514.848L25.026 514.753L25.178 513.537C26.9007 513.765 28.2117 513.879 29.111 513.879C30.9857 513.879 31.923 512.999 31.923 511.238C31.923 510.529 31.714 510.022 31.296 509.718C30.8907 509.401 30.1243 509.135 28.997 508.92C27.515 508.603 26.4637 508.198 25.843 507.704C25.2223 507.197 24.912 506.355 24.912 505.177C24.912 502.821 26.3243 501.643 29.149 501.643C30.0737 501.643 31.182 501.738 32.474 501.928L33.12 502.023L32.987 503.258C31.2263 503.043 29.9787 502.935 29.244 502.935ZM42.1259 513.822L42.6769 513.765L42.7149 514.886C41.2709 515.089 40.0359 515.19 39.0099 515.19C37.6419 515.19 36.6729 514.797 36.1029 514.012C35.5329 513.214 35.2479 511.979 35.2479 510.307C35.2479 506.976 36.5715 505.31 39.2189 505.31C40.4982 505.31 41.4545 505.671 42.0879 506.393C42.7212 507.102 43.0379 508.223 43.0379 509.756L42.9619 510.839H36.6919C36.6919 511.89 36.8819 512.669 37.2619 513.176C37.6419 513.683 38.3005 513.936 39.2379 513.936C40.1879 513.936 41.1505 513.898 42.1259 513.822ZM41.6129 509.699C41.6129 508.534 41.4229 507.71 41.0429 507.229C40.6755 506.748 40.0675 506.507 39.2189 506.507C38.3829 506.507 37.7495 506.76 37.3189 507.267C36.9009 507.774 36.6855 508.584 36.6729 509.699H41.6129ZM46.6836 515H45.2586V505.5H46.6646V506.165C47.6906 505.595 48.6723 505.31 49.6096 505.31C50.8763 505.31 51.725 505.652 52.1556 506.336C52.599 507.02 52.8206 508.236 52.8206 509.984V515H51.4146V510.022C51.4146 508.705 51.2816 507.805 51.0156 507.324C50.7623 506.83 50.2113 506.583 49.3626 506.583C48.9573 506.583 48.5266 506.646 48.0706 506.773C47.6273 506.887 47.2853 507.001 47.0446 507.115L46.6836 507.286V515ZM56.8887 515H55.4637V501.358H56.8887V506.032C57.902 505.551 58.8774 505.31 59.8147 505.31C61.0814 505.31 61.93 505.652 62.3607 506.336C62.804 507.02 63.0257 508.236 63.0257 509.984V515H61.6007V510.022C61.6007 508.705 61.4677 507.805 61.2017 507.324C60.9484 506.83 60.4037 506.583 59.5677 506.583C58.7697 506.583 57.997 506.729 57.2497 507.02L56.8887 507.153V515ZM72.3758 508.369V513.233C72.4138 513.702 72.7811 513.98 73.4778 514.069L73.4208 515.19C72.4201 515.19 71.6664 514.937 71.1598 514.43C70.0198 514.937 68.8798 515.19 67.7398 515.19C66.8658 515.19 66.2008 514.943 65.7448 514.449C65.2888 513.955 65.0608 513.246 65.0608 512.321C65.0608 511.396 65.2951 510.719 65.7638 510.288C66.2324 509.845 66.9671 509.572 67.9678 509.471L70.9508 509.186V508.369C70.9508 507.723 70.8114 507.261 70.5328 506.982C70.2541 506.703 69.8741 506.564 69.3928 506.564C68.3794 506.564 67.3281 506.627 66.2388 506.754L65.6498 506.811L65.5928 505.728C66.9861 505.449 68.2211 505.31 69.2978 505.31C70.3744 505.31 71.1534 505.557 71.6348 506.051C72.1288 506.545 72.3758 507.318 72.3758 508.369ZM66.5238 512.245C66.5238 513.41 67.0051 513.993 67.9678 513.993C68.8291 513.993 69.6778 513.847 70.5138 513.556L70.9508 513.404V510.269L68.1388 510.535C67.5688 510.586 67.1571 510.75 66.9038 511.029C66.6504 511.308 66.5238 511.713 66.5238 512.245Z" fill="#3D4C63"/>
<path fill-rule="evenodd" clip-rule="evenodd" d="M339 499C346.516 499 350.724 507.2 350.925 507.6C351.025 507.8 351.025 508.2 350.925 508.4C350.724 508.8 346.516 517 339 517C331.926 517 327.781 509.735 327.152 508.631C327.113 508.563 327.087 508.518 327.075 508.5C326.975 508.2 326.975 507.9 327.075 507.6C327.276 507.2 331.484 499 339 499ZM329.079 508C330.081 509.6 333.589 515 339 515C344.411 515 347.919 509.6 348.921 508C347.919 506.4 344.411 501 339 501C333.589 501 329.981 506.4 329.079 508ZM339 504C336.795 504 334.992 505.8 334.992 508C334.992 510.2 336.795 512 339 512C341.205 512 343.008 510.2 343.008 508C343.008 505.8 341.205 504 339 504ZM336.996 508C336.996 509.1 337.898 510 339 510C340.102 510 341.004 509.1 341.004 508C341.004 506.9 340.102 506 339 506C337.898 506 336.996 506.9 336.996 508Z" fill="black"/>
<mask id="mask0" mask-type="alpha" maskUnits="userSpaceOnUse" x="327" y="499" width="24" height="18">
<path fill-rule="evenodd" clip-rule="evenodd" d="M339 499C346.516 499 350.724 507.2 350.925 507.6C351.025 507.8 351.025 508.2 350.925 508.4C350.724 508.8 346.516 517 339 517C331.926 517 327.781 509.735 327.152 508.631C327.113 508.563 327.087 508.518 327.075 508.5C326.975 508.2 326.975 507.9 327.075 507.6C327.276 507.2 331.484 499 339 499ZM329.079 508C330.081 509.6 333.589 515 339 515C344.411 515 347.919 509.6 348.921 508C347.919 506.4 344.411 501 339 501C333.589 501 329.981 506.4 329.079 508ZM339 504C336.795 504 334.992 505.8 334.992 508C334.992 510.2 336.795 512 339 512C341.205 512 343.008 510.2 343.008 508C343.008 505.8 341.205 504 339 504ZM336.996 508C336.996 509.1 337.898 510 339 510C340.102 510 341.004 509.1 341.004 508C341.004 506.9 340.102 506 339 506C337.898 506 336.996 506.9 336.996 508Z" fill="white"/>
</mask>
<g mask="url(#mask0)">
<rect x="327" y="496" width="24" height="24" fill="#B5BBC9"/>
</g>
<path opacity="0.5" d="M24 527.75H351" stroke="#CFD2D8"/>
<path d="M25.615 434V420.852H33.614V422.144H27.078V426.685H32.474V427.958H27.078V432.708H33.614V434H25.615ZM35.3858 429.44V428.11H41.1428V429.44H35.3858ZM45.2178 434H43.7928V424.5H45.1988V425.165C46.1488 424.595 47.0735 424.31 47.9728 424.31C49.1508 424.31 49.9741 424.633 50.4428 425.279C50.8608 425.026 51.3991 424.804 52.0578 424.614C52.7291 424.411 53.3181 424.31 53.8248 424.31C55.0915 424.31 55.9401 424.652 56.3708 425.336C56.8141 426.007 57.0358 427.223 57.0358 428.984V434H55.6108V429.022C55.6108 427.705 55.4841 426.805 55.2308 426.324C54.9775 425.83 54.4391 425.583 53.6158 425.583C53.1978 425.583 52.7671 425.646 52.3238 425.773C51.8805 425.887 51.5385 426.001 51.2978 426.115L50.9368 426.286C51.1015 426.704 51.1838 427.629 51.1838 429.06V434H49.7588V429.098C49.7588 427.73 49.6321 426.805 49.3788 426.324C49.1381 425.83 48.5998 425.583 47.7638 425.583C47.3585 425.583 46.9405 425.646 46.5098 425.773C46.0918 425.887 45.7688 426.001 45.5408 426.115L45.2178 426.286V434ZM66.3826 427.369V432.233C66.4206 432.702 66.788 432.98 67.4846 433.069L67.4276 434.19C66.427 434.19 65.6733 433.937 65.1666 433.43C64.0266 433.937 62.8866 434.19 61.7466 434.19C60.8726 434.19 60.2076 433.943 59.7516 433.449C59.2956 432.955 59.0676 432.246 59.0676 431.321C59.0676 430.396 59.302 429.719 59.7706 429.288C60.2393 428.845 60.974 428.572 61.9746 428.471L64.9576 428.186V427.369C64.9576 426.723 64.8183 426.261 64.5396 425.982C64.261 425.703 63.881 425.564 63.3996 425.564C62.3863 425.564 61.335 425.627 60.2456 425.754L59.6566 425.811L59.5996 424.728C60.993 424.449 62.228 424.31 63.3046 424.31C64.3813 424.31 65.1603 424.557 65.6416 425.051C66.1356 425.545 66.3826 426.318 66.3826 427.369ZM60.5306 431.245C60.5306 432.41 61.012 432.993 61.9746 432.993C62.836 432.993 63.6846 432.847 64.5206 432.556L64.9576 432.404V429.269L62.1456 429.535C61.5756 429.586 61.164 429.75 60.9106 430.029C60.6573 430.308 60.5306 430.713 60.5306 431.245ZM69.1942 434V424.5H70.6192V434H69.1942ZM69.1942 422.353V420.7H70.6192V422.353H69.1942ZM73.4644 434V420.358H74.8894V434H73.4644Z" fill="#3D4C63"/>
<path fill-rule="evenodd" clip-rule="evenodd" d="M339 418C346.516 418 350.724 426.2 350.925 426.6C351.025 426.8 351.025 427.2 350.925 427.4C350.724 427.8 346.516 436 339 436C331.926 436 327.781 428.735 327.152 427.631C327.113 427.563 327.087 427.518 327.075 427.5C326.975 427.2 326.975 426.9 327.075 426.6C327.276 426.2 331.484 418 339 418ZM329.079 427C330.081 428.6 333.589 434 339 434C344.411 434 347.919 428.6 348.921 427C347.919 425.4 344.411 420 339 420C333.589 420 329.981 425.4 329.079 427ZM339 423C336.795 423 334.992 424.8 334.992 427C334.992 429.2 336.795 431 339 431C341.205 431 343.008 429.2 343.008 427C343.008 424.8 341.205 423 339 423ZM336.996 427C336.996 428.1 337.898 429 339 429C340.102 429 341.004 428.1 341.004 427C341.004 425.9 340.102 425 339 425C337.898 425 336.996 425.9 336.996 427Z" fill="black"/>
<mask id="mask1" mask-type="alpha" maskUnits="userSpaceOnUse" x="327" y="418" width="24" height="18">
<path fill-rule="evenodd" clip-rule="evenodd" d="M339 418C346.516 418 350.724 426.2 350.925 426.6C351.025 426.8 351.025 427.2 350.925 427.4C350.724 427.8 346.516 436 339 436C331.926 436 327.781 428.735 327.152 427.631C327.113 427.563 327.087 427.518 327.075 427.5C326.975 427.2 326.975 426.9 327.075 426.6C327.276 426.2 331.484 418 339 418ZM329.079 427C330.081 428.6 333.589 434 339 434C344.411 434 347.919 428.6 348.921 427C347.919 425.4 344.411 420 339 420C333.589 420 329.981 425.4 329.079 427ZM339 423C336.795 423 334.992 424.8 334.992 427C334.992 429.2 336.795 431 339 431C341.205 431 343.008 429.2 343.008 427C343.008 424.8 341.205 423 339 423ZM336.996 427C336.996 428.1 337.898 429 339 429C340.102 429 341.004 428.1 341.004 427C341.004 425.9 340.102 425 339 425C337.898 425 336.996 425.9 336.996 427Z" fill="white"/>
</mask>
<g mask="url(#mask1)">
<rect x="327" y="415" width="24" height="24" fill="#B5BBC9"/>
</g>
<path opacity="0.5" d="M24 446.75H351" stroke="#CFD2D8"/>
<path fill-rule="evenodd" clip-rule="evenodd" d="M252.886 364.593C253.163 364.31 253.431 364.017 253.684 363.712C253.431 364.017 253.163 364.31 252.886 364.593Z" fill="#EDF1F9"/>
<path fill-rule="evenodd" clip-rule="evenodd" d="M252.74 364.739C252.469 365.007 252.186 365.265 251.893 365.511C251.928 365.483 251.965 365.457 251.999 365.428C252.255 365.208 252.501 364.977 252.74 364.739Z" fill="#EDF1F9"/>
<path fill-rule="evenodd" clip-rule="evenodd" d="M254.583 362.505C254.813 362.159 255.03 361.803 255.229 361.436C255.03 361.803 254.813 362.159 254.583 362.505Z" fill="#EDF1F9"/>
<path fill-rule="evenodd" clip-rule="evenodd" d="M157.168 365.413C157.205 365.445 157.245 365.472 157.282 365.503C156.993 365.259 156.711 365.004 156.442 364.736C156.677 364.97 156.917 365.197 157.168 365.413Z" fill="#EDF1F9"/>
<path fill-rule="evenodd" clip-rule="evenodd" d="M248.574 367.594C248.808 367.489 249.037 367.378 249.263 367.261C249.037 367.378 248.807 367.489 248.574 367.594Z" fill="#EDF1F9"/>
<path fill-rule="evenodd" clip-rule="evenodd" d="M249.751 366.998C249.975 366.871 250.193 366.735 250.41 366.596C250.193 366.735 249.975 366.872 249.751 366.998Z" fill="#EDF1F9"/>
<path fill-rule="evenodd" clip-rule="evenodd" d="M253.797 363.572C254.055 363.253 254.301 362.926 254.53 362.587C254.301 362.926 254.055 363.253 253.797 363.572Z" fill="#EDF1F9"/>
<path fill-rule="evenodd" clip-rule="evenodd" d="M256.683 357.371C256.761 356.962 256.824 356.547 256.865 356.127C256.824 356.547 256.761 356.962 256.683 357.371Z" fill="#EDF1F9"/>
<path fill-rule="evenodd" clip-rule="evenodd" d="M255.264 361.375C255.462 361.009 255.639 360.631 255.804 360.247C255.639 360.631 255.462 361.009 255.264 361.375Z" fill="#EDF1F9"/>
<path fill-rule="evenodd" clip-rule="evenodd" d="M256.876 355.978C256.916 355.534 256.938 355.085 256.934 354.631C256.938 355.085 256.916 355.534 256.876 355.978Z" fill="#EDF1F9"/>
<path fill-rule="evenodd" clip-rule="evenodd" d="M255.872 360.091C256.026 359.719 256.163 359.338 256.285 358.95C256.163 359.338 256.026 359.719 255.872 360.091Z" fill="#EDF1F9"/>
<path fill-rule="evenodd" clip-rule="evenodd" d="M256.347 358.751C256.462 358.364 256.562 357.971 256.644 357.572C256.562 357.971 256.462 358.364 256.347 358.751Z" fill="#EDF1F9"/>
<path fill-rule="evenodd" clip-rule="evenodd" d="M154.65 362.582C154.882 362.924 155.13 363.253 155.39 363.574C155.13 363.253 154.882 362.924 154.65 362.582Z" fill="#EDF1F9"/>
<path fill-rule="evenodd" clip-rule="evenodd" d="M152.297 356.126C152.341 356.547 152.407 356.962 152.487 357.372C152.407 356.962 152.341 356.547 152.297 356.126Z" fill="#EDF1F9"/>
<path fill-rule="evenodd" clip-rule="evenodd" d="M152.526 357.569C152.61 357.969 152.712 358.363 152.829 358.749C152.712 358.363 152.61 357.969 152.526 357.569Z" fill="#EDF1F9"/>
<path fill-rule="evenodd" clip-rule="evenodd" d="M152.891 358.948C153.015 359.336 153.153 359.716 153.308 360.088C153.153 359.716 153.015 359.336 152.891 358.948Z" fill="#EDF1F9"/>
<path fill-rule="evenodd" clip-rule="evenodd" d="M73.9821 218.209L67.8588 223.926C68.0171 224.267 68.1202 224.509 68.1202 224.509C68.1202 224.509 70.3439 227.474 69.6701 228.485C69.6384 228.532 69.6067 228.573 69.5751 228.618C71.2226 230.301 72.9342 231.864 74.757 233.283C75.9026 228.335 75.4214 223.168 73.9821 218.209Z" fill="#EDF1F9"/>
<path fill-rule="evenodd" clip-rule="evenodd" d="M152.217 354.631C152.217 355.086 152.243 355.535 152.285 355.98C152.243 355.535 152.217 355.086 152.217 354.631Z" fill="#EDF1F9"/>
<path fill-rule="evenodd" clip-rule="evenodd" d="M153.378 360.248C153.543 360.631 153.72 361.007 153.917 361.371C153.72 361.007 153.543 360.631 153.378 360.248Z" fill="#EDF1F9"/>
<path fill-rule="evenodd" clip-rule="evenodd" d="M153.959 361.444C154.159 361.811 154.376 362.167 154.606 362.514C154.376 362.167 154.159 361.811 153.959 361.444Z" fill="#EDF1F9"/>
<path fill-rule="evenodd" clip-rule="evenodd" d="M157.685 365.82C157.893 365.983 158.101 366.144 158.318 366.295C158.101 366.144 157.892 365.983 157.685 365.82Z" fill="#EDF1F9"/>
<path fill-rule="evenodd" clip-rule="evenodd" d="M158.773 366.595C158.988 366.733 159.205 366.867 159.428 366.994C159.205 366.867 158.988 366.732 158.773 366.595Z" fill="#EDF1F9"/>
<path fill-rule="evenodd" clip-rule="evenodd" d="M155.497 363.707C155.751 364.013 156.018 364.308 156.297 364.591C156.018 364.308 155.751 364.013 155.497 363.707Z" fill="#EDF1F9"/>
<path fill-rule="evenodd" clip-rule="evenodd" d="M159.92 367.258C160.145 367.375 160.374 367.486 160.608 367.591C160.374 367.486 160.145 367.375 159.92 367.258Z" fill="#EDF1F9"/>
<path fill-rule="evenodd" clip-rule="evenodd" d="M250.858 366.302C251.079 366.148 251.291 365.985 251.501 365.819C251.291 365.985 251.079 366.148 250.858 366.302Z" fill="#EDF1F9"/>
<path fill-rule="evenodd" clip-rule="evenodd" d="M150.397 237.312C149.806 237.208 149.309 237.081 148.99 236.747C146.609 236.912 144.386 237.366 142.109 238.188C139.751 238.997 137.325 240.075 134.629 240.884C131.934 241.693 128.902 242.029 126.004 241.693C124.72 241.543 123.463 241.296 122.231 240.98C121.699 243.353 120.925 246.114 120.153 248.67C119.753 250.203 119.395 251.666 119.131 252.946C118.524 255.574 118.794 258.337 119.872 260.83C121.691 265.143 123.106 272.016 122.635 274.779C122.351 274.859 122.072 274.928 121.792 274.999C122.285 275.832 122.713 276.705 123.039 277.609C123.122 277.843 123.217 278.134 123.316 278.448C123.087 273.798 123.084 269.134 123.253 264.477C119.857 257.311 125.667 249.303 125.667 249.24C129.592 257.508 126.446 262.971 124.844 264.999C124.778 266.829 124.742 268.683 124.74 270.556C127.096 264.577 134.09 261.651 134.09 261.706C133.049 271.187 127.016 274.027 124.8 274.757C124.887 278.001 125.077 281.281 125.397 284.567C127.502 278.199 134.966 275.116 134.966 275.116C133.944 284.428 128.108 287.331 125.8 288.124V288.124C126.16 289.719 126.519 291.401 126.864 293.123C127.615 293.181 128.357 293.262 129.077 293.403C131.77 289.24 136.247 286.998 136.247 287.043C136.11 291.015 135.021 293.893 133.642 295.967C135.036 297.651 135.734 299.909 136.468 302.163C138.451 300.471 140.222 299.577 140.222 299.577C140.116 302.65 139.439 305.065 138.499 306.965C138.892 307.587 139.342 308.167 139.885 308.674C142.918 311.436 147.433 311.234 151.408 312.245C151.678 312.313 151.949 312.397 152.217 312.494V235.872C151.657 236.661 150.962 237.412 150.397 237.312Z" fill="#E0E9F8"/>
<path fill-rule="evenodd" clip-rule="evenodd" d="M99.9258 175.116C100.444 175.257 100.995 175.432 101.533 175.432C101.765 175.432 101.994 175.399 102.217 175.318C102.958 175.116 103.699 174.172 102.689 173.498C102.305 173.242 101.891 173.142 101.47 173.142C100.785 173.142 100.081 173.408 99.4541 173.7C99.252 173.835 99.0498 173.97 98.9824 174.172C98.8476 174.644 99.4541 174.981 99.9258 175.116Z" fill="#E0E9F8"/>
<path fill-rule="evenodd" clip-rule="evenodd" d="M205.923 161.099C205.923 159.213 203.834 157.663 201.274 157.663C201.161 157.666 201.043 157.667 200.919 157.667C200.518 157.667 200.059 157.653 199.57 157.64C199.08 157.626 198.557 157.613 198.03 157.613C195.536 157.613 192.918 157.916 192.918 159.954C192.918 160.975 192.919 162.392 194.244 163.391H204.672C205.448 162.793 205.923 162 205.923 161.099Z" fill="#E0E9F8"/>
<path fill-rule="evenodd" clip-rule="evenodd" d="M106.26 174.846C106.741 175.22 107.349 175.34 107.984 175.34C108.149 175.34 108.317 175.332 108.484 175.318C111.381 175.183 114.211 174.105 116.503 172.353C118.868 170.427 114.54 168.95 111.992 168.95C111.419 168.95 110.937 169.025 110.64 169.186C110.371 169.32 110.236 169.59 110.101 169.859C109.562 170.668 108.618 171.207 107.675 171.612C107.136 171.814 106.53 172.016 106.125 172.42C105.451 173.094 105.519 174.307 106.26 174.846Z" fill="#E0E9F8"/>
<path fill-rule="evenodd" clip-rule="evenodd" d="M105.249 188.997L103.295 190.816L107.473 194.657L104.104 198.498L100.128 194.927L98.6454 196.679L102.486 200.52L97.6346 205.439L92.7829 200.655L73.9823 218.209C75.421 223.168 75.9022 228.335 74.7573 233.283C74.95 233.433 75.1346 233.594 75.3301 233.741C76.9918 234.946 78.731 236.046 80.5464 236.92C80.5504 236.672 80.5612 236.42 80.5861 236.167C80.923 232.326 83.888 229.159 87.5942 228.417C88.2681 228.283 88.8745 228.215 89.481 228.215C90.9635 228.215 92.3112 227.339 92.8503 225.924C94.3327 221.948 98.2411 219.186 102.756 219.455C103.635 219.502 104.48 219.674 105.284 219.942C105.294 219.93 105.306 219.919 105.317 219.908V216.76H105.384C105.384 214.671 107.136 212.919 109.225 212.919H112.729C113.74 212.919 114.751 212.649 115.559 212.178C116.772 211.504 118.389 211.706 119.198 212.851C119.578 213.34 119.866 213.905 119.926 214.506C119.959 214.684 119.968 214.893 119.939 215.143C119.73 217.446 119.189 219.029 118.651 220.081C119.207 222.063 120.141 223.903 120.141 223.903C120.132 223.897 120.124 223.892 120.115 223.886C120.647 225.178 120.95 226.65 120.95 228.215C120.95 229.736 120.661 231.167 120.157 232.432C121.354 232.847 122.288 233.793 122.694 235.019C124.074 235.601 125.463 236.093 126.88 236.436C129.104 236.975 131.395 236.975 133.753 236.638C136.179 236.302 138.672 235.628 141.368 235.156C143.781 234.734 146.3 234.585 148.688 234.847C148.955 233.19 149.966 231.057 150.802 229.9C151.124 229.455 151.654 228.983 152.217 228.563V177.609C152.217 169.725 158.618 163.391 166.435 163.391H185.643C185.575 163.368 185.506 163.345 185.438 163.323C177.815 160.797 166.569 158.331 155.317 158.331C149.761 158.331 144.2 158.933 139.077 160.426C125.933 164.283 120.278 177.849 108.687 177.849C108.333 177.849 107.973 177.837 107.608 177.811C106.624 177.74 105.661 177.705 104.713 177.705C80.8092 177.705 68.4318 199.753 71.4486 211.12L100.869 184.213L105.249 188.997Z" fill="#E0E9F8"/>
<path fill-rule="evenodd" clip-rule="evenodd" d="M110.236 367.569C109.547 367.338 109.205 366.619 109.368 365.953C108.471 365.391 108.214 365.075 108.214 365.075C107.878 364.805 107.743 364.267 107.945 363.863C108.147 363.526 108.619 362.649 108.956 361.975C109.037 361.812 109.216 361.737 109.392 361.751C109.526 361.359 109.716 360.878 109.966 360.627C110.411 360.183 110.853 359.736 111.208 359.245C111.177 358.673 111.104 358.098 110.977 357.528L109.338 350.15C109.219 350.065 109.13 349.937 109.09 349.779C106.462 341.086 103.7 331.046 103.497 328.553C103.363 326.935 103.43 324.711 103.767 322.623C104.001 321.119 104.084 319.6 104.004 318.088C103.865 317.439 103.801 316.78 103.796 316.116C103.664 315.245 103.48 314.379 103.228 313.526C101.537 307.826 99.9018 301.255 98.6208 295.21C98.5844 295.16 98.546 295.112 98.5109 295.061C96.5049 292.189 95.767 288.4 96.7475 285.098C96.1073 280.872 95.8661 277.668 96.2198 276.396C96.6437 274.815 97.3674 273.295 98.2845 271.927C97.9058 271.691 97.7023 271.544 97.7023 271.544L101.678 260.56C102.144 259.288 102.396 257.935 102.436 256.586C101.376 257.064 100.24 257.394 99.05 257.528C92.7158 258.27 87.1902 253.755 86.3142 247.69C86.1794 246.342 85.5055 245.129 84.4274 244.387C83.2131 243.557 82.2151 242.436 81.5332 241.123C80.2865 240.551 79.1039 239.879 77.9584 239.131C76.5217 238.195 75.203 237.139 73.9442 236.024C71.0318 244.092 64.6518 250.519 59.4948 257.461C54.2387 264.603 49.9934 273.431 52.6214 281.786C54.8452 288.862 61.5163 293.781 65.6942 300.115C78.5648 319.657 65.829 349.644 83.0123 365.951C83.645 366.553 84.3041 367.108 84.9772 367.636H110.43C110.365 367.613 110.297 367.59 110.236 367.569Z" fill="#E0E9F8"/>
<path fill-rule="evenodd" clip-rule="evenodd" d="M336.651 302.002C335.977 302.272 335.303 302.609 334.966 303.216C334.697 303.687 334.561 304.227 334.561 304.766C334.427 305.911 334.36 306.989 334.36 308.135C334.36 309.347 334.495 310.695 335.438 311.571C336.052 312.121 336.836 312.313 337.665 312.313C338.565 312.313 339.516 312.086 340.357 311.841C341.3 311.571 342.311 311.302 342.918 310.56C343.39 310.021 343.524 309.347 343.659 308.673C344.063 306.45 345.276 303.081 343.929 301.868C343.277 301.335 342.249 301.114 341.101 301.114C339.635 301.114 337.973 301.474 336.651 302.002Z" fill="#E0E9F8"/>
<path fill-rule="evenodd" clip-rule="evenodd" d="M151.88 233C151.972 233.041 152.088 233.023 152.217 232.971V231.48C151.738 232.183 151.474 232.819 151.88 233Z" fill="#E0E9F8"/>
<path fill-rule="evenodd" clip-rule="evenodd" d="M57.6753 247.892C58.3492 248.363 59.1578 248.7 59.9664 248.7C60.9098 248.7 61.7185 248.161 62.4597 247.623C64.1443 246.342 65.4247 244.591 66.705 242.973C67.3788 242.097 68.0527 241.153 68.1875 240.142C68.5244 237.784 66.4354 235.965 65.7616 233.943C65.238 232.372 64.2434 231.373 62.7784 231.373C62.1693 231.373 61.4792 231.545 60.7077 231.921C59.1578 232.663 58.0796 234.078 57.1362 235.493C55.6538 237.784 54.3734 240.345 54.7104 242.973C54.9125 244.928 56.0581 246.746 57.6753 247.892Z" fill="#E0E9F8"/>
<path fill-rule="evenodd" clip-rule="evenodd" d="M316.099 210.762L267.311 227.676C263.673 228.956 259.562 226.935 258.282 223.229L256.934 219.336V332.034C257.859 331.743 258.848 331.479 259.899 331.248C258.349 328.283 261.921 325.116 265.223 324.509C266.637 324.25 268.125 324.187 269.565 324.037C270.863 321.624 272.023 319.126 273.056 316.56C270.807 315.607 265.208 312.304 264.886 302.946C264.886 302.946 272.956 307.013 273.942 314.268C275.168 310.94 276.195 307.514 277.039 304.03C274.795 303.08 269.184 299.781 268.861 290.413C268.861 290.355 276.272 294.082 277.758 300.821C278.403 297.736 278.915 294.618 279.307 291.493C277.001 290.701 271.165 287.799 270.142 278.485C270.198 278.485 277.617 281.565 279.712 287.927C280.032 284.644 280.221 281.367 280.309 278.126C278.092 277.396 272.059 274.557 271.018 265.075C271.073 265.02 278.021 267.942 280.367 273.91C280.366 272.012 280.328 270.132 280.26 268.276C278.639 266.18 275.64 260.758 279.508 252.609C279.508 252.673 285.311 260.757 281.859 267.949C282.027 272.692 282.021 277.441 281.775 282.175C283.109 279.459 286.391 275.269 294.13 274.374C294.13 274.374 290.109 284.262 281.634 284.545C281.388 288.109 280.997 291.661 280.444 295.192C282.045 292.483 285.45 288.963 292.514 288.121C292.579 288.121 288.45 298.094 279.883 298.487C279.59 300.046 279.265 301.599 278.902 303.148C278.454 305.035 277.944 306.912 277.382 308.774C279.589 306.521 283.731 303.926 290.761 304.765C290.718 304.765 288.026 308.492 283.833 310.629C284.657 310.467 285.516 310.428 286.388 310.428C286.721 310.428 287.053 310.434 287.388 310.438C287.722 310.443 288.055 310.448 288.388 310.448C289.776 310.448 291.142 310.361 292.379 309.819C296.422 308.067 297.568 302.407 301.611 300.52C302.414 300.127 303.283 299.946 304.159 299.946C306.734 299.946 309.366 301.508 310.573 303.822C312.19 306.922 311.449 310.965 309.225 313.727C307.473 315.816 304.845 317.367 303.767 319.859C302.082 323.835 304.778 328.619 303.161 332.663C300.263 340.075 286.516 337.851 284.09 345.466C283.551 347.15 283.754 348.97 283.619 350.789C283.214 356.045 279.508 360.628 274.925 363.256C270.344 365.884 264.953 366.76 259.697 367.164C259.041 367.205 258.371 367.239 257.706 367.239C256.183 367.239 254.675 367.058 253.362 366.355C252.865 366.097 252.413 365.785 251.999 365.429C251.964 365.458 251.928 365.483 251.894 365.511C251.766 365.618 251.632 365.717 251.502 365.82C251.291 365.985 251.079 366.148 250.859 366.302C250.712 366.404 250.56 366.5 250.41 366.596C250.193 366.735 249.975 366.871 249.751 366.998C249.59 367.09 249.428 367.175 249.263 367.261C249.037 367.378 248.808 367.489 248.574 367.594C248.545 367.607 248.518 367.623 248.488 367.636H313.554C317.213 363.77 320.115 359.258 321.961 354.361C328.363 337.312 322.298 317.568 329.508 300.789C335.371 287.11 349.723 276.059 348.848 261.301C348.309 252.137 341.772 244.455 337.325 236.301C332.231 227.093 336.167 197.069 314.745 184.91L320.546 201.665C321.826 205.372 319.805 209.482 316.099 210.762Z" fill="#E0E9F8"/>
<path fill-rule="evenodd" clip-rule="evenodd" d="M276.364 311.938C275.275 315.13 274.007 318.26 272.549 321.293C273.653 320.527 275.155 319.746 277.058 319.296C278.434 316.548 279.13 313.24 281.563 311.555C279.967 312.046 278.219 312.242 276.364 311.938Z" fill="#E0E9F8"/>
<path fill-rule="evenodd" clip-rule="evenodd" d="M159.92 367.258C159.754 367.173 159.59 367.086 159.428 366.993C159.205 366.867 158.988 366.733 158.773 366.595C158.62 366.496 158.467 366.4 158.319 366.295C158.102 366.144 157.893 365.983 157.685 365.82C157.55 365.715 157.413 365.614 157.283 365.503C157.246 365.472 157.205 365.445 157.168 365.413C156.144 365.366 155.114 365.231 154.104 365.076C147.702 364.131 141.234 362.515 135.843 358.876C130.452 355.237 126.341 349.24 126.341 342.77C126.341 340.547 126.746 338.39 126.273 336.235C125.872 334.455 124.955 333.059 123.711 331.903C121.469 338.588 118.592 346.896 116.368 352.609C116.336 352.6 116.304 352.58 116.273 352.568L114.652 358.118C115.216 361.425 116.069 364.144 117.312 365.076C118.489 365.948 119.799 366.812 120.971 367.636H160.701C160.669 367.622 160.639 367.605 160.608 367.591C160.374 367.486 160.145 367.375 159.92 367.258Z" fill="#E0E9F8"/>
<path fill-rule="evenodd" clip-rule="evenodd" d="M113.917 345.862C114.581 339.935 115.459 333.128 116.248 327.739C115.19 327.303 114.12 326.874 113.073 326.426C113.322 330.911 113.689 338.711 113.917 345.862Z" fill="#E0E9F8"/>
<path fill-rule="evenodd" clip-rule="evenodd" d="M251.519 166.458C250.282 161.382 251.049 156.192 253.365 151.806C249.067 149.782 244.502 148.844 240.075 148.844C230.972 148.844 222.452 152.795 218.053 159.347C216.917 161.022 215.559 162.354 214.029 163.39H242.716C246.051 163.39 249.101 164.545 251.519 166.458Z" fill="#E0E9F8"/>
<path fill-rule="evenodd" clip-rule="evenodd" d="M261.044 165.21L263.066 171.073L269.701 168.771C269.151 167.84 268.606 166.875 268.053 165.884C266.113 162.4 263.808 159.507 261.261 157.149C260.245 159.639 260.085 162.486 261.044 165.21Z" fill="#E0E9F8"/>
<path fill-rule="evenodd" clip-rule="evenodd" d="M289.346 200.183C292.109 197.825 293.322 193.916 292.042 190.21C290.357 185.493 285.168 183 280.451 184.617C275.735 186.302 273.241 191.49 274.859 196.207C276.139 199.913 279.508 202.205 283.147 202.339L286.516 212.11C286.651 212.515 287.123 212.717 287.46 212.582L292.177 210.965C292.581 210.763 292.85 210.358 292.716 209.954L289.346 200.183Z" fill="#E0E9F8"/>
<path fill-rule="evenodd" clip-rule="evenodd" d="M251.999 365.429C252.413 365.785 252.865 366.097 253.362 366.355C254.675 367.058 256.183 367.24 257.706 367.24C258.371 367.24 259.041 367.205 259.697 367.164C264.953 366.76 270.344 365.884 274.925 363.256C279.508 360.627 283.214 356.045 283.619 350.789C283.754 348.97 283.551 347.15 284.09 345.466C286.516 337.851 300.263 340.075 303.161 332.663C304.778 328.619 302.082 323.835 303.767 319.859C304.845 317.367 307.473 315.816 309.225 313.727C311.449 310.965 312.19 306.922 310.573 303.822C309.366 301.509 306.734 299.946 304.159 299.946C303.283 299.946 302.414 300.127 301.611 300.52C297.568 302.407 296.422 308.067 292.379 309.82C291.142 310.361 289.776 310.448 288.388 310.448C288.055 310.448 287.722 310.443 287.388 310.439C287.053 310.433 286.721 310.428 286.388 310.428C285.516 310.428 284.656 310.467 283.833 310.629C283.118 310.993 282.359 311.309 281.563 311.555C279.131 313.24 278.433 316.548 277.058 319.296C279.597 318.697 282.853 318.692 286.853 320.129C286.853 320.129 278.945 327.041 271.233 323.902C268.282 329.49 264.65 334.697 260.236 339.267C259.192 340.33 258.09 341.409 256.934 342.456V354.631C256.938 355.085 256.916 355.534 256.876 355.979C256.872 356.028 256.87 356.078 256.865 356.127C256.824 356.547 256.761 356.962 256.683 357.371C256.671 357.437 256.659 357.504 256.645 357.572C256.562 357.971 256.462 358.364 256.347 358.751C256.327 358.817 256.306 358.884 256.285 358.95C256.163 359.338 256.026 359.718 255.872 360.091C255.85 360.144 255.826 360.195 255.803 360.247C255.639 360.632 255.462 361.009 255.264 361.375C255.253 361.396 255.241 361.416 255.229 361.436C255.03 361.803 254.813 362.158 254.583 362.505C254.566 362.532 254.549 362.559 254.53 362.586C254.301 362.926 254.055 363.253 253.797 363.572C253.759 363.617 253.723 363.665 253.684 363.712C253.431 364.016 253.164 364.31 252.886 364.593C252.838 364.642 252.789 364.69 252.741 364.739C252.5 364.977 252.255 365.208 251.999 365.429Z" fill="#C5D6F1"/>
<path fill-rule="evenodd" clip-rule="evenodd" d="M269.565 324.037C268.124 324.187 266.636 324.249 265.223 324.509C261.92 325.116 258.349 328.283 259.899 331.248C258.848 331.479 257.86 331.743 256.934 332.034V340.333C262.133 335.663 266.289 330.128 269.565 324.037Z" fill="#C5D6F1"/>
<path fill-rule="evenodd" clip-rule="evenodd" d="M104.004 318.088C103.969 317.429 103.896 316.77 103.796 316.115C103.801 316.781 103.865 317.439 104.004 318.088Z" fill="#EFCD8F"/>
<path fill-rule="evenodd" clip-rule="evenodd" d="M129.194 309.875C129.288 312.491 129.121 314.581 128.565 315.749C128.549 315.839 128.526 315.931 128.509 316.022C130.176 316.468 131.511 317.165 132.527 317.857C131.281 315.259 130.168 312.593 129.194 309.875Z" fill="#C5D6F1"/>
<path fill-rule="evenodd" clip-rule="evenodd" d="M139.886 308.674C139.342 308.167 138.892 307.587 138.499 306.965C136.579 310.847 133.562 312.551 132.052 313.191C136.338 323.833 142.809 333.326 152.217 340.258V312.494C151.948 312.397 151.678 312.313 151.409 312.245C147.433 311.234 142.918 311.436 139.886 308.674Z" fill="#C5D6F1"/>
<path fill-rule="evenodd" clip-rule="evenodd" d="M98.5106 295.062C98.5464 295.111 98.5841 295.16 98.6205 295.211C97.8429 291.54 97.1966 288.068 96.7472 285.099C95.7674 288.4 96.5046 292.188 98.5106 295.062Z" fill="#C5D6F1"/>
<path fill-rule="evenodd" clip-rule="evenodd" d="M136.468 302.163C135.734 299.909 135.036 297.651 133.642 295.967C131.832 298.689 129.523 300.023 128.202 300.603C128.277 301.079 128.347 301.55 128.414 302.019C129.189 305.035 130.1 308.004 131.166 310.899C131.691 307.04 134.215 304.085 136.468 302.163Z" fill="#C5D6F1"/>
<path fill-rule="evenodd" clip-rule="evenodd" d="M144.872 335.898C140.462 331.333 136.834 326.133 133.884 320.553C131.603 321.462 129.312 321.511 127.215 321.121C127.193 321.194 127.171 321.27 127.15 321.342C126.743 322.707 125.409 326.84 123.712 331.903C124.956 333.059 125.873 334.455 126.274 336.235C126.745 338.39 126.341 340.547 126.341 342.77C126.341 349.24 130.452 355.237 135.842 358.876C141.233 362.515 147.702 364.131 154.104 365.075C155.114 365.23 156.144 365.366 157.168 365.413C156.917 365.196 156.677 364.97 156.441 364.737C156.393 364.689 156.345 364.639 156.297 364.59C156.019 364.307 155.751 364.013 155.497 363.708C155.46 363.663 155.425 363.618 155.39 363.573C155.13 363.253 154.881 362.924 154.65 362.582C154.636 362.559 154.621 362.536 154.607 362.513C154.375 362.167 154.159 361.811 153.958 361.444C153.945 361.42 153.93 361.396 153.917 361.371C153.72 361.007 153.543 360.631 153.377 360.249C153.354 360.195 153.33 360.142 153.307 360.088C153.152 359.716 153.015 359.336 152.891 358.948C152.87 358.882 152.849 358.817 152.829 358.749C152.712 358.363 152.61 357.969 152.526 357.569C152.512 357.503 152.5 357.437 152.487 357.371C152.407 356.962 152.341 356.547 152.297 356.126C152.293 356.077 152.29 356.028 152.285 355.98C152.243 355.535 152.217 355.086 152.217 354.631V342.384C149.534 340.46 147.074 338.142 144.872 335.898Z" fill="#C5D6F1"/>
<path fill-rule="evenodd" clip-rule="evenodd" d="M114.763 300.127C114.743 300.54 114.722 300.953 114.7 301.369C114.946 301.342 115.192 301.317 115.43 301.298C115.207 300.909 114.984 300.518 114.763 300.127Z" fill="#C5D6F1"/>
<path fill-rule="evenodd" clip-rule="evenodd" d="M118.322 316.76C118.444 316.717 118.561 316.682 118.681 316.64C120.396 313.174 120.105 309.019 118.053 305.709C117.809 305.316 117.566 304.915 117.323 304.513C116.017 303.356 115.103 302.277 114.681 301.744C114.282 309.269 113.678 317.013 112.729 322.218C112.797 322.555 112.864 322.825 112.864 323.094C112.911 323.678 112.985 324.849 113.072 326.426C114.12 326.874 115.19 327.303 116.249 327.739C116.902 323.276 117.494 319.787 117.851 318.579C118.038 318.017 118.285 317.459 118.534 316.951C118.39 316.83 118.316 316.76 118.322 316.76Z" fill="#C5D6F1"/>
<path fill-rule="evenodd" clip-rule="evenodd" d="M126.864 293.123C127.1 294.302 127.329 295.496 127.545 296.692C127.899 295.49 128.436 294.393 129.076 293.403C128.357 293.262 127.616 293.181 126.864 293.123Z" fill="#C5D6F1"/>
<mask id="mask2" mask-type="alpha" maskUnits="userSpaceOnUse" x="250" y="140" width="71" height="89">
<path fill-rule="evenodd" clip-rule="evenodd" d="M250.932 140.674H320.931V228.061H250.932V140.674Z" fill="white"/>
</mask>
<g mask="url(#mask2)">
<path fill-rule="evenodd" clip-rule="evenodd" d="M268.053 150.655C273.983 148.566 280.519 151.733 282.608 157.73L284.63 163.593L269.7 168.771L263.066 171.073L261.045 165.21C260.085 162.486 260.246 159.639 261.262 157.149C262.459 154.219 264.846 151.784 268.053 150.655ZM292.177 210.965L287.46 212.582C287.123 212.717 286.651 212.515 286.516 212.11L283.147 202.339C279.508 202.205 276.139 199.913 274.859 196.207C273.241 191.49 275.734 186.302 280.451 184.617C285.168 183 290.357 185.493 292.042 190.21C293.322 193.916 292.109 197.825 289.347 200.183L292.716 209.954C292.851 210.358 292.58 210.763 292.177 210.965ZM251.519 166.459C254.818 169.068 256.934 173.099 256.934 177.609V219.337L258.282 223.229C259.562 226.935 263.673 228.957 267.311 227.676L316.099 210.763C319.805 209.482 321.826 205.372 320.545 201.666L314.745 184.91L307.271 163.323C306.058 159.617 302.014 157.595 298.242 158.943L293.525 160.56L291.503 154.698C287.729 143.849 275.802 138.054 264.952 141.827C259.773 143.629 255.749 147.292 253.365 151.806C251.049 156.192 250.282 161.382 251.519 166.459Z" fill="#C5D6F1"/>
</g>
<path fill-rule="evenodd" clip-rule="evenodd" d="M260.236 339.267C264.651 334.697 268.282 329.49 271.233 323.902C278.945 327.041 286.853 320.129 286.853 320.129C282.852 318.692 279.597 318.697 277.058 319.296C275.155 319.745 273.653 320.526 272.548 321.292C274.007 318.26 275.275 315.131 276.364 311.937C278.219 312.243 279.967 312.046 281.563 311.555C282.359 311.309 283.118 310.993 283.833 310.629C288.025 308.492 290.718 304.765 290.761 304.765C283.73 303.927 279.589 306.521 277.382 308.774C277.943 306.912 278.453 305.035 278.901 303.148C279.265 301.6 279.59 300.046 279.883 298.487C288.45 298.094 292.579 288.121 292.513 288.121C285.45 288.964 282.044 292.483 280.444 295.193C280.998 291.661 281.388 288.108 281.633 284.545C290.108 284.262 294.131 274.374 294.131 274.374C286.391 275.269 283.109 279.459 281.775 282.175C282.021 277.441 282.028 272.691 281.859 267.949C285.311 260.757 279.509 252.673 279.509 252.608C275.639 260.758 278.639 266.18 280.26 268.276C280.328 270.132 280.366 272.011 280.367 273.91C278.021 267.942 271.073 265.02 271.017 265.075C272.059 274.557 278.092 277.397 280.308 278.127C280.22 281.367 280.032 284.644 279.711 287.927C277.616 281.565 270.198 278.485 270.141 278.485C271.165 287.799 277.001 290.701 279.308 291.493C278.915 294.618 278.403 297.736 277.758 300.821C276.272 294.082 268.861 290.354 268.861 290.412C269.184 299.78 274.794 303.08 277.039 304.03C276.195 307.514 275.168 310.94 273.942 314.268C272.955 307.013 264.885 302.946 264.885 302.946C265.208 312.304 270.807 315.607 273.056 316.561C272.023 319.126 270.863 321.624 269.565 324.036C266.289 330.127 262.133 335.663 256.935 340.333V342.456C258.089 341.41 259.192 340.33 260.236 339.267Z" fill="#99B9EE"/>
<path fill-rule="evenodd" clip-rule="evenodd" d="M132.052 313.191C133.562 312.551 136.579 310.847 138.499 306.965C139.438 305.065 140.116 302.65 140.223 299.577C140.223 299.577 138.452 300.471 136.468 302.163C134.214 304.085 131.691 307.04 131.166 310.899C130.1 308.005 129.188 305.035 128.414 302.019C128.826 304.879 129.112 307.58 129.194 309.874C130.168 312.593 131.281 315.259 132.527 317.857C131.511 317.165 130.176 316.467 128.51 316.022C128.185 317.746 127.706 319.511 127.215 321.122C129.312 321.511 131.603 321.461 133.885 320.552C136.834 326.133 140.462 331.333 144.872 335.897C147.074 338.141 149.534 340.461 152.217 342.384V340.259C142.809 333.326 136.337 323.833 132.052 313.191Z" fill="#99B9EE"/>
<path fill-rule="evenodd" clip-rule="evenodd" d="M117.323 304.513C116.689 303.463 116.055 302.388 115.43 301.298C115.192 301.317 114.946 301.342 114.7 301.368C114.694 301.494 114.687 301.619 114.681 301.744C115.103 302.277 116.017 303.356 117.323 304.513Z" fill="#99B9EE"/>
<path fill-rule="evenodd" clip-rule="evenodd" d="M118.681 316.64C118.561 316.682 118.443 316.716 118.322 316.76C118.315 316.76 118.39 316.829 118.534 316.951C118.554 316.91 118.572 316.867 118.592 316.827C118.624 316.766 118.65 316.702 118.681 316.64Z" fill="#FDB32A"/>
<path fill-rule="evenodd" clip-rule="evenodd" d="M134.966 275.116C134.966 275.116 127.502 278.199 125.398 284.567C125.077 281.281 124.887 278.001 124.8 274.757C127.016 274.027 133.049 271.187 134.09 261.706C134.09 261.651 127.096 264.577 124.741 270.555C124.742 268.683 124.778 266.829 124.844 264.999C126.446 262.971 129.592 257.508 125.667 249.24C125.667 249.303 119.857 257.311 123.253 264.477C123.084 269.134 123.087 273.798 123.315 278.448C123.943 280.443 124.867 283.974 125.8 288.125V288.124C128.108 287.331 133.943 284.428 134.966 275.116Z" fill="#99B9EE"/>
<path fill-rule="evenodd" clip-rule="evenodd" d="M133.642 295.967C135.021 293.893 136.11 291.014 136.246 287.043C136.246 286.997 131.771 289.241 129.077 293.402C128.436 294.392 127.899 295.49 127.545 296.692C127.782 298.004 128.002 299.313 128.203 300.603C129.523 300.023 131.832 298.689 133.642 295.967Z" fill="#99B9EE"/>
<path fill-rule="evenodd" clip-rule="evenodd" d="M167.985 169.388H185.573C187.46 169.388 189.009 170.938 189.009 172.824V175.25C189.009 177.137 190.559 178.687 192.446 178.687H220.007C221.893 178.687 223.443 177.137 223.443 175.25V172.824C223.443 170.938 224.993 169.388 226.88 169.388H233.079H242.176C247.702 169.388 252.15 173.835 252.15 179.361V351.598C252.15 357.124 247.702 361.571 242.176 361.571H167.042C161.516 361.571 157.069 357.124 157.069 351.598V179.361C157.069 173.835 161.516 169.388 167.042 169.388H167.985ZM152.217 177.609V228.563C153.187 227.839 154.252 227.272 154.508 227.272C155.788 227.339 153.902 229.361 153.026 230.439C152.737 230.773 152.453 231.134 152.217 231.48V232.971C152.941 232.681 154.159 231.19 154.845 231.248C155.654 231.315 153.228 234.213 153.228 234.213C153.228 234.213 152.794 235.062 152.217 235.873V312.494V340.258V342.384V354.63C152.217 355.086 152.243 355.535 152.285 355.979C152.29 356.029 152.292 356.077 152.297 356.126C152.342 356.547 152.407 356.962 152.487 357.372C152.5 357.437 152.512 357.504 152.526 357.569C152.61 357.969 152.712 358.362 152.829 358.75C152.849 358.816 152.87 358.882 152.891 358.948C153.015 359.336 153.152 359.716 153.307 360.089C153.329 360.142 153.354 360.195 153.377 360.248C153.542 360.631 153.72 361.006 153.917 361.371C153.93 361.395 153.945 361.42 153.959 361.444C154.159 361.811 154.375 362.167 154.606 362.514C154.621 362.537 154.635 362.56 154.65 362.582C154.881 362.924 155.13 363.253 155.389 363.574C155.425 363.618 155.46 363.663 155.497 363.707C155.751 364.013 156.019 364.308 156.297 364.591C156.345 364.64 156.393 364.688 156.441 364.736C156.712 365.004 156.993 365.258 157.283 365.503C157.413 365.613 157.55 365.715 157.685 365.82C157.892 365.983 158.102 366.144 158.318 366.295C158.467 366.399 158.621 366.496 158.774 366.595C158.988 366.732 159.205 366.868 159.428 366.994C159.59 367.086 159.754 367.173 159.92 367.258C160.145 367.375 160.375 367.486 160.608 367.591C160.639 367.605 160.669 367.622 160.701 367.636H248.488C248.517 367.623 248.545 367.607 248.574 367.594C248.807 367.489 249.037 367.378 249.263 367.261C249.428 367.175 249.59 367.09 249.751 366.998C249.974 366.871 250.193 366.735 250.41 366.596C250.561 366.5 250.712 366.404 250.858 366.302C251.079 366.149 251.29 365.985 251.501 365.82C251.632 365.717 251.767 365.618 251.893 365.511C252.186 365.265 252.469 365.008 252.741 364.739C252.789 364.69 252.838 364.642 252.886 364.593C253.164 364.31 253.431 364.016 253.684 363.712C253.722 363.665 253.759 363.618 253.796 363.572C254.055 363.253 254.301 362.926 254.53 362.587C254.548 362.56 254.565 362.532 254.583 362.505C254.813 362.159 255.03 361.803 255.229 361.436C255.241 361.416 255.253 361.395 255.264 361.375C255.462 361.009 255.639 360.632 255.804 360.247C255.826 360.195 255.85 360.144 255.872 360.091C256.026 359.719 256.163 359.338 256.286 358.95C256.306 358.884 256.327 358.817 256.347 358.751C256.462 358.363 256.563 357.971 256.645 357.572C256.658 357.504 256.67 357.437 256.683 357.371C256.761 356.961 256.823 356.547 256.865 356.127C256.87 356.078 256.873 356.028 256.877 355.978C256.916 355.534 256.938 355.085 256.934 354.63V342.456V340.333V332.034V219.337V177.609C256.934 173.099 254.818 169.068 251.519 166.459C249.1 164.545 246.05 163.39 242.716 163.39H214.03H204.672H194.244H185.643H166.435C158.619 163.39 152.217 169.725 152.217 177.609Z" fill="#99B9EE"/>
<path fill-rule="evenodd" clip-rule="evenodd" d="M170.344 255.169H236.247C239.279 255.169 241.705 257.596 241.705 260.628C241.705 263.592 239.279 266.086 236.247 266.086H170.344C167.311 266.086 164.885 263.661 164.885 260.628C164.885 257.596 167.311 255.169 170.344 255.169ZM203.295 222.892C210.887 222.892 217.042 229.047 217.042 236.638C217.042 241.234 214.778 245.293 211.314 247.789C209.056 249.416 206.291 250.385 203.295 250.385C200.269 250.385 197.48 249.396 195.21 247.739C191.784 245.239 189.548 241.204 189.548 236.638C189.548 229.047 195.703 222.892 203.295 222.892ZM236.314 285.627H170.411C167.379 285.627 164.953 283.202 164.953 280.17C164.953 277.138 167.379 274.711 170.411 274.711H236.314C239.346 274.711 241.772 277.138 241.772 280.17C241.772 283.202 239.279 285.627 236.314 285.627ZM157.069 179.361V351.599C157.069 357.124 161.516 361.571 167.042 361.571H242.176C247.702 361.571 252.15 357.124 252.15 351.599V179.361C252.15 173.835 247.702 169.388 242.176 169.388H233.079H226.88C224.993 169.388 223.443 170.937 223.443 172.824V175.25C223.443 177.137 221.893 178.687 220.007 178.687H192.446C190.559 178.687 189.009 177.137 189.009 175.25V172.824C189.009 170.937 187.46 169.388 185.573 169.388H167.985H167.042C161.516 169.388 157.069 173.835 157.069 179.361Z" fill="#F7F7F7"/>
<path fill-rule="evenodd" clip-rule="evenodd" d="M203.295 228.148C206.26 228.148 208.618 230.506 208.618 233.471C208.618 236.436 206.26 238.795 203.295 238.795C200.33 238.795 197.972 236.436 197.972 233.471C197.972 230.506 200.33 228.148 203.295 228.148ZM195.209 247.738C195.22 243.436 198.719 240.008 202.958 240.008H203.565C207.877 240.008 211.314 243.512 211.314 247.757V247.788C214.778 245.292 217.042 241.234 217.042 236.639C217.042 229.046 210.887 222.892 203.295 222.892C195.703 222.892 189.548 229.046 189.548 236.639C189.548 241.205 191.784 245.238 195.209 247.738Z" fill="#D6E2F6"/>
<path fill-rule="evenodd" clip-rule="evenodd" d="M203.565 240.008H202.958C198.719 240.008 195.22 243.435 195.21 247.739C197.481 249.396 200.269 250.385 203.295 250.385C206.291 250.385 209.055 249.416 211.314 247.789V247.757C211.314 243.512 207.877 240.008 203.565 240.008Z" fill="#99B9EE"/>
<path fill-rule="evenodd" clip-rule="evenodd" d="M203.295 238.795C206.26 238.795 208.618 236.436 208.618 233.471C208.618 230.506 206.26 228.148 203.295 228.148C200.33 228.148 197.972 230.506 197.972 233.471C197.972 236.436 200.33 238.795 203.295 238.795Z" fill="#99B9EE"/>
<path fill-rule="evenodd" clip-rule="evenodd" d="M172.635 259.212H233.955C234.764 259.212 235.371 259.819 235.371 260.628C235.371 261.369 234.764 262.043 233.955 262.043H172.635C171.826 262.043 171.22 261.437 171.22 260.628C171.22 259.819 171.826 259.212 172.635 259.212ZM170.344 266.086H236.246C239.279 266.086 241.705 263.592 241.705 260.628C241.705 257.596 239.279 255.169 236.246 255.169H170.344C167.311 255.169 164.885 257.596 164.885 260.628C164.885 263.661 167.311 266.086 170.344 266.086Z" fill="#D6E2F6"/>
<path fill-rule="evenodd" clip-rule="evenodd" d="M172.635 262.043H233.955C234.764 262.043 235.371 261.369 235.371 260.628C235.371 259.819 234.764 259.213 233.955 259.213H172.635C171.826 259.213 171.22 259.819 171.22 260.628C171.22 261.437 171.826 262.043 172.635 262.043Z" fill="#99B9EE"/>
<path fill-rule="evenodd" clip-rule="evenodd" d="M197.5 281.719C196.692 281.719 196.085 281.113 196.085 280.304C196.085 279.496 196.692 278.889 197.5 278.889C198.309 278.889 198.915 279.496 198.915 280.304C198.915 281.113 198.241 281.719 197.5 281.719ZM193.255 281.719C192.446 281.719 191.84 281.113 191.84 280.304C191.84 279.496 192.446 278.889 193.255 278.889C194.064 278.889 194.67 279.496 194.67 280.304C194.67 281.113 193.996 281.719 193.255 281.719ZM189.01 281.719C188.201 281.719 187.595 281.113 187.595 280.304C187.595 279.496 188.201 278.889 189.01 278.889C189.818 278.889 190.425 279.496 190.425 280.304C190.425 281.113 189.818 281.719 189.01 281.719ZM184.764 281.719C183.956 281.719 183.349 281.113 183.349 280.304C183.349 279.496 183.956 278.889 184.764 278.889C185.573 278.889 186.179 279.496 186.179 280.304C186.179 281.113 185.573 281.719 184.764 281.719ZM180.519 281.719C179.71 281.719 179.104 281.113 179.104 280.304C179.104 279.496 179.71 278.889 180.519 278.889C181.328 278.889 181.934 279.496 181.934 280.304C181.934 281.113 181.328 281.719 180.519 281.719ZM176.341 281.719C175.533 281.719 174.926 281.113 174.926 280.304C174.926 279.496 175.533 278.889 176.341 278.889C177.15 278.889 177.756 279.496 177.756 280.304C177.756 281.113 177.082 281.719 176.341 281.719ZM172.096 281.719C171.287 281.719 170.681 281.113 170.681 280.304C170.681 279.496 171.287 278.889 172.096 278.889C172.904 278.889 173.511 279.496 173.511 280.304C173.511 281.113 172.837 281.719 172.096 281.719ZM236.314 274.711H170.411C167.379 274.711 164.953 277.137 164.953 280.17C164.953 283.202 167.379 285.628 170.411 285.628H236.314C239.279 285.628 241.772 283.202 241.772 280.17C241.772 277.137 239.347 274.711 236.314 274.711Z" fill="#D6E2F6"/>
<path fill-rule="evenodd" clip-rule="evenodd" d="M184.764 278.889C183.955 278.889 183.349 279.496 183.349 280.305C183.349 281.113 183.955 281.719 184.764 281.719C185.573 281.719 186.179 281.113 186.179 280.305C186.179 279.496 185.573 278.889 184.764 278.889Z" fill="#99B9EE"/>
<path fill-rule="evenodd" clip-rule="evenodd" d="M193.255 278.889C192.446 278.889 191.84 279.496 191.84 280.305C191.84 281.113 192.446 281.719 193.255 281.719C193.996 281.719 194.67 281.113 194.67 280.305C194.67 279.496 194.063 278.889 193.255 278.889Z" fill="#99B9EE"/>
<path fill-rule="evenodd" clip-rule="evenodd" d="M180.519 278.889C179.71 278.889 179.104 279.496 179.104 280.305C179.104 281.113 179.71 281.719 180.519 281.719C181.328 281.719 181.934 281.113 181.934 280.305C181.934 279.496 181.328 278.889 180.519 278.889Z" fill="#99B9EE"/>
<path fill-rule="evenodd" clip-rule="evenodd" d="M197.5 278.889C196.692 278.889 196.085 279.496 196.085 280.305C196.085 281.113 196.692 281.719 197.5 281.719C198.241 281.719 198.915 281.113 198.915 280.305C198.915 279.496 198.309 278.889 197.5 278.889Z" fill="#99B9EE"/>
<path fill-rule="evenodd" clip-rule="evenodd" d="M189.01 278.889C188.201 278.889 187.594 279.496 187.594 280.305C187.594 281.113 188.201 281.719 189.01 281.719C189.818 281.719 190.425 281.113 190.425 280.305C190.425 279.496 189.818 278.889 189.01 278.889Z" fill="#99B9EE"/>
<path fill-rule="evenodd" clip-rule="evenodd" d="M176.341 278.889C175.532 278.889 174.926 279.496 174.926 280.305C174.926 281.113 175.532 281.719 176.341 281.719C177.082 281.719 177.756 281.113 177.756 280.305C177.756 279.496 177.149 278.889 176.341 278.889Z" fill="#99B9EE"/>
<path fill-rule="evenodd" clip-rule="evenodd" d="M172.096 278.889C171.287 278.889 170.681 279.496 170.681 280.305C170.681 281.113 171.287 281.719 172.096 281.719C172.837 281.719 173.511 281.113 173.511 280.305C173.511 279.496 172.904 278.889 172.096 278.889Z" fill="#99B9EE"/>
<path fill-rule="evenodd" clip-rule="evenodd" d="M114.652 358.118L116.273 352.568C115.254 352.207 114.253 350.877 113.688 349.697C113.683 349.702 113.678 349.708 113.672 349.711C112.392 350.52 111.044 350.587 109.629 350.25C109.517 350.25 109.421 350.21 109.338 350.15L110.977 357.528C111.103 358.098 111.178 358.672 111.209 359.246C110.853 359.736 110.411 360.182 109.966 360.628C109.715 360.878 109.526 361.36 109.391 361.752C109.505 361.761 109.617 361.802 109.696 361.908C111.987 364.94 115.155 366.962 118.726 366.692C119.209 366.895 119.663 367.243 120.033 367.636H120.971C119.799 366.812 118.489 365.947 117.312 365.075C116.069 364.143 115.216 361.425 114.652 358.118Z" fill="#B97A59"/>
<path fill-rule="evenodd" clip-rule="evenodd" d="M104.373 232.191H104.71H106.462H107.552L108.946 227.404L109.032 227.099C108.938 227.021 108.85 226.951 108.753 226.868C107.867 226.129 107.165 224.959 106.848 223.882C106.454 223.778 106.071 223.285 105.796 222.668C107.044 222.272 108.747 221.948 111.449 220.668C113.952 219.467 115.098 218.645 115.66 217.934C115.927 218.958 116.434 220.281 117.373 221.519C117.317 222.059 117.234 222.61 117.109 223.161C116.57 225.857 114.818 229.361 113.74 229.361C113.728 229.361 113.717 229.359 113.706 229.359L113.74 230.506L113.733 230.511L113.78 232.191H116.57H118.524H118.794C119.274 232.191 119.729 232.283 120.157 232.431C120.66 231.166 120.95 229.736 120.95 228.215C120.95 226.65 120.646 225.178 120.115 223.887C120.124 223.892 120.132 223.897 120.142 223.903C120.142 223.903 119.208 222.063 118.652 220.081C119.189 219.029 119.73 217.446 119.939 215.143C119.968 214.893 119.96 214.684 119.926 214.506C119.866 213.905 119.578 213.339 119.198 212.851C118.39 211.706 116.772 211.504 115.559 212.178C114.751 212.649 113.74 212.919 112.729 212.919H109.225C107.136 212.919 105.384 214.671 105.384 216.76H105.317V219.907C105.306 219.92 105.294 219.93 105.284 219.942C104.48 219.674 103.634 219.502 102.756 219.455C98.2413 219.186 94.3329 221.949 92.8504 225.924C92.3113 227.339 90.9636 228.215 89.4811 228.215C88.8747 228.215 88.2682 228.283 87.5944 228.418C83.8882 229.159 80.9232 232.326 80.5863 236.167C80.5613 236.42 80.5506 236.671 80.5465 236.92C81.6759 237.463 82.8342 237.92 84.0229 238.256C85.5728 238.66 87.1227 238.997 88.6725 239.064C90.2224 239.132 91.7722 238.997 93.3221 238.728C94.872 238.458 96.3545 237.919 97.7696 237.312C98.4434 236.975 99.1846 236.639 99.8585 236.234C100.06 236.113 100.256 235.992 100.443 235.871C100.458 235.773 100.475 235.676 100.496 235.581C100.745 233.619 102.41 232.191 104.373 232.191Z" fill="#0B4870"/>
<path fill-rule="evenodd" clip-rule="evenodd" d="M102.284 254.226C101.823 250.809 101.076 245.368 100.695 241.001C100.351 241.166 100.005 241.329 99.6563 241.49C97.9043 242.232 96.0175 242.703 94.1307 243.04C90.2897 243.579 86.3813 243.04 82.8773 241.692C82.4198 241.517 81.973 241.325 81.533 241.123C82.2149 242.436 83.2129 243.557 84.4272 244.387C85.5053 245.129 86.1792 246.342 86.314 247.69C87.19 253.755 92.7156 258.269 99.0498 257.528C100.24 257.394 101.376 257.064 102.436 256.586C102.459 255.792 102.409 255 102.284 254.226Z" fill="#0B4870"/>
<path fill-rule="evenodd" clip-rule="evenodd" d="M122.231 240.98C123.463 241.296 124.719 241.543 126.004 241.692C128.902 242.029 131.934 241.692 134.629 240.884C137.325 240.075 139.751 238.997 142.109 238.188C144.385 237.366 146.609 236.912 148.989 236.747C149.309 237.081 149.807 237.208 150.398 237.312C150.962 237.412 151.656 236.661 152.217 235.872C152.794 235.062 153.228 234.213 153.228 234.213C153.228 234.213 155.654 231.315 154.845 231.248C154.159 231.19 152.941 232.681 152.217 232.971C152.088 233.023 151.972 233.041 151.88 233C151.474 232.819 151.738 232.183 152.217 231.48C152.453 231.134 152.737 230.773 153.026 230.439C153.902 229.361 155.788 227.339 154.508 227.272C154.252 227.272 153.187 227.839 152.217 228.563C151.654 228.983 151.123 229.455 150.802 229.9C149.966 231.057 148.955 233.19 148.688 234.847C146.301 234.585 143.78 234.734 141.368 235.156C138.673 235.628 136.179 236.302 133.753 236.639C131.395 236.975 129.104 236.975 126.88 236.436C125.463 236.093 124.074 235.601 122.694 235.019C122.794 235.32 122.873 235.633 122.904 235.965C122.992 237.038 122.708 238.854 122.231 240.98Z" fill="#B97A59"/>
<path fill-rule="evenodd" clip-rule="evenodd" d="M117.85 318.579C117.494 319.787 116.902 323.276 116.249 327.739C115.46 333.128 114.581 339.935 113.917 345.862C113.689 338.711 113.321 330.911 113.072 326.426C112.985 324.85 112.911 323.677 112.864 323.094C112.864 322.825 112.797 322.554 112.729 322.218C113.678 317.013 114.283 309.269 114.681 301.744C114.687 301.619 114.694 301.494 114.701 301.368C114.722 300.953 114.743 300.54 114.763 300.127C114.985 300.518 115.206 300.909 115.43 301.298C116.055 302.388 116.689 303.463 117.323 304.513C117.566 304.916 117.809 305.315 118.053 305.708C120.105 309.019 120.396 313.174 118.681 316.64C118.65 316.702 118.623 316.766 118.592 316.827C118.572 316.866 118.554 316.91 118.534 316.951C118.285 317.459 118.038 318.017 117.85 318.579ZM113.673 349.711C113.679 349.707 113.683 349.702 113.688 349.697C114.253 350.877 115.253 352.206 116.273 352.568C116.305 352.579 116.336 352.6 116.368 352.609C118.592 346.895 121.47 338.588 123.712 331.903C125.409 326.84 126.743 322.707 127.15 321.342C127.172 321.27 127.193 321.194 127.215 321.121C127.706 319.511 128.185 317.746 128.509 316.022C128.526 315.931 128.549 315.839 128.565 315.749C129.121 314.581 129.288 312.491 129.194 309.875C129.111 307.58 128.826 304.879 128.414 302.019C128.347 301.55 128.276 301.079 128.203 300.603C128.003 299.313 127.782 298.004 127.545 296.693C127.328 295.496 127.1 294.302 126.863 293.123C126.519 291.401 126.16 289.72 125.801 288.125C124.867 283.974 123.943 280.443 123.315 278.448C123.216 278.134 123.122 277.844 123.039 277.609C122.712 276.705 122.285 275.831 121.792 274.999C109.521 278.147 100.576 273.353 98.2844 271.927C97.3673 273.295 96.6435 274.815 96.2197 276.395C95.8659 277.668 96.1072 280.872 96.7473 285.098C97.1968 288.068 97.843 291.54 98.6206 295.21C99.9016 301.255 101.537 307.826 103.228 313.525C103.48 314.379 103.664 315.244 103.797 316.116C103.896 316.77 103.968 317.428 104.004 318.088C104.084 319.6 104.001 321.12 103.767 322.623C103.43 324.711 103.363 326.935 103.497 328.552C103.699 331.046 106.462 341.085 109.09 349.779C109.13 349.937 109.219 350.065 109.338 350.15C109.421 350.209 109.518 350.251 109.629 350.251C111.044 350.587 112.392 350.519 113.673 349.711Z" fill="#0B4870"/>
<path fill-rule="evenodd" clip-rule="evenodd" d="M121.792 274.999C122.072 274.928 122.351 274.859 122.635 274.779C123.107 272.015 121.691 265.143 119.872 260.83C118.794 258.336 118.524 255.574 119.131 252.945C119.396 251.666 119.753 250.203 120.153 248.67C120.925 246.114 121.699 243.353 122.231 240.98C122.708 238.853 122.992 237.038 122.904 235.965C122.873 235.633 122.795 235.321 122.694 235.018C122.288 233.793 121.354 232.847 120.157 232.431C119.729 232.282 119.274 232.191 118.794 232.191H118.524H116.57H113.78L113.807 233.135L107.473 232.461L107.552 232.191H106.462H104.71H104.373C102.41 232.191 100.745 233.619 100.496 235.581C100.475 235.676 100.458 235.774 100.443 235.871C100.569 235.79 100.693 235.709 100.802 235.628C100.937 235.493 101.139 235.425 101.274 235.291L101.678 235.022L101.813 234.887C102.824 234.077 104.306 234.28 105.115 235.291C105.856 236.302 105.721 237.717 104.71 238.526C104.441 238.728 104.239 238.862 104.036 239.065C103.834 239.199 103.632 239.333 103.43 239.468C103.026 239.738 102.621 240.007 102.217 240.21C101.731 240.494 101.216 240.751 100.696 241.001C101.076 245.367 101.823 250.809 102.284 254.226C102.409 255 102.459 255.792 102.436 256.586C102.396 257.935 102.144 259.288 101.678 260.56L97.7022 271.544C97.7022 271.544 97.9057 271.691 98.2845 271.926C100.576 273.353 109.521 278.147 121.792 274.999Z" fill="#FDB32A"/>
<path fill-rule="evenodd" clip-rule="evenodd" d="M112.46 230.911C110.977 230.911 109.832 228.62 108.888 227.609L108.946 227.404L107.552 232.191L107.473 232.461L113.807 233.135L113.78 232.191L113.733 230.511C113.331 230.777 112.929 230.911 112.46 230.911Z" fill="#B97A59"/>
<path fill-rule="evenodd" clip-rule="evenodd" d="M112.46 230.911C112.929 230.911 113.331 230.777 113.733 230.511L113.74 230.507L113.706 229.359C112.366 229.348 110.956 228.722 109.032 227.1L108.946 227.404L108.888 227.609C109.832 228.62 110.977 230.911 112.46 230.911Z" fill="#AA6B4F"/>
<path fill-rule="evenodd" clip-rule="evenodd" d="M113.706 229.359C113.717 229.359 113.729 229.361 113.74 229.361C114.818 229.361 116.57 225.857 117.109 223.161C117.234 222.61 117.317 222.059 117.373 221.519C116.434 220.281 115.927 218.958 115.659 217.934C115.098 218.646 113.952 219.467 111.449 220.668C108.747 221.948 107.044 222.272 105.796 222.668C106.071 223.285 106.454 223.778 106.848 223.882C107.164 224.959 107.867 226.129 108.753 226.868C108.849 226.951 108.938 227.021 109.032 227.099C110.956 228.721 112.366 229.348 113.706 229.359Z" fill="#B97A59"/>
<path fill-rule="evenodd" clip-rule="evenodd" d="M81.533 241.123C81.9731 241.325 82.4198 241.517 82.8774 241.692C86.3814 243.04 90.2898 243.58 94.1307 243.04C96.0175 242.703 97.9043 242.232 99.6563 241.49C100.005 241.33 100.351 241.165 100.695 241C101.216 240.751 101.73 240.494 102.217 240.211C102.621 240.008 103.026 239.738 103.43 239.469C103.632 239.334 103.834 239.2 104.036 239.064C104.239 238.862 104.441 238.727 104.71 238.525C105.721 237.717 105.856 236.302 105.115 235.291C104.306 234.28 102.823 234.078 101.813 234.886L101.678 235.021L101.274 235.291C101.139 235.426 100.937 235.493 100.802 235.628C100.694 235.709 100.569 235.79 100.443 235.872C100.256 235.992 100.06 236.113 99.8585 236.234C99.1846 236.638 98.4434 236.975 97.7695 237.312C96.3545 237.919 94.872 238.458 93.3221 238.727C91.7722 238.997 90.2224 239.132 88.6725 239.064C87.1226 238.997 85.5728 238.66 84.0229 238.256C82.8342 237.92 81.6759 237.463 80.5465 236.92C78.7311 236.046 76.9919 234.946 75.3302 233.741C75.1341 233.594 74.9495 233.433 74.7567 233.283C72.9346 231.864 71.2231 230.301 69.5748 228.618C69.6065 228.572 69.6381 228.532 69.6698 228.485C70.3437 227.474 68.12 224.509 68.12 224.509C68.12 224.509 68.0169 224.267 67.8592 223.926L64.6152 226.955C65.3113 227.797 66.1166 228.588 66.907 229.091C67.4104 229.427 67.8167 229.568 68.1664 229.574C69.7931 231.773 71.6166 233.89 73.6456 235.762C73.7439 235.851 73.845 235.936 73.9441 236.024C75.2028 237.139 76.5216 238.194 77.9582 239.132C79.1038 239.878 80.2864 240.55 81.533 241.123Z" fill="#B97A59"/>
<path fill-rule="evenodd" clip-rule="evenodd" d="M118.726 366.692C115.155 366.962 111.988 364.94 109.697 361.908C109.617 361.801 109.505 361.761 109.391 361.751C109.217 361.737 109.037 361.812 108.955 361.975C108.618 362.649 108.147 363.526 107.945 363.863C107.742 364.266 107.877 364.805 108.214 365.076C108.214 365.076 108.471 365.39 109.368 365.952C109.205 366.619 109.546 367.338 110.236 367.569C110.298 367.59 110.365 367.613 110.43 367.636H120.034C119.662 367.243 119.209 366.896 118.726 366.692Z" fill="#0B4870"/>
<path fill-rule="evenodd" clip-rule="evenodd" d="M42.8505 254.024C38.0662 255.843 32.608 253.485 30.7886 248.633C28.9691 243.848 31.3276 238.391 36.1794 236.571C40.9638 234.751 46.422 237.11 48.2414 241.962C50.0608 246.814 47.6349 252.205 42.8505 254.024ZM73.9819 218.209L92.7832 200.655L97.6349 205.439L102.487 200.52L98.6457 196.679L100.128 194.927L104.104 198.499L107.473 194.657L103.295 190.817L105.249 188.997L100.869 184.212L71.4483 211.12L47.2306 233.27C43.5244 230.911 38.8074 230.305 34.36 231.989C26.9476 234.819 23.2414 243.108 26.139 250.52C29.0365 257.933 37.2576 261.639 44.67 258.741C52.0824 255.911 55.7886 247.623 52.891 240.21C52.6888 239.67 52.4193 239.131 52.1497 238.593L64.6154 226.954L67.8586 223.926L73.9819 218.209Z" fill="#C5D6F1"/>
<rect x="120" y="799" width="134" height="5" rx="2.5" fill="#CFD2D8"/>
<path d="M107.936 68.19H114.696C116.516 68.19 117.877 68.5627 118.778 69.308C119.679 70.036 120.13 71.206 120.13 72.818C120.13 73.8753 119.957 74.7073 119.61 75.314C119.281 75.9207 118.752 76.4233 118.024 76.822C119.723 77.4807 120.572 78.8587 120.572 80.956C120.572 84.3187 118.683 86 114.904 86H107.936V68.19ZM114.696 78.226H110.822V83.504H114.748C115.701 83.504 116.412 83.3047 116.88 82.906C117.365 82.5073 117.608 81.8227 117.608 80.852C117.608 79.8813 117.331 79.2053 116.776 78.824C116.221 78.4253 115.528 78.226 114.696 78.226ZM114.54 70.686H110.822V75.782H114.644C116.343 75.782 117.192 74.9067 117.192 73.156C117.192 71.5093 116.308 70.686 114.54 70.686ZM132.774 83.66L133.502 83.582L133.554 85.688C131.578 86.0867 129.827 86.286 128.302 86.286C126.378 86.286 124.991 85.7573 124.142 84.7C123.31 83.6427 122.894 81.9527 122.894 79.63C122.894 75.0193 124.774 72.714 128.536 72.714C132.176 72.714 133.996 74.6987 133.996 78.668L133.814 80.696H125.754C125.771 81.7707 126.005 82.5593 126.456 83.062C126.906 83.5647 127.747 83.816 128.978 83.816C130.208 83.816 131.474 83.764 132.774 83.66ZM131.214 78.512C131.214 77.2293 131.006 76.3367 130.59 75.834C130.191 75.314 129.506 75.054 128.536 75.054C127.565 75.054 126.854 75.3227 126.404 75.86C125.97 76.3973 125.745 77.2813 125.728 78.512H131.214ZM139.555 86H136.721V73H139.529V73.806C140.76 73.078 141.886 72.714 142.909 72.714C144.417 72.714 145.518 73.1387 146.211 73.988C147.788 73.1387 149.357 72.714 150.917 72.714C152.477 72.714 153.578 73.1993 154.219 74.17C154.86 75.1233 155.181 76.744 155.181 79.032V86H152.373V79.11C152.373 77.706 152.226 76.7093 151.931 76.12C151.654 75.5307 151.064 75.236 150.163 75.236C149.383 75.236 148.542 75.4093 147.641 75.756L147.199 75.938C147.338 76.2847 147.407 77.394 147.407 79.266V86H144.599V79.318C144.599 77.7753 144.46 76.7093 144.183 76.12C143.906 75.5307 143.299 75.236 142.363 75.236C141.496 75.236 140.69 75.4093 139.945 75.756L139.555 75.912V86ZM158.376 80.28V77.706H166.15V80.28H158.376ZM167.948 73H170.912L173.408 83.582H174.24L176.84 73H179.726L176.346 86H171.302L167.948 73ZM181.942 86V73H184.776V86H181.942ZM181.942 70.79V67.8H184.776V70.79H181.942ZM191.047 86H188.213V73H191.021V73.806C192.286 73.078 193.482 72.714 194.609 72.714C196.342 72.714 197.521 73.208 198.145 74.196C198.786 75.1667 199.107 76.7787 199.107 79.032V86H196.299V79.11C196.299 77.706 196.143 76.7093 195.831 76.12C195.536 75.5307 194.921 75.236 193.985 75.236C193.101 75.236 192.252 75.4093 191.437 75.756L191.047 75.912V86ZM213.014 67.592V86H210.206V85.324C208.941 85.9653 207.78 86.286 206.722 86.286C205.024 86.286 203.776 85.7747 202.978 84.752C202.198 83.7293 201.808 82.0133 201.808 79.604C201.808 77.1947 202.242 75.444 203.108 74.352C203.992 73.26 205.362 72.714 207.216 72.714C207.84 72.714 208.828 72.8267 210.18 73.052V67.592H213.014ZM209.738 83.296L210.18 83.114V75.418C209.14 75.2447 208.178 75.158 207.294 75.158C205.544 75.158 204.668 76.614 204.668 79.526C204.668 81.1207 204.868 82.23 205.266 82.854C205.682 83.4607 206.332 83.764 207.216 83.764C208.1 83.764 208.941 83.608 209.738 83.296ZM217.149 74.404C218.051 73.2773 219.541 72.714 221.621 72.714C223.701 72.714 225.183 73.2773 226.067 74.404C226.969 75.5307 227.419 77.2207 227.419 79.474C227.419 81.7273 226.986 83.426 226.119 84.57C225.253 85.714 223.753 86.286 221.621 86.286C219.489 86.286 217.99 85.714 217.123 84.57C216.257 83.426 215.823 81.7273 215.823 79.474C215.823 77.2207 216.265 75.5307 217.149 74.404ZM219.281 82.854C219.68 83.5473 220.46 83.894 221.621 83.894C222.783 83.894 223.563 83.5473 223.961 82.854C224.36 82.1607 224.559 81.0253 224.559 79.448C224.559 77.8707 224.343 76.7527 223.909 76.094C223.493 75.4353 222.731 75.106 221.621 75.106C220.512 75.106 219.741 75.4353 219.307 76.094C218.891 76.7527 218.683 77.8707 218.683 79.448C218.683 81.0253 218.883 82.1607 219.281 82.854ZM233.537 72.324C233.017 74.716 232.757 76.666 232.757 78.174C232.757 79.682 232.956 81.3633 233.355 83.218C233.771 85.0553 234.187 86.52 234.603 87.612L235.227 89.25H232.549C232.306 88.8513 231.994 88.184 231.613 87.248C231.231 86.3293 230.911 85.4627 230.651 84.648C230.391 83.816 230.157 82.8107 229.949 81.632C229.741 80.436 229.637 79.1187 229.637 77.68C229.637 76.2413 229.879 74.5513 230.365 72.61C230.85 70.6687 231.335 69.1693 231.821 68.112L232.549 66.5H235.227C234.637 67.9907 234.074 69.932 233.537 72.324ZM247.142 77.004V82.932C247.159 83.3133 247.254 83.5993 247.428 83.79C247.618 83.9633 247.904 84.076 248.286 84.128L248.208 86.286C246.717 86.286 245.564 85.9653 244.75 85.324C243.363 85.9653 241.968 86.286 240.564 86.286C237.981 86.286 236.69 84.908 236.69 82.152C236.69 80.8347 237.036 79.8813 237.73 79.292C238.44 78.7027 239.524 78.3473 240.98 78.226L244.334 77.94V77.004C244.334 76.3107 244.178 75.8253 243.866 75.548C243.571 75.2707 243.129 75.132 242.54 75.132C241.43 75.132 240.044 75.2013 238.38 75.34L237.548 75.392L237.444 73.39C239.333 72.9393 241.066 72.714 242.644 72.714C244.238 72.714 245.382 73.0607 246.076 73.754C246.786 74.43 247.142 75.5133 247.142 77.004ZM241.318 80.228C240.122 80.332 239.524 80.982 239.524 82.178C239.524 83.374 240.052 83.972 241.11 83.972C241.976 83.972 242.895 83.8333 243.866 83.556L244.334 83.4V79.942L241.318 80.228ZM255.067 74.664C255.275 75.8947 255.379 77.0647 255.379 78.174C255.379 79.2833 255.275 80.4273 255.067 81.606C254.877 82.7673 254.634 83.7813 254.339 84.648C253.75 86.4853 253.23 87.8373 252.779 88.704L252.467 89.25H249.789C249.98 88.7993 250.205 88.1927 250.465 87.43C250.743 86.6847 251.107 85.3327 251.557 83.374C252.025 81.4153 252.259 79.682 252.259 78.174C252.259 76.666 252.051 74.9413 251.635 73C251.237 71.0413 250.829 69.464 250.413 68.268L249.789 66.5H252.467C252.71 66.9507 253.022 67.6787 253.403 68.684C253.785 69.6893 254.105 70.634 254.365 71.518C254.625 72.3847 254.859 73.4333 255.067 74.664ZM264.136 86V82.36H267.178V86H264.136ZM264.422 79.734L264.162 68.19H267.178L266.918 79.734H264.422Z" fill="#0D1F3C"/>
<rect opacity="0.35" x="336.833" y="17.8333" width="21" height="10.3333" rx="2.16667" stroke="black"/>
<path opacity="0.4" d="M359.333 21V25C360.138 24.6612 360.661 23.8731 360.661 23C360.661 22.1269 360.138 21.3388 359.333 21Z" fill="black"/>
<rect x="338.333" y="19.3333" width="18" height="7.33333" rx="1.33333" fill="black"/>
<path fill-rule="evenodd" clip-rule="evenodd" d="M323.667 19.6151C325.892 19.6152 328.031 20.4693 329.644 22.0009C329.765 22.1192 329.959 22.1177 330.079 21.9976L331.239 20.8273C331.3 20.7663 331.334 20.6838 331.333 20.598C331.333 20.5121 331.298 20.43 331.237 20.3698C327.005 16.3176 320.329 16.3176 316.097 20.3698C316.035 20.43 316.001 20.5121 316 20.5979C315.999 20.6838 316.033 20.7663 316.094 20.8273L317.255 21.9976C317.374 22.1179 317.568 22.1194 317.69 22.0009C319.302 20.4692 321.442 19.6151 323.667 19.6151ZM323.667 23.4227C324.889 23.4226 326.068 23.8766 326.974 24.6964C327.097 24.8127 327.29 24.8102 327.409 24.6907L328.569 23.5204C328.63 23.459 328.663 23.3757 328.663 23.2892C328.662 23.2026 328.626 23.1201 328.564 23.0599C325.805 20.4955 321.532 20.4955 318.773 23.0599C318.71 23.1201 318.675 23.2027 318.674 23.2892C318.673 23.3758 318.707 23.4591 318.768 23.5204L319.927 24.6907C320.047 24.8102 320.24 24.8127 320.362 24.6964C321.268 23.8771 322.446 23.4232 323.667 23.4227ZM325.989 25.9846C325.991 26.0713 325.957 26.155 325.895 26.2158L323.89 28.2378C323.831 28.2972 323.751 28.3307 323.667 28.3307C323.583 28.3307 323.503 28.2972 323.445 28.2378L321.439 26.2158C321.377 26.155 321.343 26.0713 321.345 25.9845C321.347 25.8977 321.384 25.8155 321.449 25.7574C322.729 24.6751 324.605 24.6751 325.886 25.7574C325.95 25.8156 325.988 25.8978 325.989 25.9846Z" fill="black"/>
<path fill-rule="evenodd" clip-rule="evenodd" d="M310 17.6667H309C308.448 17.6667 308 18.1144 308 18.6667V27.3333C308 27.8856 308.448 28.3333 309 28.3333H310C310.552 28.3333 311 27.8856 311 27.3333V18.6667C311 18.1144 310.552 17.6667 310 17.6667ZM304.333 20H305.333C305.886 20 306.333 20.4477 306.333 21V27.3333C306.333 27.8856 305.886 28.3333 305.333 28.3333H304.333C303.781 28.3333 303.333 27.8856 303.333 27.3333V21C303.333 20.4477 303.781 20 304.333 20ZM300.667 22.3333H299.667C299.114 22.3333 298.667 22.781 298.667 23.3333V27.3333C298.667 27.8856 299.114 28.3333 299.667 28.3333H300.667C301.219 28.3333 301.667 27.8856 301.667 27.3333V23.3333C301.667 22.781 301.219 22.3333 300.667 22.3333ZM296 24.3333H295C294.448 24.3333 294 24.781 294 25.3333V27.3333C294 27.8856 294.448 28.3333 295 28.3333H296C296.552 28.3333 297 27.8856 297 27.3333V25.3333C297 24.781 296.552 24.3333 296 24.3333Z" fill="black"/>
</svg>
