<svg width="375" height="812" viewBox="0 0 375 812" fill="none" xmlns="http://www.w3.org/2000/svg">
<rect width="375" height="812" fill="#347AF0"/>
<rect x="76.1194" y="666" width="224" height="46" rx="23" fill="white"/>
<path d="M149.237 696.209C147.337 696.209 146.045 695.683 145.361 694.632C144.689 693.581 144.354 691.852 144.354 689.445C144.354 687.038 144.696 685.328 145.38 684.315C146.064 683.289 147.349 682.776 149.237 682.776C150.364 682.776 151.605 682.934 152.961 683.251L152.885 684.961C151.745 684.758 150.605 684.657 149.465 684.657C148.325 684.657 147.552 684.999 147.147 685.683C146.741 686.354 146.539 687.627 146.539 689.502C146.539 691.364 146.735 692.637 147.128 693.321C147.52 693.992 148.287 694.328 149.427 694.328C150.567 694.328 151.719 694.233 152.885 694.043L152.942 695.791C151.637 696.07 150.402 696.209 149.237 696.209ZM154.954 696V686.5H157.006V687.64C158.083 686.943 159.16 686.494 160.236 686.291V688.362C159.147 688.577 158.216 688.856 157.443 689.198L157.025 689.369V696H154.954ZM161.82 696V686.5H163.891V696H161.82ZM161.82 684.885V682.7H163.891V684.885H161.82ZM173.433 689.426V693.758C173.445 694.037 173.515 694.246 173.642 694.385C173.781 694.512 173.99 694.594 174.269 694.632L174.212 696.209C173.122 696.209 172.28 695.975 171.685 695.506C170.671 695.975 169.652 696.209 168.626 696.209C166.738 696.209 165.795 695.202 165.795 693.188C165.795 692.225 166.048 691.529 166.555 691.098C167.074 690.667 167.866 690.408 168.93 690.319L171.381 690.11V689.426C171.381 688.919 171.267 688.565 171.039 688.362C170.823 688.159 170.5 688.058 170.07 688.058C169.259 688.058 168.246 688.109 167.03 688.21L166.422 688.248L166.346 686.785C167.726 686.456 168.993 686.291 170.146 686.291C171.311 686.291 172.147 686.544 172.654 687.051C173.173 687.545 173.433 688.337 173.433 689.426ZM169.177 691.782C168.303 691.858 167.866 692.333 167.866 693.207C167.866 694.081 168.252 694.518 169.025 694.518C169.658 694.518 170.329 694.417 171.039 694.214L171.381 694.1V691.573L169.177 691.782ZM176.033 696V686.5H178.085V687.64C179.161 686.943 180.238 686.494 181.315 686.291V688.362C180.225 688.577 179.294 688.856 178.522 689.198L178.104 689.369V696H176.033ZM191.69 696.209C189.79 696.209 188.498 695.683 187.814 694.632C187.142 693.581 186.807 691.852 186.807 689.445C186.807 687.038 187.149 685.328 187.833 684.315C188.517 683.289 189.802 682.776 191.69 682.776C192.817 682.776 194.058 682.934 195.414 683.251L195.338 684.961C194.198 684.758 193.058 684.657 191.918 684.657C190.778 684.657 190.005 684.999 189.6 685.683C189.194 686.354 188.992 687.627 188.992 689.502C188.992 691.364 189.188 692.637 189.581 693.321C189.973 693.992 190.74 694.328 191.88 694.328C193.02 694.328 194.172 694.233 195.338 694.043L195.395 695.791C194.09 696.07 192.855 696.209 191.69 696.209ZM197.754 687.526C198.412 686.703 199.502 686.291 201.022 686.291C202.542 686.291 203.625 686.703 204.271 687.526C204.929 688.349 205.259 689.584 205.259 691.231C205.259 692.878 204.942 694.119 204.309 694.955C203.675 695.791 202.58 696.209 201.022 696.209C199.464 696.209 198.368 695.791 197.735 694.955C197.101 694.119 196.785 692.878 196.785 691.231C196.785 689.584 197.108 688.349 197.754 687.526ZM199.312 693.701C199.603 694.208 200.173 694.461 201.022 694.461C201.87 694.461 202.44 694.208 202.732 693.701C203.023 693.194 203.169 692.365 203.169 691.212C203.169 690.059 203.01 689.242 202.694 688.761C202.39 688.28 201.832 688.039 201.022 688.039C200.211 688.039 199.647 688.28 199.331 688.761C199.027 689.242 198.875 690.059 198.875 691.212C198.875 692.365 199.02 693.194 199.312 693.701ZM209.387 696H207.316V686.5H209.368V687.089C210.292 686.557 211.166 686.291 211.99 686.291C213.256 686.291 214.118 686.652 214.574 687.374C215.042 688.083 215.277 689.261 215.277 690.908V696H213.225V690.965C213.225 689.939 213.111 689.211 212.883 688.78C212.667 688.349 212.218 688.134 211.534 688.134C210.888 688.134 210.267 688.261 209.672 688.514L209.387 688.628V696ZM222.799 688.267H220.177V692.447C220.177 693.22 220.234 693.733 220.348 693.986C220.462 694.239 220.753 694.366 221.222 694.366L222.78 694.309L222.875 695.962C222.026 696.127 221.38 696.209 220.937 696.209C219.86 696.209 219.119 695.962 218.714 695.468C218.321 694.974 218.125 694.043 218.125 692.675V688.267H216.909V686.5H218.125V683.745H220.177V686.5H222.799V688.267ZM231.527 689.426V693.758C231.54 694.037 231.61 694.246 231.736 694.385C231.876 694.512 232.085 694.594 232.363 694.632L232.306 696.209C231.217 696.209 230.375 695.975 229.779 695.506C228.766 695.975 227.746 696.209 226.72 696.209C224.833 696.209 223.889 695.202 223.889 693.188C223.889 692.225 224.143 691.529 224.649 691.098C225.169 690.667 225.96 690.408 227.024 690.319L229.475 690.11V689.426C229.475 688.919 229.361 688.565 229.133 688.362C228.918 688.159 228.595 688.058 228.164 688.058C227.354 688.058 226.34 688.109 225.124 688.21L224.516 688.248L224.44 686.785C225.821 686.456 227.088 686.291 228.24 686.291C229.406 686.291 230.242 686.544 230.748 687.051C231.268 687.545 231.527 688.337 231.527 689.426ZM227.271 691.782C226.397 691.858 225.96 692.333 225.96 693.207C225.96 694.081 226.347 694.518 227.119 694.518C227.753 694.518 228.424 694.417 229.133 694.214L229.475 694.1V691.573L227.271 691.782Z" fill="#347AF0"/>
<path d="M94.5517 747.08V746.045C95.2717 746.045 95.7317 745.96 95.9317 745.79C96.1417 745.61 96.2467 745.15 96.2467 744.41V735.62H97.3867L97.4017 744.575C97.4017 745.415 97.2617 746.03 96.9817 746.42C96.7517 746.75 96.2967 746.955 95.6167 747.035C95.3467 747.065 94.9917 747.08 94.5517 747.08ZM104.993 740.765V744.605C105.023 744.975 105.313 745.195 105.863 745.265L105.818 746.15C105.028 746.15 104.433 745.95 104.033 745.55C103.133 745.95 102.233 746.15 101.333 746.15C100.643 746.15 100.118 745.955 99.7577 745.565C99.3977 745.175 99.2177 744.615 99.2177 743.885C99.2177 743.155 99.4027 742.62 99.7727 742.28C100.143 741.93 100.723 741.715 101.513 741.635L103.868 741.41V740.765C103.868 740.255 103.758 739.89 103.538 739.67C103.318 739.45 103.018 739.34 102.638 739.34C101.838 739.34 101.008 739.39 100.148 739.49L99.6827 739.535L99.6377 738.68C100.738 738.46 101.713 738.35 102.563 738.35C103.413 738.35 104.028 738.545 104.408 738.935C104.798 739.325 104.993 739.935 104.993 740.765ZM100.373 743.825C100.373 744.745 100.753 745.205 101.513 745.205C102.193 745.205 102.863 745.09 103.523 744.86L103.868 744.74V742.265L101.648 742.475C101.198 742.515 100.873 742.645 100.673 742.865C100.473 743.085 100.373 743.405 100.373 743.825ZM100.388 736.37L103.628 734.9L104.018 735.86L100.703 737.135L100.388 736.37ZM110.508 749.33V738.5H111.618V739.04C112.378 738.58 113.128 738.35 113.868 738.35C114.818 738.35 115.508 738.655 115.938 739.265C116.368 739.865 116.583 740.86 116.583 742.25C116.583 743.64 116.328 744.64 115.818 745.25C115.318 745.85 114.483 746.15 113.313 746.15C112.703 746.15 112.143 746.095 111.633 745.985V749.33H110.508ZM113.703 739.355C113.403 739.355 113.078 739.405 112.728 739.505C112.388 739.605 112.118 739.705 111.918 739.805L111.633 739.955V745.01C112.343 745.12 112.883 745.175 113.253 745.175C114.063 745.175 114.628 744.945 114.948 744.485C115.278 744.025 115.443 743.275 115.443 742.235C115.443 741.195 115.293 740.455 114.993 740.015C114.703 739.575 114.273 739.355 113.703 739.355ZM118.088 742.235C118.088 740.865 118.333 739.875 118.823 739.265C119.313 738.655 120.138 738.35 121.298 738.35C122.468 738.35 123.293 738.655 123.773 739.265C124.263 739.875 124.508 740.865 124.508 742.235C124.508 743.605 124.278 744.6 123.818 745.22C123.358 745.84 122.518 746.15 121.298 746.15C120.078 746.15 119.238 745.84 118.778 745.22C118.318 744.6 118.088 743.605 118.088 742.235ZM119.243 742.22C119.243 743.31 119.373 744.075 119.633 744.515C119.903 744.955 120.458 745.175 121.298 745.175C122.148 745.175 122.703 744.96 122.963 744.53C123.223 744.09 123.353 743.32 123.353 742.22C123.353 741.12 123.208 740.365 122.918 739.955C122.628 739.535 122.088 739.325 121.298 739.325C120.518 739.325 119.978 739.535 119.678 739.955C119.388 740.365 119.243 741.12 119.243 742.22ZM128.698 739.355C127.608 739.355 127.063 739.735 127.063 740.495C127.063 740.845 127.188 741.095 127.438 741.245C127.688 741.385 128.258 741.535 129.148 741.695C130.038 741.845 130.668 742.06 131.038 742.34C131.408 742.62 131.593 743.145 131.593 743.915C131.593 744.685 131.343 745.25 130.843 745.61C130.353 745.97 129.633 746.15 128.683 746.15C128.063 746.15 127.333 746.08 126.493 745.94L126.043 745.865L126.103 744.89C127.243 745.06 128.103 745.145 128.683 745.145C129.263 745.145 129.703 745.055 130.003 744.875C130.313 744.685 130.468 744.375 130.468 743.945C130.468 743.505 130.338 743.21 130.078 743.06C129.818 742.9 129.248 742.75 128.368 742.61C127.488 742.47 126.863 742.265 126.493 741.995C126.123 741.725 125.938 741.225 125.938 740.495C125.938 739.765 126.193 739.225 126.703 738.875C127.223 738.525 127.868 738.35 128.638 738.35C129.248 738.35 130.013 738.42 130.933 738.56L131.353 738.635L131.323 739.595C130.213 739.435 129.338 739.355 128.698 739.355ZM135.671 739.355C134.581 739.355 134.036 739.735 134.036 740.495C134.036 740.845 134.161 741.095 134.411 741.245C134.661 741.385 135.231 741.535 136.121 741.695C137.011 741.845 137.641 742.06 138.011 742.34C138.381 742.62 138.566 743.145 138.566 743.915C138.566 744.685 138.316 745.25 137.816 745.61C137.326 745.97 136.606 746.15 135.656 746.15C135.036 746.15 134.306 746.08 133.466 745.94L133.016 745.865L133.076 744.89C134.216 745.06 135.076 745.145 135.656 745.145C136.236 745.145 136.676 745.055 136.976 744.875C137.286 744.685 137.441 744.375 137.441 743.945C137.441 743.505 137.311 743.21 137.051 743.06C136.791 742.9 136.221 742.75 135.341 742.61C134.461 742.47 133.836 742.265 133.466 741.995C133.096 741.725 132.911 741.225 132.911 740.495C132.911 739.765 133.166 739.225 133.676 738.875C134.196 738.525 134.841 738.35 135.611 738.35C136.221 738.35 136.986 738.42 137.906 738.56L138.326 738.635L138.296 739.595C137.186 739.435 136.311 739.355 135.671 739.355ZM144.968 738.5H146.093V746H144.968V745.475C144.218 745.925 143.478 746.15 142.748 746.15C141.728 746.15 141.048 745.885 140.708 745.355C140.378 744.825 140.213 743.845 140.213 742.415V738.5H141.338V742.4C141.338 743.49 141.433 744.22 141.623 744.59C141.813 744.96 142.243 745.145 142.913 745.145C143.243 745.145 143.578 745.1 143.918 745.01C144.258 744.91 144.518 744.815 144.698 744.725L144.968 744.59V738.5ZM148.257 746V738.5H149.382V746H148.257ZM148.257 736.805V735.5H149.382V736.805H148.257ZM159.514 738.5H160.639V746H159.514V745.475C158.764 745.925 158.024 746.15 157.294 746.15C156.274 746.15 155.594 745.885 155.254 745.355C154.924 744.825 154.759 743.845 154.759 742.415V738.5H155.884V742.4C155.884 743.49 155.979 744.22 156.169 744.59C156.359 744.96 156.789 745.145 157.459 745.145C157.789 745.145 158.124 745.1 158.464 745.01C158.804 744.91 159.064 744.815 159.244 744.725L159.514 744.59V738.5ZM163.928 746H162.803V738.5H163.913V739.025C164.663 738.575 165.393 738.35 166.103 738.35C167.033 738.35 167.683 738.605 168.053 739.115C168.383 738.915 168.808 738.74 169.328 738.59C169.858 738.43 170.323 738.35 170.723 738.35C171.723 738.35 172.393 738.62 172.733 739.16C173.083 739.69 173.258 740.65 173.258 742.04V746H172.133V742.07C172.133 741.03 172.033 740.32 171.833 739.94C171.633 739.55 171.208 739.355 170.558 739.355C170.228 739.355 169.888 739.405 169.538 739.505C169.188 739.595 168.918 739.685 168.728 739.775L168.443 739.91C168.573 740.24 168.638 740.97 168.638 742.1V746H167.513V742.13C167.513 741.05 167.413 740.32 167.213 739.94C167.023 739.55 166.598 739.355 165.938 739.355C165.618 739.355 165.288 739.405 164.948 739.505C164.618 739.595 164.363 739.685 164.183 739.775L163.928 739.91V746ZM180.637 740.765V744.605C180.667 744.975 180.957 745.195 181.507 745.265L181.462 746.15C180.672 746.15 180.077 745.95 179.677 745.55C178.777 745.95 177.877 746.15 176.977 746.15C176.287 746.15 175.762 745.955 175.402 745.565C175.042 745.175 174.862 744.615 174.862 743.885C174.862 743.155 175.047 742.62 175.417 742.28C175.787 741.93 176.367 741.715 177.157 741.635L179.512 741.41V740.765C179.512 740.255 179.402 739.89 179.182 739.67C178.962 739.45 178.662 739.34 178.282 739.34C177.482 739.34 176.652 739.39 175.792 739.49L175.327 739.535L175.282 738.68C176.382 738.46 177.357 738.35 178.207 738.35C179.057 738.35 179.672 738.545 180.052 738.935C180.442 739.325 180.637 739.935 180.637 740.765ZM176.017 743.825C176.017 744.745 176.397 745.205 177.157 745.205C177.837 745.205 178.507 745.09 179.167 744.86L179.512 744.74V742.265L177.292 742.475C176.842 742.515 176.517 742.645 176.317 742.865C176.117 743.085 176.017 743.405 176.017 743.825ZM188.958 738.35C189.288 738.35 189.848 738.41 190.638 738.53L190.998 738.575L190.953 739.49C190.153 739.4 189.563 739.355 189.183 739.355C188.333 739.355 187.753 739.56 187.443 739.97C187.143 740.37 186.993 741.12 186.993 742.22C186.993 743.31 187.133 744.07 187.413 744.5C187.703 744.93 188.298 745.145 189.198 745.145L190.968 745.01L191.013 745.94C190.083 746.08 189.388 746.15 188.928 746.15C187.758 746.15 186.948 745.85 186.498 745.25C186.058 744.65 185.838 743.64 185.838 742.22C185.838 740.79 186.078 739.79 186.558 739.22C187.038 738.64 187.838 738.35 188.958 738.35ZM192.268 742.235C192.268 740.865 192.513 739.875 193.003 739.265C193.493 738.655 194.318 738.35 195.478 738.35C196.648 738.35 197.473 738.655 197.953 739.265C198.443 739.875 198.688 740.865 198.688 742.235C198.688 743.605 198.458 744.6 197.998 745.22C197.538 745.84 196.698 746.15 195.478 746.15C194.258 746.15 193.418 745.84 192.958 745.22C192.498 744.6 192.268 743.605 192.268 742.235ZM193.423 742.22C193.423 743.31 193.553 744.075 193.813 744.515C194.083 744.955 194.638 745.175 195.478 745.175C196.328 745.175 196.883 744.96 197.143 744.53C197.403 744.09 197.533 743.32 197.533 742.22C197.533 741.12 197.388 740.365 197.098 739.955C196.808 739.535 196.268 739.325 195.478 739.325C194.698 739.325 194.158 739.535 193.858 739.955C193.568 740.365 193.423 741.12 193.423 742.22ZM201.648 746H200.523V738.5H201.633V739.025C202.443 738.575 203.218 738.35 203.958 738.35C204.958 738.35 205.628 738.62 205.968 739.16C206.318 739.7 206.493 740.66 206.493 742.04V746H205.383V742.07C205.383 741.03 205.278 740.32 205.068 739.94C204.868 739.55 204.433 739.355 203.763 739.355C203.443 739.355 203.103 739.405 202.743 739.505C202.393 739.595 202.123 739.685 201.933 739.775L201.648 739.91V746ZM212.421 739.475H210.036V743.06C210.036 743.92 210.096 744.485 210.216 744.755C210.346 745.025 210.646 745.16 211.116 745.16L212.451 745.07L212.526 746C211.856 746.11 211.346 746.165 210.996 746.165C210.216 746.165 209.676 745.975 209.376 745.595C209.076 745.215 208.926 744.49 208.926 743.42V739.475H207.861V738.5H208.926V736.205H210.036V738.5H212.421V739.475ZM219.089 740.765V744.605C219.119 744.975 219.409 745.195 219.959 745.265L219.914 746.15C219.124 746.15 218.529 745.95 218.129 745.55C217.229 745.95 216.329 746.15 215.429 746.15C214.739 746.15 214.214 745.955 213.854 745.565C213.494 745.175 213.314 744.615 213.314 743.885C213.314 743.155 213.499 742.62 213.869 742.28C214.239 741.93 214.819 741.715 215.609 741.635L217.964 741.41V740.765C217.964 740.255 217.854 739.89 217.634 739.67C217.414 739.45 217.114 739.34 216.734 739.34C215.934 739.34 215.104 739.39 214.244 739.49L213.779 739.535L213.734 738.68C214.834 738.46 215.809 738.35 216.659 738.35C217.509 738.35 218.124 738.545 218.504 738.935C218.894 739.325 219.089 739.935 219.089 740.765ZM214.469 743.825C214.469 744.745 214.849 745.205 215.609 745.205C216.289 745.205 216.959 745.09 217.619 744.86L217.964 744.74V742.265L215.744 742.475C215.294 742.515 214.969 742.645 214.769 742.865C214.569 743.085 214.469 743.405 214.469 743.825ZM226.099 737.87C226.099 738.52 226.009 739.015 225.829 739.355C225.659 739.685 225.304 740.075 224.764 740.525C224.234 740.965 223.869 741.32 223.669 741.59C223.469 741.85 223.369 742.14 223.369 742.46V742.985H222.424C222.294 742.715 222.229 742.41 222.229 742.07C222.229 741.73 222.344 741.415 222.574 741.125C222.804 740.825 223.174 740.455 223.684 740.015C224.194 739.575 224.534 739.225 224.704 738.965C224.874 738.705 224.959 738.345 224.959 737.885C224.959 737.415 224.799 737.065 224.479 736.835C224.159 736.605 223.654 736.49 222.964 736.49C222.524 736.49 221.879 736.58 221.029 736.76L220.639 736.835L220.564 735.92C221.574 735.62 222.409 735.47 223.069 735.47C224.099 735.47 224.859 735.66 225.349 736.04C225.849 736.41 226.099 737.02 226.099 737.87ZM222.259 745.985V744.305H223.489V745.985H222.259Z" fill="white"/>
<path d="M238.945 746H233.185V735.725H234.85V744.515H238.945V746ZM240.514 739.31C241.034 738.66 241.894 738.335 243.094 738.335C244.294 738.335 245.149 738.66 245.659 739.31C246.179 739.96 246.439 740.935 246.439 742.235C246.439 743.535 246.189 744.515 245.689 745.175C245.189 745.835 244.324 746.165 243.094 746.165C241.864 746.165 240.999 745.835 240.499 745.175C239.999 744.515 239.749 743.535 239.749 742.235C239.749 740.935 240.004 739.96 240.514 739.31ZM241.744 744.185C241.974 744.585 242.424 744.785 243.094 744.785C243.764 744.785 244.214 744.585 244.444 744.185C244.674 743.785 244.789 743.13 244.789 742.22C244.789 741.31 244.664 740.665 244.414 740.285C244.174 739.905 243.734 739.715 243.094 739.715C242.454 739.715 242.009 739.905 241.759 740.285C241.519 740.665 241.399 741.31 241.399 742.22C241.399 743.13 241.514 743.785 241.744 744.185ZM254.618 747.02C254.618 748.66 253.433 749.48 251.063 749.48C249.923 749.48 249.078 749.325 248.528 749.015C247.978 748.705 247.703 748.14 247.703 747.32C247.703 746.95 247.793 746.63 247.973 746.36C248.153 746.1 248.443 745.815 248.843 745.505C248.513 745.285 248.348 744.92 248.348 744.41C248.348 744.21 248.483 743.885 248.753 743.435L248.888 743.21C248.168 742.78 247.808 742.03 247.808 740.96C247.808 740.06 248.078 739.4 248.618 738.98C249.158 738.56 249.888 738.35 250.808 738.35C251.248 738.35 251.683 738.4 252.113 738.5L252.338 738.545L254.663 738.485V739.805L253.418 739.73C253.688 740.08 253.823 740.49 253.823 740.96C253.823 741.94 253.573 742.62 253.073 743C252.583 743.37 251.813 743.555 250.763 743.555C250.503 743.555 250.283 743.535 250.103 743.495C249.963 743.835 249.893 744.1 249.893 744.29C249.893 744.47 249.983 744.595 250.163 744.665C250.353 744.735 250.803 744.775 251.513 744.785C252.703 744.795 253.518 744.955 253.958 745.265C254.398 745.575 254.618 746.16 254.618 747.02ZM249.308 747.17C249.308 747.52 249.448 747.77 249.728 747.92C250.008 748.07 250.488 748.145 251.168 748.145C252.378 748.145 252.983 747.8 252.983 747.11C252.983 746.72 252.873 746.47 252.653 746.36C252.443 746.26 252.018 746.205 251.378 746.195L249.908 746.105C249.688 746.285 249.533 746.45 249.443 746.6C249.353 746.76 249.308 746.95 249.308 747.17ZM249.428 740.96C249.428 741.42 249.538 741.76 249.758 741.98C249.978 742.19 250.333 742.295 250.823 742.295C251.313 742.295 251.663 742.19 251.873 741.98C252.093 741.76 252.203 741.42 252.203 740.96C252.203 740.5 252.093 740.165 251.873 739.955C251.653 739.735 251.298 739.625 250.808 739.625C249.888 739.625 249.428 740.07 249.428 740.96ZM255.944 746V738.5H257.579V746H255.944ZM255.944 737.225V735.5H257.579V737.225H255.944ZM261.197 746H259.562V738.5H261.182V738.965C261.912 738.545 262.602 738.335 263.252 738.335C264.252 738.335 264.932 738.62 265.292 739.19C265.662 739.75 265.847 740.68 265.847 741.98V746H264.227V742.025C264.227 741.215 264.137 740.64 263.957 740.3C263.787 739.96 263.432 739.79 262.892 739.79C262.382 739.79 261.892 739.89 261.422 740.09L261.197 740.18V746Z" fill="white"/>
<path d="M109.79 286.624H116.818C118.741 286.624 120.178 287.025 121.13 287.828C122.101 288.612 122.586 289.853 122.586 291.552C122.586 292.765 122.371 293.717 121.942 294.408C121.531 295.08 120.915 295.612 120.094 296.004C122.147 296.713 123.174 298.235 123.174 300.568C123.174 302.509 122.661 303.9 121.634 304.74C120.607 305.58 119.123 306 117.182 306H109.79V286.624ZM116.958 297.096H111.946V304.096H117.098C118.367 304.096 119.329 303.835 119.982 303.312C120.654 302.771 120.99 301.828 120.99 300.484C120.99 299.775 120.85 299.177 120.57 298.692C120.309 298.207 119.954 297.861 119.506 297.656C118.685 297.283 117.835 297.096 116.958 297.096ZM116.734 288.528H111.946V295.22H116.93C118.125 295.22 118.993 294.94 119.534 294.38C120.094 293.801 120.374 292.943 120.374 291.804C120.374 290.647 120.075 289.816 119.478 289.312C118.899 288.789 117.985 288.528 116.734 288.528ZM136.2 304.264L137.012 304.18L137.068 305.832C134.94 306.131 133.12 306.28 131.608 306.28C129.592 306.28 128.164 305.701 127.324 304.544C126.484 303.368 126.064 301.548 126.064 299.084C126.064 294.175 128.015 291.72 131.916 291.72C133.801 291.72 135.211 292.252 136.144 293.316C137.077 294.361 137.544 296.013 137.544 298.272L137.432 299.868H128.192C128.192 301.417 128.472 302.565 129.032 303.312C129.592 304.059 130.563 304.432 131.944 304.432C133.344 304.432 134.763 304.376 136.2 304.264ZM135.444 298.188C135.444 296.471 135.164 295.257 134.604 294.548C134.063 293.839 133.167 293.484 131.916 293.484C130.684 293.484 129.751 293.857 129.116 294.604C128.5 295.351 128.183 296.545 128.164 298.188H135.444ZM142.917 306H140.817V292H142.889V292.98C144.289 292.14 145.651 291.72 146.977 291.72C148.713 291.72 149.926 292.196 150.617 293.148C151.233 292.775 152.026 292.448 152.997 292.168C153.986 291.869 154.854 291.72 155.601 291.72C157.467 291.72 158.718 292.224 159.353 293.232C160.006 294.221 160.333 296.013 160.333 298.608V306H158.233V298.664C158.233 296.723 158.046 295.397 157.673 294.688C157.299 293.96 156.506 293.596 155.293 293.596C154.677 293.596 154.042 293.689 153.389 293.876C152.735 294.044 152.231 294.212 151.877 294.38L151.345 294.632C151.587 295.248 151.709 296.611 151.709 298.72V306H149.609V298.776C149.609 296.76 149.422 295.397 149.049 294.688C148.694 293.96 147.901 293.596 146.669 293.596C146.071 293.596 145.455 293.689 144.821 293.876C144.205 294.044 143.729 294.212 143.393 294.38L142.917 294.632V306ZM169.059 292H171.299L174.575 304.18H175.611L178.999 292H181.155L177.207 306H173.007L169.059 292ZM183.856 306V292H185.956V306H183.856ZM183.856 288.836V286.4H185.956V288.836H183.856ZM192.081 306H189.981V292H192.053V292.98C193.565 292.14 195.012 291.72 196.393 291.72C198.26 291.72 199.51 292.224 200.145 293.232C200.798 294.24 201.125 296.032 201.125 298.608V306H199.053V298.664C199.053 296.723 198.857 295.397 198.465 294.688C198.092 293.96 197.28 293.596 196.029 293.596C195.432 293.596 194.797 293.689 194.125 293.876C193.472 294.044 192.968 294.212 192.613 294.38L192.081 294.632V306ZM215.772 285.896V306H213.7V305.048C212.263 305.869 210.844 306.28 209.444 306.28C208.697 306.28 208.044 306.187 207.484 306C206.924 305.813 206.401 305.477 205.916 304.992C204.908 303.984 204.404 302.127 204.404 299.42C204.404 296.695 204.852 294.735 205.748 293.54C206.663 292.327 208.165 291.72 210.256 291.72C211.339 291.72 212.487 291.841 213.7 292.084V285.896H215.772ZM207.54 303.48C207.839 303.835 208.156 304.077 208.492 304.208C208.828 304.339 209.257 304.404 209.78 304.404C210.321 304.404 210.919 304.32 211.572 304.152C212.244 303.965 212.767 303.788 213.14 303.62L213.7 303.368V293.876C212.505 293.652 211.395 293.54 210.368 293.54C208.949 293.54 207.96 293.997 207.4 294.912C206.84 295.808 206.56 297.208 206.56 299.112C206.56 301.277 206.887 302.733 207.54 303.48ZM219.224 298.972C219.224 296.415 219.682 294.567 220.596 293.428C221.511 292.289 223.051 291.72 225.216 291.72C227.4 291.72 228.94 292.289 229.836 293.428C230.751 294.567 231.208 296.415 231.208 298.972C231.208 301.529 230.779 303.387 229.92 304.544C229.062 305.701 227.494 306.28 225.216 306.28C222.939 306.28 221.371 305.701 220.512 304.544C219.654 303.387 219.224 301.529 219.224 298.972ZM221.38 298.944C221.38 300.979 221.623 302.407 222.108 303.228C222.612 304.049 223.648 304.46 225.216 304.46C226.803 304.46 227.839 304.059 228.324 303.256C228.81 302.435 229.052 300.997 229.052 298.944C229.052 296.891 228.782 295.481 228.24 294.716C227.699 293.932 226.691 293.54 225.216 293.54C223.76 293.54 222.752 293.932 222.192 294.716C221.651 295.481 221.38 296.891 221.38 298.944ZM250.67 296.228V303.396C250.726 304.087 251.267 304.497 252.294 304.628L252.21 306.28C250.735 306.28 249.624 305.907 248.878 305.16C247.198 305.907 245.518 306.28 243.838 306.28C242.55 306.28 241.57 305.916 240.898 305.188C240.226 304.46 239.89 303.415 239.89 302.052C239.89 300.689 240.235 299.691 240.926 299.056C241.616 298.403 242.699 298.001 244.174 297.852L248.57 297.432V296.228C248.57 295.276 248.364 294.595 247.954 294.184C247.543 293.773 246.983 293.568 246.274 293.568C244.78 293.568 243.231 293.661 241.626 293.848L240.758 293.932L240.674 292.336C242.727 291.925 244.547 291.72 246.134 291.72C247.72 291.72 248.868 292.084 249.578 292.812C250.306 293.54 250.67 294.679 250.67 296.228ZM242.046 301.94C242.046 303.657 242.755 304.516 244.174 304.516C245.443 304.516 246.694 304.301 247.926 303.872L248.57 303.648V299.028L244.426 299.42C243.586 299.495 242.979 299.737 242.606 300.148C242.232 300.559 242.046 301.156 242.046 301.94ZM254.197 298.972C254.197 296.415 254.654 294.567 255.569 293.428C256.484 292.289 258.024 291.72 260.189 291.72C262.373 291.72 263.913 292.289 264.809 293.428C265.724 294.567 266.181 296.415 266.181 298.972C266.181 301.529 265.752 303.387 264.893 304.544C264.034 305.701 262.466 306.28 260.189 306.28C257.912 306.28 256.344 305.701 255.485 304.544C254.626 303.387 254.197 301.529 254.197 298.972ZM256.353 298.944C256.353 300.979 256.596 302.407 257.081 303.228C257.585 304.049 258.621 304.46 260.189 304.46C261.776 304.46 262.812 304.059 263.297 303.256C263.782 302.435 264.025 300.997 264.025 298.944C264.025 296.891 263.754 295.481 263.213 294.716C262.672 293.932 261.664 293.54 260.189 293.54C258.733 293.54 257.725 293.932 257.165 294.716C256.624 295.481 256.353 296.891 256.353 298.944Z" fill="white" fill-opacity="0.504289"/>
<path d="M86.4651 360V326.64H92.0331L102.353 355.824L112.625 326.64H118.193V360H115.217V329.712H114.545L104.081 358.896H100.577L90.1131 329.712H89.4411V360H86.4651ZM141.621 357.6L143.061 357.456L143.157 359.808C139.541 360.256 136.485 360.48 133.989 360.48C130.533 360.448 128.117 359.424 126.741 357.408C125.365 355.392 124.677 352.288 124.677 348.096C124.677 339.712 127.973 335.52 134.565 335.52C137.733 335.52 140.101 336.432 141.669 338.256C143.237 340.048 144.021 342.928 144.021 346.896L143.925 349.2H127.605C127.605 352.144 128.101 354.336 129.093 355.776C130.117 357.184 131.845 357.888 134.277 357.888C136.741 357.888 139.189 357.792 141.621 357.6ZM127.605 346.8H141.141C141.141 343.632 140.613 341.376 139.557 340.032C138.533 338.688 136.869 338.016 134.565 338.016C132.293 338.016 130.565 338.72 129.381 340.128C128.197 341.504 127.605 343.728 127.605 346.8ZM165.088 336H167.92V360H165.088V358.224C162.624 359.728 160.16 360.48 157.696 360.48C154.432 360.48 152.272 359.648 151.216 357.984C150.192 356.32 149.68 353.168 149.68 348.528V336H152.512V348.48C152.512 352.192 152.848 354.688 153.52 355.968C154.224 357.248 155.728 357.888 158.032 357.888C159.152 357.888 160.304 357.728 161.488 357.408C162.672 357.056 163.568 356.704 164.176 356.352L165.088 355.872V336ZM198.454 348.384H189.238V360H186.262V326.64H198.454C202.006 326.64 204.614 327.504 206.278 329.232C207.974 330.96 208.822 333.616 208.822 337.2C208.822 344.656 205.366 348.384 198.454 348.384ZM189.238 345.744H198.454C203.318 345.744 205.75 342.896 205.75 337.2C205.75 334.48 205.174 332.48 204.022 331.2C202.87 329.92 201.014 329.28 198.454 329.28H189.238V345.744ZM214.139 360V336H216.971V339.456C218.155 338.624 219.595 337.824 221.291 337.056C223.019 336.288 224.603 335.776 226.043 335.52V338.4C224.667 338.688 223.227 339.136 221.723 339.744C220.219 340.32 219.051 340.832 218.219 341.28L216.971 342V360H214.139ZM246.917 343.152V356.016C247.045 357.2 248.085 357.904 250.037 358.128L249.893 360.432C247.429 360.432 245.621 359.792 244.469 358.512C241.461 359.824 238.453 360.48 235.445 360.48C233.301 360.48 231.669 359.872 230.549 358.656C229.429 357.408 228.869 355.648 228.869 353.376C228.869 351.072 229.429 349.376 230.549 348.288C231.701 347.168 233.493 346.48 235.925 346.224L244.085 345.408V343.152C244.085 341.36 243.685 340.08 242.885 339.312C242.117 338.512 241.077 338.112 239.765 338.112C237.717 338.112 235.061 338.304 231.797 338.688L230.309 338.832L230.165 336.528C233.685 335.856 236.757 335.52 239.381 335.52C242.037 335.52 243.957 336.144 245.141 337.392C246.325 338.64 246.917 340.56 246.917 343.152ZM231.845 353.184C231.845 356.416 233.173 358.032 235.829 358.032C236.981 358.032 238.245 357.904 239.621 357.648C240.997 357.36 242.085 357.072 242.885 356.784L244.085 356.352V347.664L236.261 348.48C234.693 348.608 233.557 349.056 232.853 349.824C232.181 350.592 231.845 351.712 231.845 353.184ZM266.502 338.544H258.486V350.4C258.486 353.504 258.71 355.536 259.158 356.496C259.606 357.456 260.662 357.936 262.326 357.936L266.742 357.6L266.934 360.048C264.822 360.368 263.206 360.528 262.086 360.528C259.654 360.528 257.958 359.936 256.998 358.752C256.07 357.536 255.606 355.232 255.606 351.84V338.544H252.054V336H255.606V328.464H258.486V336H266.502V338.544ZM269.99 347.952C269.99 343.44 270.742 340.24 272.246 338.352C273.782 336.464 276.374 335.52 280.022 335.52C283.702 335.52 286.294 336.464 287.798 338.352C289.334 340.24 290.102 343.44 290.102 347.952C290.102 352.464 289.398 355.68 287.99 357.6C286.614 359.52 283.974 360.48 280.07 360.48C276.166 360.48 273.51 359.52 272.102 357.6C270.694 355.68 269.99 352.464 269.99 347.952ZM272.966 347.904C272.966 351.68 273.398 354.304 274.262 355.776C275.158 357.216 277.078 357.936 280.022 357.936C282.998 357.936 284.934 357.2 285.83 355.728C286.726 354.256 287.174 351.648 287.174 347.904C287.174 344.128 286.662 341.552 285.638 340.176C284.646 338.768 282.79 338.064 280.07 338.064C277.35 338.064 275.478 338.752 274.454 340.128C273.462 341.504 272.966 344.096 272.966 347.904Z" fill="white"/>
<path d="M160.179 195V184.23H161.304V195H160.179ZM163.23 191.235C163.23 189.865 163.475 188.875 163.965 188.265C164.455 187.655 165.28 187.35 166.44 187.35C167.61 187.35 168.435 187.655 168.915 188.265C169.405 188.875 169.65 189.865 169.65 191.235C169.65 192.605 169.42 193.6 168.96 194.22C168.5 194.84 167.66 195.15 166.44 195.15C165.22 195.15 164.38 194.84 163.92 194.22C163.46 193.6 163.23 192.605 163.23 191.235ZM164.385 191.22C164.385 192.31 164.515 193.075 164.775 193.515C165.045 193.955 165.6 194.175 166.44 194.175C167.29 194.175 167.845 193.96 168.105 193.53C168.365 193.09 168.495 192.32 168.495 191.22C168.495 190.12 168.35 189.365 168.06 188.955C167.77 188.535 167.23 188.325 166.44 188.325C165.66 188.325 165.12 188.535 164.82 188.955C164.53 189.365 164.385 190.12 164.385 191.22ZM174.38 198.525C173.18 198.525 172.34 198.36 171.86 198.03C171.39 197.71 171.155 197.12 171.155 196.26C171.155 195.85 171.245 195.515 171.425 195.255C171.605 195.005 171.91 194.72 172.34 194.4C172.06 194.21 171.92 193.865 171.92 193.365C171.92 193.195 172.045 192.88 172.295 192.42L172.43 192.18C171.64 191.82 171.245 191.065 171.245 189.915C171.245 188.205 172.18 187.35 174.05 187.35C174.53 187.35 174.975 187.4 175.385 187.5L175.61 187.545L177.83 187.485V188.445L176.405 188.415C176.735 188.745 176.9 189.245 176.9 189.915C176.9 190.855 176.665 191.515 176.195 191.895C175.735 192.265 175.005 192.45 174.005 192.45C173.735 192.45 173.49 192.43 173.27 192.39C173.09 192.83 173 193.115 173 193.245C173 193.555 173.095 193.75 173.285 193.83C173.475 193.9 174.05 193.935 175.01 193.935C175.97 193.935 176.66 194.085 177.08 194.385C177.5 194.685 177.71 195.27 177.71 196.14C177.71 197.73 176.6 198.525 174.38 198.525ZM172.265 196.17C172.265 196.7 172.41 197.065 172.7 197.265C173 197.475 173.545 197.58 174.335 197.58C175.135 197.58 175.705 197.47 176.045 197.25C176.395 197.03 176.57 196.66 176.57 196.14C176.57 195.63 176.445 195.3 176.195 195.15C175.945 195 175.455 194.925 174.725 194.925L173.105 194.85C172.775 195.09 172.55 195.3 172.43 195.48C172.32 195.66 172.265 195.89 172.265 196.17ZM172.37 189.915C172.37 190.505 172.5 190.925 172.76 191.175C173.03 191.425 173.47 191.55 174.08 191.55C174.69 191.55 175.125 191.425 175.385 191.175C175.645 190.925 175.775 190.505 175.775 189.915C175.775 189.315 175.645 188.89 175.385 188.64C175.125 188.39 174.69 188.265 174.08 188.265C173.47 188.265 173.03 188.395 172.76 188.655C172.5 188.905 172.37 189.325 172.37 189.915ZM178.86 191.235C178.86 189.865 179.105 188.875 179.595 188.265C180.085 187.655 180.91 187.35 182.07 187.35C183.24 187.35 184.065 187.655 184.545 188.265C185.035 188.875 185.28 189.865 185.28 191.235C185.28 192.605 185.05 193.6 184.59 194.22C184.13 194.84 183.29 195.15 182.07 195.15C180.85 195.15 180.01 194.84 179.55 194.22C179.09 193.6 178.86 192.605 178.86 191.235ZM180.015 191.22C180.015 192.31 180.145 193.075 180.405 193.515C180.675 193.955 181.23 194.175 182.07 194.175C182.92 194.175 183.475 193.96 183.735 193.53C183.995 193.09 184.125 192.32 184.125 191.22C184.125 190.12 183.98 189.365 183.69 188.955C183.4 188.535 182.86 188.325 182.07 188.325C181.29 188.325 180.75 188.535 180.45 188.955C180.16 189.365 180.015 190.12 180.015 191.22ZM195.706 189.765V193.605C195.736 193.975 196.026 194.195 196.576 194.265L196.531 195.15C195.741 195.15 195.146 194.95 194.746 194.55C193.846 194.95 192.946 195.15 192.046 195.15C191.356 195.15 190.831 194.955 190.471 194.565C190.111 194.175 189.931 193.615 189.931 192.885C189.931 192.155 190.116 191.62 190.486 191.28C190.856 190.93 191.436 190.715 192.226 190.635L194.581 190.41V189.765C194.581 189.255 194.471 188.89 194.251 188.67C194.031 188.45 193.731 188.34 193.351 188.34C192.551 188.34 191.721 188.39 190.861 188.49L190.396 188.535L190.351 187.68C191.451 187.46 192.426 187.35 193.276 187.35C194.126 187.35 194.741 187.545 195.121 187.935C195.511 188.325 195.706 188.935 195.706 189.765ZM191.086 192.825C191.086 193.745 191.466 194.205 192.226 194.205C192.906 194.205 193.576 194.09 194.236 193.86L194.581 193.74V191.265L192.361 191.475C191.911 191.515 191.586 191.645 191.386 191.865C191.186 192.085 191.086 192.405 191.086 192.825ZM200.416 195.15C199.406 195.15 198.681 194.855 198.241 194.265C197.811 193.675 197.596 192.675 197.596 191.265C197.596 189.855 197.856 188.85 198.376 188.25C198.896 187.65 199.816 187.35 201.136 187.35L203.641 187.5V198.33H202.531V194.655C201.831 194.985 201.126 195.15 200.416 195.15ZM201.151 188.325C200.211 188.325 199.571 188.56 199.231 189.03C198.901 189.5 198.736 190.25 198.736 191.28C198.736 192.3 198.871 193.035 199.141 193.485C199.421 193.925 199.886 194.145 200.536 194.145C201.116 194.145 201.691 194.035 202.261 193.815L202.531 193.71V188.415C201.911 188.355 201.451 188.325 201.151 188.325ZM210.501 187.5H211.626V195H210.501V194.475C209.751 194.925 209.011 195.15 208.281 195.15C207.261 195.15 206.581 194.885 206.241 194.355C205.911 193.825 205.746 192.845 205.746 191.415V187.5H206.871V191.4C206.871 192.49 206.966 193.22 207.156 193.59C207.346 193.96 207.776 194.145 208.446 194.145C208.776 194.145 209.111 194.1 209.451 194.01C209.791 193.91 210.051 193.815 210.231 193.725L210.501 193.59V187.5ZM213.79 195V187.5H214.915V195H213.79ZM213.79 185.805V184.5H214.915V185.805H213.79Z" fill="black"/>
<circle cx="187.5" cy="168.5" r="85.5" fill="#C5D6F1"/>
<circle cx="186.5" cy="168.5" r="63" fill="#B7CDEF" stroke="#347AF0" stroke-width="5"/>
<path d="M224.424 204.547L229.668 200.059C229.668 200.059 229.669 200.058 229.67 200.058C229.916 199.844 230.075 199.529 230.099 199.182C230.123 198.834 230.007 198.501 229.792 198.257C229.792 198.257 229.792 198.257 229.792 198.257L230.918 197.266C222.766 188.009 217.478 176.508 214.565 168.557C214.217 167.607 213.893 166.685 213.591 165.793L224.424 204.547ZM224.424 204.547L216.686 195.101L216.682 195.096C215.04 193.108 212.117 192.869 210.172 194.565L210.172 194.565C208.253 196.239 208.011 199.17 209.631 201.134C209.632 201.135 209.633 201.136 209.634 201.137L217.371 210.583L211.802 215.349C211.558 215.558 211.251 215.651 210.952 215.62L210.952 215.62C210.652 215.589 210.368 215.434 210.169 215.175C202.077 204.59 190.368 197.613 181.486 193.47C182.158 191.165 182.53 188.772 182.572 186.357C184.253 184.716 185.674 182.838 186.792 180.786C187.271 180.597 187.742 180.392 188.205 180.175L201.382 185.62L204.729 187.003L203.34 183.659L198.885 172.931C201.962 172.04 204.861 170.478 207.373 168.327L207.375 168.326L207.474 168.241L207.479 168.236C207.839 167.925 208.188 167.604 208.526 167.273C209.865 167.423 211.211 167.459 212.552 167.382L224.424 204.547ZM138.086 166.826C138.467 163.523 140.076 160.487 142.626 158.278C143.211 157.774 143.819 157.329 144.452 156.946L145.59 156.258L145.043 155.046C143.479 151.577 142.937 147.639 143.531 143.644L143.531 143.644C144.307 138.426 146.958 133.62 151.004 130.117L151.004 130.117L151.007 130.114C151.036 130.088 151.067 130.062 151.103 130.031C154.889 126.791 159.6 124.96 164.37 124.849C168.093 124.762 171.678 125.718 174.741 127.566L175.865 128.245L176.686 127.221C177.432 126.291 178.262 125.429 179.17 124.642C179.202 124.614 179.232 124.589 179.26 124.564L179.26 124.564C187.051 117.896 198.253 118.655 204.323 126.041C204.745 126.554 205.136 127.093 205.494 127.654L206.158 128.694L207.307 128.242C209.717 127.294 212.304 126.96 214.816 127.287C218.384 127.752 221.588 129.524 223.848 132.275L225.007 131.322L223.848 132.275C226.373 135.347 227.517 139.312 227.038 143.469L228.528 143.641L227.038 143.469C226.566 147.561 224.572 151.323 221.41 154.061L221.403 154.067C221.384 154.083 221.365 154.1 221.337 154.124L221.337 154.124C216.93 157.895 211.016 158.914 206.057 157.062L204.896 156.628L204.251 157.687C203.495 158.93 202.546 160.055 201.433 161.019C201.432 161.02 201.432 161.02 201.431 161.021L201.398 161.049L201.367 161.076L202.342 162.216L201.367 161.076C198.823 163.253 195.715 164.38 192.59 164.338L191.703 164.326L191.265 165.099C190.378 166.664 189.224 168.078 187.861 169.258L187.86 169.26C185.836 171.017 183.393 172.204 180.851 172.7L179.979 172.87L179.709 173.717C178.932 176.158 177.485 178.365 175.509 180.077C174.943 180.564 174.349 181.004 173.731 181.387L172.87 181.922L173.044 182.92C174.078 188.85 171.838 195.224 167.018 199.399C166.988 199.425 166.961 199.448 166.935 199.471C159.737 205.631 149.392 204.921 143.788 198.101C139.485 192.865 139.017 185.358 142.437 179.216L143.036 178.141L142.098 177.343C141.586 176.909 141.11 176.424 140.67 175.889C138.627 173.402 137.698 170.194 138.086 166.826ZM138.086 166.826L136.596 166.655L138.086 166.826ZM173.094 206.57C174.743 205.142 176.196 203.539 177.439 201.807C180.891 203.405 184.832 205.48 188.763 208.069C188.006 209.043 187.15 209.949 186.2 210.772C186.2 210.772 186.199 210.772 186.199 210.772C186.169 210.798 186.141 210.822 186.115 210.845L186.115 210.845C179.587 216.432 170.421 216.584 163.962 211.772C167.161 210.718 170.229 209.023 172.971 206.676L172.974 206.673L173.091 206.573L173.094 206.57ZM227.396 161.328L227.399 161.325C229.608 159.412 231.456 157.17 232.89 154.698C233.795 156.878 234.162 159.28 233.934 161.738C233.572 165.643 231.753 169.189 228.813 171.735L228.813 171.735C228.793 171.752 228.771 171.771 228.747 171.792L228.747 171.792C227.63 172.747 226.417 173.499 225.151 174.055C223.644 170.852 222.502 167.984 221.711 165.824L221.711 165.824C221.631 165.607 221.552 165.387 221.472 165.164C223.536 164.205 225.496 162.955 227.285 161.423L227.289 161.42L227.396 161.328Z" fill="#347AF0" stroke="#347AF0" stroke-width="3"/>
</svg>
